<svg width="17" height="17" viewBox="0 0 17 17" fill="none" xmlns="http://www.w3.org/2000/svg">
<g clip-path="url(#clip0_10_6594)">
<path d="M16.2726 6.47587V3.64355C16.2726 2.97152 15.7259 2.4248 15.0538 2.4248H12.8398C12.1652 2.4248 11.6163 2.97368 11.6163 3.6483V3.9248C11.6163 4.0974 11.7562 4.2373 11.9288 4.2373H14.3663C14.418 4.2373 14.4601 4.27937 14.4601 4.33105V6.42521H1.9614C1.40927 6.42521 0.960083 6.8744 0.960083 7.42652C0.960083 7.86905 1.24874 8.24521 1.64758 8.37718V11.0873C1.64758 12.5708 2.75521 13.8003 4.18686 13.9926L3.97749 14.202C3.85546 14.3241 3.85546 14.5219 3.97749 14.644C4.00647 14.673 4.04092 14.6961 4.07884 14.7118C4.11676 14.7275 4.15741 14.7355 4.19846 14.7355C4.2395 14.7355 4.28015 14.7275 4.31808 14.7118C4.356 14.6961 4.39044 14.673 4.41943 14.644L5.0444 14.019H12.8757L13.5007 14.644C13.5297 14.673 13.5641 14.6961 13.6021 14.7118C13.64 14.7275 13.6806 14.7355 13.7217 14.7355C13.7627 14.7355 13.8034 14.7275 13.8413 14.7118C13.8792 14.6961 13.9137 14.673 13.9426 14.644C14.0647 14.5219 14.0647 14.3241 13.9426 14.202L13.7333 13.9926C15.165 13.8003 16.2726 12.5708 16.2726 11.0873V8.37718C16.6714 8.24521 16.9601 7.86905 16.9601 7.42652C16.9601 6.98399 16.6714 6.60787 16.2726 6.47587ZM14.3663 3.6123H12.2424C12.2611 3.29899 12.5219 3.0498 12.8398 3.0498H15.0538C15.3812 3.0498 15.6476 3.31615 15.6476 3.64355V6.4248H15.0851V4.33105C15.0851 3.93474 14.7626 3.6123 14.3663 3.6123ZM3.27258 7.05021H8.64758V11.1368L8.60352 11.114C8.20024 10.9049 7.71865 10.9049 7.31465 11.1143L7.31246 11.1155C7.20285 11.1722 7.08118 11.2018 6.95775 11.2016C6.83432 11.2014 6.71274 11.1715 6.6033 11.1144C6.40463 11.0107 6.18383 10.9565 5.95971 10.9566C5.73615 10.9565 5.51587 11.0104 5.31768 11.1139C5.20772 11.1708 5.08572 11.2006 4.9619 11.2007C4.83808 11.2008 4.71604 11.1712 4.60599 11.1144L4.60471 11.1138C4.40564 11.0107 4.18475 10.9569 3.96059 10.9569C3.73642 10.9569 3.51553 11.0107 3.31646 11.1137L3.27258 11.1365V7.05021ZM1.58508 7.42649C1.58508 7.21902 1.7539 7.05021 1.9614 7.05021H2.64758V7.8028H1.9614C1.7539 7.8028 1.58508 7.63399 1.58508 7.42649ZM15.6475 11.0873C15.6476 12.3592 14.6128 13.394 13.3409 13.394H4.57921C3.30733 13.394 2.27258 12.3592 2.27258 11.0873V8.42784H2.64758V11.622C2.64758 11.7364 2.7083 11.8444 2.80602 11.9038C2.85448 11.9331 2.90962 11.9494 2.9662 11.9514C3.02277 11.9533 3.0789 11.9407 3.12924 11.9148L3.60418 11.6686C3.71413 11.6116 3.83612 11.5819 3.95993 11.5818C4.08375 11.5817 4.20579 11.6112 4.31583 11.668L4.31715 11.6686C4.72049 11.8778 5.20205 11.8778 5.60443 11.6691L5.60805 11.6673C5.71715 11.6108 5.83826 11.5814 5.96112 11.5816C6.08398 11.5817 6.20499 11.6115 6.31393 11.6683C6.51253 11.7719 6.73316 11.8261 6.95715 11.8264C7.18115 11.8267 7.40191 11.773 7.60077 11.6699L7.60296 11.6688C7.71311 11.6118 7.83533 11.582 7.95936 11.582C8.0834 11.582 8.20562 11.6118 8.31577 11.6688L8.79077 11.9151C8.83768 11.9394 8.88974 11.952 8.94255 11.9519C9.00297 11.952 9.06226 11.9355 9.11396 11.9043C9.16225 11.8747 9.20217 11.8333 9.22993 11.784C9.25768 11.7346 9.27234 11.679 9.27252 11.6224V8.42784H15.6475V11.0873ZM15.9588 7.80284H9.27258V7.05024H15.9588C16.1663 7.05024 16.3351 7.21905 16.3351 7.42655C16.3351 7.63402 16.1663 7.80284 15.9588 7.80284Z" fill="black"/>
<path d="M10.6668 12.1182H10.6495C10.4769 12.1182 10.337 12.2581 10.337 12.4307C10.337 12.6033 10.4769 12.7432 10.6495 12.7432H10.6668C10.8394 12.7432 10.9793 12.6033 10.9793 12.4307C10.9793 12.2581 10.8394 12.1182 10.6668 12.1182ZM14.619 10.0047C14.4464 10.0047 14.3065 10.1446 14.3065 10.3172C14.3065 11.3103 13.4986 12.1182 12.5055 12.1182H11.632C11.4594 12.1182 11.3195 12.2581 11.3195 12.4307C11.3195 12.6033 11.4594 12.7432 11.632 12.7432H12.5055C13.8432 12.7432 14.9315 11.6549 14.9315 10.3172C14.9315 10.1446 14.7916 10.0047 14.619 10.0047ZM11.7119 5.38222C11.5487 5.32603 11.3709 5.41291 11.3148 5.57616L11.264 5.72391C11.2079 5.88713 11.2947 6.06491 11.4579 6.12103C11.4906 6.13232 11.525 6.13809 11.5595 6.1381C11.6893 6.1381 11.8105 6.05666 11.855 5.9271L11.9058 5.77935C11.9619 5.61613 11.8751 5.43835 11.7119 5.38222ZM12.0675 4.34788C11.9043 4.29175 11.7265 4.3786 11.6704 4.54181L11.6196 4.6896C11.5635 4.85281 11.6503 5.0306 11.8135 5.08672C11.8462 5.09799 11.8806 5.10376 11.9151 5.10378C12.0449 5.10378 12.1661 5.02235 12.2107 4.89278L12.2614 4.745C12.3175 4.58178 12.2307 4.40397 12.0675 4.34788ZM12.6632 5.43135C12.4906 5.43135 12.3507 5.57125 12.3507 5.74385V5.9001C12.3507 6.07269 12.4906 6.2126 12.6632 6.2126C12.8358 6.2126 12.9757 6.07269 12.9757 5.9001V5.74385C12.9757 5.57125 12.8358 5.43135 12.6632 5.43135ZM12.6632 4.3376C12.4906 4.3376 12.3507 4.4775 12.3507 4.6501V4.80635C12.3507 4.97894 12.4906 5.11885 12.6632 5.11885C12.8358 5.11885 12.9757 4.97894 12.9757 4.80635V4.6501C12.9757 4.4775 12.8358 4.3376 12.6632 4.3376ZM14.0676 5.72391L14.0168 5.57616C13.9607 5.41294 13.7829 5.32603 13.6197 5.38222C13.4565 5.43835 13.3697 5.61613 13.4258 5.77935L13.4766 5.9271C13.5211 6.05666 13.6423 6.1381 13.7721 6.1381C13.8067 6.13808 13.841 6.13231 13.8737 6.12103C14.0369 6.06494 14.1237 5.88713 14.0676 5.72391ZM13.712 4.6896L13.6613 4.54181C13.6051 4.3786 13.4274 4.29181 13.2641 4.34788C13.1009 4.40397 13.0141 4.58178 13.0702 4.745L13.121 4.89278C13.1421 4.95434 13.182 5.00776 13.235 5.04558C13.2879 5.08341 13.3514 5.10375 13.4165 5.10378C13.4511 5.10376 13.4854 5.098 13.5181 5.08672C13.6813 5.03063 13.7681 4.85281 13.712 4.6896Z" fill="black"/>
</g>
<defs>
<clipPath id="clip0_10_6594">
<rect width="16" height="16" fill="white" transform="translate(0.960083 0.580078)"/>
</clipPath>
</defs>
</svg>
