<svg width="169" height="13" viewBox="0 0 169 13" fill="none" xmlns="http://www.w3.org/2000/svg">
<path d="M7.49023 8.67957H8.99023C8.91211 9.39832 8.70638 10.0415 8.37305 10.6093C8.03971 11.177 7.56836 11.6275 6.95898 11.9608C6.34961 12.2889 5.58919 12.453 4.67773 12.453C4.01107 12.453 3.4043 12.328 2.85742 12.078C2.31576 11.828 1.84961 11.4738 1.45898 11.0155C1.06836 10.552 0.766276 9.99727 0.552734 9.35144C0.344401 8.7004 0.240234 7.97644 0.240234 7.17957V6.04675C0.240234 5.24988 0.344401 4.52852 0.552734 3.88269C0.766276 3.23165 1.07096 2.67436 1.4668 2.21082C1.86784 1.74727 2.34961 1.3905 2.91211 1.1405C3.47461 0.890503 4.10742 0.765503 4.81055 0.765503C5.66992 0.765503 6.39648 0.926961 6.99023 1.24988C7.58398 1.57279 8.04492 2.02071 8.37305 2.59363C8.70638 3.16134 8.91211 3.82019 8.99023 4.57019H7.49023C7.41732 4.03894 7.2819 3.58321 7.08398 3.203C6.88607 2.81759 6.60482 2.52071 6.24023 2.31238C5.87565 2.10404 5.39909 1.99988 4.81055 1.99988C4.30534 1.99988 3.86003 2.09623 3.47461 2.28894C3.0944 2.48165 2.77409 2.75509 2.51367 3.10925C2.25846 3.46342 2.06576 3.8879 1.93555 4.38269C1.80534 4.87748 1.74023 5.42696 1.74023 6.03113V7.17957C1.74023 7.73686 1.79753 8.26029 1.91211 8.74988C2.0319 9.23946 2.21159 9.66915 2.45117 10.0389C2.69076 10.4087 2.99544 10.7004 3.36523 10.9139C3.73503 11.1223 4.17253 11.2264 4.67773 11.2264C5.31836 11.2264 5.82878 11.1249 6.20898 10.9218C6.58919 10.7186 6.87565 10.427 7.06836 10.0468C7.26628 9.66654 7.4069 9.21082 7.49023 8.67957Z" fill="#222222"/>
<path d="M15.8105 10.8514V6.49988C15.8105 6.16654 15.7428 5.87748 15.6074 5.63269C15.4772 5.38269 15.2793 5.18998 15.0137 5.05457C14.748 4.91915 14.4199 4.85144 14.0293 4.85144C13.6647 4.85144 13.3444 4.91394 13.0684 5.03894C12.7975 5.16394 12.584 5.328 12.4277 5.53113C12.2767 5.73425 12.2012 5.953 12.2012 6.18738H10.7559C10.7559 5.88529 10.834 5.58582 10.9902 5.28894C11.1465 4.99207 11.3704 4.72384 11.6621 4.48425C11.959 4.23946 12.3132 4.04675 12.7246 3.90613C13.1413 3.76029 13.6048 3.68738 14.1152 3.68738C14.7298 3.68738 15.2715 3.79154 15.7402 3.99988C16.2142 4.20821 16.584 4.52332 16.8496 4.94519C17.1204 5.36186 17.2559 5.88529 17.2559 6.5155V10.453C17.2559 10.7343 17.2793 11.0337 17.3262 11.3514C17.3783 11.6691 17.4538 11.9426 17.5527 12.1718V12.2968H16.0449C15.972 12.1301 15.9147 11.9087 15.873 11.6327C15.8314 11.3514 15.8105 11.091 15.8105 10.8514ZM16.0605 7.17175L16.0762 8.18738H14.6152C14.2038 8.18738 13.8366 8.22123 13.5137 8.28894C13.1908 8.35144 12.9199 8.44779 12.7012 8.578C12.4824 8.70821 12.3158 8.87227 12.2012 9.07019C12.0866 9.2629 12.0293 9.48946 12.0293 9.74988C12.0293 10.0155 12.0892 10.2577 12.209 10.4764C12.3288 10.6952 12.5085 10.8697 12.748 10.9999C12.9928 11.1249 13.2923 11.1874 13.6465 11.1874C14.0892 11.1874 14.4798 11.0936 14.8184 10.9061C15.1569 10.7186 15.4251 10.4895 15.623 10.2186C15.8262 9.94779 15.9355 9.68477 15.9512 9.42957L16.5684 10.1249C16.5319 10.3436 16.4329 10.5858 16.2715 10.8514C16.11 11.1171 15.8939 11.3723 15.623 11.6171C15.3574 11.8566 15.0397 12.0572 14.6699 12.2186C14.3053 12.3749 13.8939 12.453 13.4355 12.453C12.8626 12.453 12.36 12.341 11.9277 12.1171C11.5007 11.8931 11.1673 11.5936 10.9277 11.2186C10.6934 10.8384 10.5762 10.4139 10.5762 9.94519C10.5762 9.49207 10.6647 9.09363 10.8418 8.74988C11.0189 8.40092 11.2741 8.11186 11.6074 7.88269C11.9408 7.64832 12.3418 7.47123 12.8105 7.35144C13.2793 7.23165 13.8027 7.17175 14.3809 7.17175H16.0605Z" fill="#222222"/>
<path d="M20.9746 5.17175V12.2968H19.5293V3.84363H20.9355L20.9746 5.17175ZM23.6152 3.79675L23.6074 5.1405C23.4876 5.11446 23.373 5.09884 23.2637 5.09363C23.1595 5.08321 23.0397 5.078 22.9043 5.078C22.571 5.078 22.2767 5.13009 22.0215 5.23425C21.7663 5.33842 21.5501 5.48425 21.373 5.67175C21.196 5.85925 21.0553 6.08321 20.9512 6.34363C20.8522 6.59884 20.7871 6.88009 20.7559 7.18738L20.3496 7.42175C20.3496 6.91134 20.3991 6.43217 20.498 5.98425C20.6022 5.53634 20.7611 5.1405 20.9746 4.79675C21.1882 4.44779 21.459 4.17696 21.7871 3.98425C22.1204 3.78634 22.5163 3.68738 22.9746 3.68738C23.0788 3.68738 23.1986 3.7004 23.334 3.72644C23.4694 3.74727 23.5632 3.77071 23.6152 3.79675Z" fill="#222222"/>
<path d="M24.9434 0.296753H26.3965V10.6561L26.2715 12.2968H24.9434V0.296753ZM32.1074 7.99988V8.16394C32.1074 8.77852 32.0345 9.34884 31.8887 9.87488C31.7428 10.3957 31.5293 10.8488 31.248 11.2343C30.9668 11.6197 30.623 11.9191 30.2168 12.1327C29.8105 12.3462 29.3444 12.453 28.8184 12.453C28.2819 12.453 27.8105 12.3619 27.4043 12.1796C27.0033 11.9921 26.6647 11.7238 26.3887 11.3749C26.1126 11.0259 25.8913 10.604 25.7246 10.1093C25.5632 9.61446 25.4512 9.05717 25.3887 8.43738V7.71863C25.4512 7.09363 25.5632 6.53373 25.7246 6.03894C25.8913 5.54415 26.1126 5.12227 26.3887 4.77332C26.6647 4.41915 27.0033 4.15092 27.4043 3.96863C27.8053 3.78113 28.2715 3.68738 28.8027 3.68738C29.334 3.68738 29.8053 3.79154 30.2168 3.99988C30.6283 4.203 30.972 4.49467 31.248 4.87488C31.5293 5.25509 31.7428 5.71082 31.8887 6.24207C32.0345 6.76811 32.1074 7.35404 32.1074 7.99988ZM30.6543 8.16394V7.99988C30.6543 7.578 30.6152 7.18217 30.5371 6.81238C30.459 6.43738 30.334 6.10925 30.1621 5.828C29.9902 5.54154 29.7637 5.31759 29.4824 5.15613C29.2012 4.98946 28.8548 4.90613 28.4434 4.90613C28.0788 4.90613 27.7611 4.96863 27.4902 5.09363C27.2246 5.21863 26.998 5.3879 26.8105 5.60144C26.623 5.80977 26.4694 6.04936 26.3496 6.32019C26.235 6.58582 26.1491 6.86186 26.0918 7.14832V9.03113C26.1751 9.39571 26.3105 9.74727 26.498 10.0858C26.6908 10.4191 26.946 10.6926 27.2637 10.9061C27.5866 11.1197 27.985 11.2264 28.459 11.2264C28.8496 11.2264 29.1829 11.1483 29.459 10.9921C29.7402 10.8306 29.9668 10.6093 30.1387 10.328C30.3158 10.0468 30.446 9.72123 30.5293 9.35144C30.6126 8.98165 30.6543 8.58582 30.6543 8.16394Z" fill="#222222"/>
<path d="M33.5527 8.16394V7.98425C33.5527 7.37488 33.6413 6.80977 33.8184 6.28894C33.9954 5.7629 34.2507 5.30717 34.584 4.92175C34.9173 4.53113 35.321 4.22904 35.7949 4.0155C36.2689 3.79675 36.8001 3.68738 37.3887 3.68738C37.9824 3.68738 38.5163 3.79675 38.9902 4.0155C39.4694 4.22904 39.8757 4.53113 40.209 4.92175C40.5475 5.30717 40.8053 5.7629 40.9824 6.28894C41.1595 6.80977 41.248 7.37488 41.248 7.98425V8.16394C41.248 8.77332 41.1595 9.33842 40.9824 9.85925C40.8053 10.3801 40.5475 10.8358 40.209 11.2264C39.8757 11.6119 39.472 11.9139 38.998 12.1327C38.5293 12.3462 37.998 12.453 37.4043 12.453C36.8105 12.453 36.2767 12.3462 35.8027 12.1327C35.3288 11.9139 34.9225 11.6119 34.584 11.2264C34.2507 10.8358 33.9954 10.3801 33.8184 9.85925C33.6413 9.33842 33.5527 8.77332 33.5527 8.16394ZM34.998 7.98425V8.16394C34.998 8.58582 35.0475 8.98425 35.1465 9.35925C35.2454 9.72904 35.3939 10.0572 35.5918 10.3436C35.7949 10.6301 36.0475 10.8566 36.3496 11.0233C36.6517 11.1848 37.0033 11.2655 37.4043 11.2655C37.8001 11.2655 38.1465 11.1848 38.4434 11.0233C38.7454 10.8566 38.9954 10.6301 39.1934 10.3436C39.3913 10.0572 39.5397 9.72904 39.6387 9.35925C39.7428 8.98425 39.7949 8.58582 39.7949 8.16394V7.98425C39.7949 7.56759 39.7428 7.17436 39.6387 6.80457C39.5397 6.42957 39.3887 6.09884 39.1855 5.81238C38.9876 5.52071 38.7376 5.29154 38.4355 5.12488C38.1387 4.95821 37.7897 4.87488 37.3887 4.87488C36.9928 4.87488 36.6439 4.95821 36.3418 5.12488C36.0449 5.29154 35.7949 5.52071 35.5918 5.81238C35.3939 6.09884 35.2454 6.42957 35.1465 6.80457C35.0475 7.17436 34.998 7.56759 34.998 7.98425Z" fill="#222222"/>
<path d="M44.5059 5.64832V12.2968H43.0605V3.84363H44.4277L44.5059 5.64832ZM44.1621 7.74988L43.5605 7.72644C43.5658 7.14832 43.6517 6.61446 43.8184 6.12488C43.985 5.63009 44.2194 5.2004 44.5215 4.83582C44.8236 4.47123 45.1829 4.18998 45.5996 3.99207C46.0215 3.78894 46.4876 3.68738 46.998 3.68738C47.4147 3.68738 47.7897 3.74467 48.123 3.85925C48.4564 3.96863 48.7402 4.14571 48.9746 4.3905C49.2142 4.63529 49.3965 4.953 49.5215 5.34363C49.6465 5.72904 49.709 6.2004 49.709 6.75769V12.2968H48.2559V6.74207C48.2559 6.29936 48.1908 5.94519 48.0605 5.67957C47.9303 5.40873 47.7402 5.21342 47.4902 5.09363C47.2402 4.96863 46.9329 4.90613 46.5684 4.90613C46.209 4.90613 45.8809 4.98165 45.584 5.13269C45.2923 5.28373 45.0397 5.49207 44.8262 5.75769C44.6178 6.02332 44.4538 6.328 44.334 6.67175C44.2194 7.01029 44.1621 7.36967 44.1621 7.74988Z" fill="#222222"/>
<path d="M57.3105 5.52332V12.2968H55.8574V3.84363H57.2324L57.3105 5.52332ZM57.0137 7.74988L56.3418 7.72644C56.347 7.14832 56.4225 6.61446 56.5684 6.12488C56.7142 5.63009 56.9303 5.2004 57.2168 4.83582C57.5033 4.47123 57.86 4.18998 58.2871 3.99207C58.7142 3.78894 59.209 3.68738 59.7715 3.68738C60.1673 3.68738 60.5319 3.74467 60.8652 3.85925C61.1986 3.96863 61.4876 4.14311 61.7324 4.38269C61.9772 4.62227 62.1673 4.92957 62.3027 5.30457C62.4382 5.67957 62.5059 6.13269 62.5059 6.66394V12.2968H61.0605V6.73425C61.0605 6.29154 60.985 5.93738 60.834 5.67175C60.6882 5.40613 60.4798 5.21342 60.209 5.09363C59.9382 4.96863 59.6204 4.90613 59.2559 4.90613C58.8288 4.90613 58.472 4.98165 58.1855 5.13269C57.8991 5.28373 57.6699 5.49207 57.498 5.75769C57.3262 6.02332 57.2012 6.328 57.123 6.67175C57.0501 7.01029 57.0137 7.36967 57.0137 7.74988ZM62.4902 6.953L61.5215 7.24988C61.5267 6.78634 61.6022 6.34102 61.748 5.91394C61.8991 5.48686 62.1152 5.10665 62.3965 4.77332C62.6829 4.43998 63.0345 4.17696 63.4512 3.98425C63.8678 3.78634 64.3444 3.68738 64.8809 3.68738C65.334 3.68738 65.735 3.74727 66.084 3.86707C66.4382 3.98686 66.735 4.17175 66.9746 4.42175C67.2194 4.66654 67.4043 4.98165 67.5293 5.36707C67.6543 5.75248 67.7168 6.21082 67.7168 6.74207V12.2968H66.2637V6.72644C66.2637 6.25248 66.1882 5.88529 66.0371 5.62488C65.8913 5.35925 65.6829 5.17436 65.4121 5.07019C65.1465 4.96082 64.8288 4.90613 64.459 4.90613C64.1413 4.90613 63.86 4.96082 63.6152 5.07019C63.3704 5.17957 63.1647 5.33061 62.998 5.52332C62.8314 5.71082 62.7038 5.92696 62.6152 6.17175C62.5319 6.41654 62.4902 6.67696 62.4902 6.953Z" fill="#222222"/>
<path d="M69.5215 8.16394V7.98425C69.5215 7.37488 69.61 6.80977 69.7871 6.28894C69.9642 5.7629 70.2194 5.30717 70.5527 4.92175C70.8861 4.53113 71.2897 4.22904 71.7637 4.0155C72.2376 3.79675 72.7689 3.68738 73.3574 3.68738C73.9512 3.68738 74.485 3.79675 74.959 4.0155C75.4382 4.22904 75.8444 4.53113 76.1777 4.92175C76.5163 5.30717 76.7741 5.7629 76.9512 6.28894C77.1283 6.80977 77.2168 7.37488 77.2168 7.98425V8.16394C77.2168 8.77332 77.1283 9.33842 76.9512 9.85925C76.7741 10.3801 76.5163 10.8358 76.1777 11.2264C75.8444 11.6119 75.4408 11.9139 74.9668 12.1327C74.498 12.3462 73.9668 12.453 73.373 12.453C72.7793 12.453 72.2454 12.3462 71.7715 12.1327C71.2975 11.9139 70.8913 11.6119 70.5527 11.2264C70.2194 10.8358 69.9642 10.3801 69.7871 9.85925C69.61 9.33842 69.5215 8.77332 69.5215 8.16394ZM70.9668 7.98425V8.16394C70.9668 8.58582 71.0163 8.98425 71.1152 9.35925C71.2142 9.72904 71.3626 10.0572 71.5605 10.3436C71.7637 10.6301 72.0163 10.8566 72.3184 11.0233C72.6204 11.1848 72.972 11.2655 73.373 11.2655C73.7689 11.2655 74.1152 11.1848 74.4121 11.0233C74.7142 10.8566 74.9642 10.6301 75.1621 10.3436C75.36 10.0572 75.5085 9.72904 75.6074 9.35925C75.7116 8.98425 75.7637 8.58582 75.7637 8.16394V7.98425C75.7637 7.56759 75.7116 7.17436 75.6074 6.80457C75.5085 6.42957 75.3574 6.09884 75.1543 5.81238C74.9564 5.52071 74.7064 5.29154 74.4043 5.12488C74.1074 4.95821 73.7585 4.87488 73.3574 4.87488C72.9616 4.87488 72.6126 4.95821 72.3105 5.12488C72.0137 5.29154 71.7637 5.52071 71.5605 5.81238C71.3626 6.09884 71.2142 6.42957 71.1152 6.80457C71.0163 7.17436 70.9668 7.56759 70.9668 7.98425Z" fill="#222222"/>
<path d="M80.4746 5.64832V12.2968H79.0293V3.84363H80.3965L80.4746 5.64832ZM80.1309 7.74988L79.5293 7.72644C79.5345 7.14832 79.6204 6.61446 79.7871 6.12488C79.9538 5.63009 80.1882 5.2004 80.4902 4.83582C80.7923 4.47123 81.1517 4.18998 81.5684 3.99207C81.9902 3.78894 82.4564 3.68738 82.9668 3.68738C83.3835 3.68738 83.7585 3.74467 84.0918 3.85925C84.4251 3.96863 84.709 4.14571 84.9434 4.3905C85.1829 4.63529 85.3652 4.953 85.4902 5.34363C85.6152 5.72904 85.6777 6.2004 85.6777 6.75769V12.2968H84.2246V6.74207C84.2246 6.29936 84.1595 5.94519 84.0293 5.67957C83.8991 5.40873 83.709 5.21342 83.459 5.09363C83.209 4.96863 82.9017 4.90613 82.5371 4.90613C82.1777 4.90613 81.8496 4.98165 81.5527 5.13269C81.2611 5.28373 81.0085 5.49207 80.7949 5.75769C80.5866 6.02332 80.4225 6.328 80.3027 6.67175C80.1882 7.01029 80.1309 7.36967 80.1309 7.74988Z" fill="#222222"/>
<path d="M87.4902 8.16394V7.98425C87.4902 7.37488 87.5788 6.80977 87.7559 6.28894C87.9329 5.7629 88.1882 5.30717 88.5215 4.92175C88.8548 4.53113 89.2585 4.22904 89.7324 4.0155C90.2064 3.79675 90.7376 3.68738 91.3262 3.68738C91.9199 3.68738 92.4538 3.79675 92.9277 4.0155C93.4069 4.22904 93.8132 4.53113 94.1465 4.92175C94.485 5.30717 94.7428 5.7629 94.9199 6.28894C95.097 6.80977 95.1855 7.37488 95.1855 7.98425V8.16394C95.1855 8.77332 95.097 9.33842 94.9199 9.85925C94.7428 10.3801 94.485 10.8358 94.1465 11.2264C93.8132 11.6119 93.4095 11.9139 92.9355 12.1327C92.4668 12.3462 91.9355 12.453 91.3418 12.453C90.748 12.453 90.2142 12.3462 89.7402 12.1327C89.2663 11.9139 88.86 11.6119 88.5215 11.2264C88.1882 10.8358 87.9329 10.3801 87.7559 9.85925C87.5788 9.33842 87.4902 8.77332 87.4902 8.16394ZM88.9355 7.98425V8.16394C88.9355 8.58582 88.985 8.98425 89.084 9.35925C89.1829 9.72904 89.3314 10.0572 89.5293 10.3436C89.7324 10.6301 89.985 10.8566 90.2871 11.0233C90.5892 11.1848 90.9408 11.2655 91.3418 11.2655C91.7376 11.2655 92.084 11.1848 92.3809 11.0233C92.6829 10.8566 92.9329 10.6301 93.1309 10.3436C93.3288 10.0572 93.4772 9.72904 93.5762 9.35925C93.6803 8.98425 93.7324 8.58582 93.7324 8.16394V7.98425C93.7324 7.56759 93.6803 7.17436 93.5762 6.80457C93.4772 6.42957 93.3262 6.09884 93.123 5.81238C92.9251 5.52071 92.6751 5.29154 92.373 5.12488C92.0762 4.95821 91.7272 4.87488 91.3262 4.87488C90.9303 4.87488 90.5814 4.95821 90.2793 5.12488C89.9824 5.29154 89.7324 5.52071 89.5293 5.81238C89.3314 6.09884 89.1829 6.42957 89.084 6.80457C88.985 7.17436 88.9355 7.56759 88.9355 7.98425Z" fill="#222222"/>
<path d="M97.8027 3.84363L99.6543 6.92175L101.529 3.84363H103.225L100.459 8.0155L103.311 12.2968H101.639L99.6855 9.12488L97.7324 12.2968H96.0527L98.8965 8.0155L96.1387 3.84363H97.8027Z" fill="#222222"/>
<path d="M106.334 3.84363V12.2968H104.881V3.84363H106.334ZM104.771 1.60144C104.771 1.36707 104.842 1.16915 104.982 1.00769C105.128 0.846232 105.342 0.765503 105.623 0.765503C105.899 0.765503 106.11 0.846232 106.256 1.00769C106.407 1.16915 106.482 1.36707 106.482 1.60144C106.482 1.8254 106.407 2.01811 106.256 2.17957C106.11 2.33582 105.899 2.41394 105.623 2.41394C105.342 2.41394 105.128 2.33582 104.982 2.17957C104.842 2.01811 104.771 1.8254 104.771 1.60144Z" fill="#222222"/>
<path d="M113.982 10.6561V0.296753H115.436V12.2968H114.107L113.982 10.6561ZM108.295 8.16394V7.99988C108.295 7.35404 108.373 6.76811 108.529 6.24207C108.691 5.71082 108.917 5.25509 109.209 4.87488C109.506 4.49467 109.857 4.203 110.264 3.99988C110.675 3.79154 111.133 3.68738 111.639 3.68738C112.17 3.68738 112.633 3.78113 113.029 3.96863C113.43 4.15092 113.769 4.41915 114.045 4.77332C114.326 5.12227 114.548 5.54415 114.709 6.03894C114.87 6.53373 114.982 7.09363 115.045 7.71863V8.43738C114.988 9.05717 114.876 9.61446 114.709 10.1093C114.548 10.604 114.326 11.0259 114.045 11.3749C113.769 11.7238 113.43 11.9921 113.029 12.1796C112.628 12.3619 112.16 12.453 111.623 12.453C111.128 12.453 110.675 12.3462 110.264 12.1327C109.857 11.9191 109.506 11.6197 109.209 11.2343C108.917 10.8488 108.691 10.3957 108.529 9.87488C108.373 9.34884 108.295 8.77852 108.295 8.16394ZM109.748 7.99988V8.16394C109.748 8.58582 109.79 8.98165 109.873 9.35144C109.962 9.72123 110.097 10.0468 110.279 10.328C110.462 10.6093 110.693 10.8306 110.975 10.9921C111.256 11.1483 111.592 11.2264 111.982 11.2264C112.462 11.2264 112.855 11.1249 113.162 10.9218C113.475 10.7186 113.725 10.4504 113.912 10.1171C114.1 9.78373 114.245 9.42175 114.35 9.03113V7.14832C114.287 6.86186 114.196 6.58582 114.076 6.32019C113.962 6.04936 113.811 5.80977 113.623 5.60144C113.441 5.3879 113.214 5.21863 112.943 5.09363C112.678 4.96863 112.363 4.90613 111.998 4.90613C111.602 4.90613 111.261 4.98946 110.975 5.15613C110.693 5.31759 110.462 5.54154 110.279 5.828C110.097 6.10925 109.962 6.43738 109.873 6.81238C109.79 7.18217 109.748 7.578 109.748 7.99988Z" fill="#222222"/>
<path d="M121.193 12.453C120.605 12.453 120.071 12.354 119.592 12.1561C119.118 11.953 118.709 11.6691 118.365 11.3046C118.027 10.94 117.766 10.5077 117.584 10.0077C117.402 9.50769 117.311 8.96082 117.311 8.36707V8.03894C117.311 7.35144 117.412 6.73946 117.615 6.203C117.818 5.66134 118.094 5.203 118.443 4.828C118.792 4.453 119.188 4.16915 119.631 3.97644C120.074 3.78373 120.532 3.68738 121.006 3.68738C121.61 3.68738 122.131 3.79154 122.568 3.99988C123.011 4.20821 123.373 4.49988 123.654 4.87488C123.936 5.24467 124.144 5.68217 124.279 6.18738C124.415 6.68738 124.482 7.23425 124.482 7.828V8.47644H118.17V7.29675H123.037V7.18738C123.016 6.81238 122.938 6.44779 122.803 6.09363C122.673 5.73946 122.464 5.44779 122.178 5.21863C121.891 4.98946 121.501 4.87488 121.006 4.87488C120.678 4.87488 120.376 4.94519 120.1 5.08582C119.824 5.22123 119.587 5.42436 119.389 5.69519C119.191 5.96602 119.037 6.29675 118.928 6.68738C118.818 7.078 118.764 7.52852 118.764 8.03894V8.36707C118.764 8.76811 118.818 9.14571 118.928 9.49988C119.042 9.84884 119.206 10.1561 119.42 10.4218C119.639 10.6874 119.902 10.8957 120.209 11.0468C120.521 11.1978 120.876 11.2733 121.271 11.2733C121.782 11.2733 122.214 11.1691 122.568 10.9608C122.923 10.7525 123.232 10.4738 123.498 10.1249L124.373 10.8202C124.191 11.0962 123.959 11.3593 123.678 11.6093C123.396 11.8593 123.05 12.0624 122.639 12.2186C122.232 12.3749 121.751 12.453 121.193 12.453Z" fill="#222222"/>
<path d="M135.123 10.8514V6.49988C135.123 6.16654 135.055 5.87748 134.92 5.63269C134.79 5.38269 134.592 5.18998 134.326 5.05457C134.061 4.91915 133.732 4.85144 133.342 4.85144C132.977 4.85144 132.657 4.91394 132.381 5.03894C132.11 5.16394 131.896 5.328 131.74 5.53113C131.589 5.73425 131.514 5.953 131.514 6.18738H130.068C130.068 5.88529 130.146 5.58582 130.303 5.28894C130.459 4.99207 130.683 4.72384 130.975 4.48425C131.271 4.23946 131.626 4.04675 132.037 3.90613C132.454 3.76029 132.917 3.68738 133.428 3.68738C134.042 3.68738 134.584 3.79154 135.053 3.99988C135.527 4.20821 135.896 4.52332 136.162 4.94519C136.433 5.36186 136.568 5.88529 136.568 6.5155V10.453C136.568 10.7343 136.592 11.0337 136.639 11.3514C136.691 11.6691 136.766 11.9426 136.865 12.1718V12.2968H135.357C135.285 12.1301 135.227 11.9087 135.186 11.6327C135.144 11.3514 135.123 11.091 135.123 10.8514ZM135.373 7.17175L135.389 8.18738H133.928C133.516 8.18738 133.149 8.22123 132.826 8.28894C132.503 8.35144 132.232 8.44779 132.014 8.578C131.795 8.70821 131.628 8.87227 131.514 9.07019C131.399 9.2629 131.342 9.48946 131.342 9.74988C131.342 10.0155 131.402 10.2577 131.521 10.4764C131.641 10.6952 131.821 10.8697 132.061 10.9999C132.305 11.1249 132.605 11.1874 132.959 11.1874C133.402 11.1874 133.792 11.0936 134.131 10.9061C134.469 10.7186 134.738 10.4895 134.936 10.2186C135.139 9.94779 135.248 9.68477 135.264 9.42957L135.881 10.1249C135.844 10.3436 135.745 10.5858 135.584 10.8514C135.423 11.1171 135.206 11.3723 134.936 11.6171C134.67 11.8566 134.352 12.0572 133.982 12.2186C133.618 12.3749 133.206 12.453 132.748 12.453C132.175 12.453 131.673 12.341 131.24 12.1171C130.813 11.8931 130.48 11.5936 130.24 11.2186C130.006 10.8384 129.889 10.4139 129.889 9.94519C129.889 9.49207 129.977 9.09363 130.154 8.74988C130.331 8.40092 130.587 8.11186 130.92 7.88269C131.253 7.64832 131.654 7.47123 132.123 7.35144C132.592 7.23165 133.115 7.17175 133.693 7.17175H135.373Z" fill="#222222"/>
<path d="M140.412 0.296753V12.2968H138.959V0.296753H140.412Z" fill="#222222"/>
<path d="M147.717 10.8514V6.49988C147.717 6.16654 147.649 5.87748 147.514 5.63269C147.383 5.38269 147.186 5.18998 146.92 5.05457C146.654 4.91915 146.326 4.85144 145.936 4.85144C145.571 4.85144 145.251 4.91394 144.975 5.03894C144.704 5.16394 144.49 5.328 144.334 5.53113C144.183 5.73425 144.107 5.953 144.107 6.18738H142.662C142.662 5.88529 142.74 5.58582 142.896 5.28894C143.053 4.99207 143.277 4.72384 143.568 4.48425C143.865 4.23946 144.219 4.04675 144.631 3.90613C145.048 3.76029 145.511 3.68738 146.021 3.68738C146.636 3.68738 147.178 3.79154 147.646 3.99988C148.12 4.20821 148.49 4.52332 148.756 4.94519C149.027 5.36186 149.162 5.88529 149.162 6.5155V10.453C149.162 10.7343 149.186 11.0337 149.232 11.3514C149.285 11.6691 149.36 11.9426 149.459 12.1718V12.2968H147.951C147.878 12.1301 147.821 11.9087 147.779 11.6327C147.738 11.3514 147.717 11.091 147.717 10.8514ZM147.967 7.17175L147.982 8.18738H146.521C146.11 8.18738 145.743 8.22123 145.42 8.28894C145.097 8.35144 144.826 8.44779 144.607 8.578C144.389 8.70821 144.222 8.87227 144.107 9.07019C143.993 9.2629 143.936 9.48946 143.936 9.74988C143.936 10.0155 143.995 10.2577 144.115 10.4764C144.235 10.6952 144.415 10.8697 144.654 10.9999C144.899 11.1249 145.199 11.1874 145.553 11.1874C145.995 11.1874 146.386 11.0936 146.725 10.9061C147.063 10.7186 147.331 10.4895 147.529 10.2186C147.732 9.94779 147.842 9.68477 147.857 9.42957L148.475 10.1249C148.438 10.3436 148.339 10.5858 148.178 10.8514C148.016 11.1171 147.8 11.3723 147.529 11.6171C147.264 11.8566 146.946 12.0572 146.576 12.2186C146.212 12.3749 145.8 12.453 145.342 12.453C144.769 12.453 144.266 12.341 143.834 12.1171C143.407 11.8931 143.074 11.5936 142.834 11.2186C142.6 10.8384 142.482 10.4139 142.482 9.94519C142.482 9.49207 142.571 9.09363 142.748 8.74988C142.925 8.40092 143.18 8.11186 143.514 7.88269C143.847 7.64832 144.248 7.47123 144.717 7.35144C145.186 7.23165 145.709 7.17175 146.287 7.17175H147.967Z" fill="#222222"/>
<path d="M152.881 5.17175V12.2968H151.436V3.84363H152.842L152.881 5.17175ZM155.521 3.79675L155.514 5.1405C155.394 5.11446 155.279 5.09884 155.17 5.09363C155.066 5.08321 154.946 5.078 154.811 5.078C154.477 5.078 154.183 5.13009 153.928 5.23425C153.673 5.33842 153.456 5.48425 153.279 5.67175C153.102 5.85925 152.962 6.08321 152.857 6.34363C152.758 6.59884 152.693 6.88009 152.662 7.18738L152.256 7.42175C152.256 6.91134 152.305 6.43217 152.404 5.98425C152.508 5.53634 152.667 5.1405 152.881 4.79675C153.094 4.44779 153.365 4.17696 153.693 3.98425C154.027 3.78634 154.423 3.68738 154.881 3.68738C154.985 3.68738 155.105 3.7004 155.24 3.72644C155.376 3.74727 155.469 3.77071 155.521 3.79675Z" fill="#222222"/>
<path d="M158.295 5.52332V12.2968H156.842V3.84363H158.217L158.295 5.52332ZM157.998 7.74988L157.326 7.72644C157.331 7.14832 157.407 6.61446 157.553 6.12488C157.699 5.63009 157.915 5.2004 158.201 4.83582C158.488 4.47123 158.844 4.18998 159.271 3.99207C159.699 3.78894 160.193 3.68738 160.756 3.68738C161.152 3.68738 161.516 3.74467 161.85 3.85925C162.183 3.96863 162.472 4.14311 162.717 4.38269C162.962 4.62227 163.152 4.92957 163.287 5.30457C163.423 5.67957 163.49 6.13269 163.49 6.66394V12.2968H162.045V6.73425C162.045 6.29154 161.969 5.93738 161.818 5.67175C161.673 5.40613 161.464 5.21342 161.193 5.09363C160.923 4.96863 160.605 4.90613 160.24 4.90613C159.813 4.90613 159.456 4.98165 159.17 5.13269C158.883 5.28373 158.654 5.49207 158.482 5.75769C158.311 6.02332 158.186 6.328 158.107 6.67175C158.035 7.01029 157.998 7.36967 157.998 7.74988ZM163.475 6.953L162.506 7.24988C162.511 6.78634 162.587 6.34102 162.732 5.91394C162.883 5.48686 163.1 5.10665 163.381 4.77332C163.667 4.43998 164.019 4.17696 164.436 3.98425C164.852 3.78634 165.329 3.68738 165.865 3.68738C166.318 3.68738 166.719 3.74727 167.068 3.86707C167.423 3.98686 167.719 4.17175 167.959 4.42175C168.204 4.66654 168.389 4.98165 168.514 5.36707C168.639 5.75248 168.701 6.21082 168.701 6.74207V12.2968H167.248V6.72644C167.248 6.25248 167.173 5.88529 167.021 5.62488C166.876 5.35925 166.667 5.17436 166.396 5.07019C166.131 4.96082 165.813 4.90613 165.443 4.90613C165.126 4.90613 164.844 4.96082 164.6 5.07019C164.355 5.17957 164.149 5.33061 163.982 5.52332C163.816 5.71082 163.688 5.92696 163.6 6.17175C163.516 6.41654 163.475 6.67696 163.475 6.953Z" fill="#222222"/>
</svg>
