<svg width="22" height="23" viewBox="0 0 22 23" fill="none" xmlns="http://www.w3.org/2000/svg">
<path fill-rule="evenodd" clip-rule="evenodd" d="M18.8527 4.37613C18.9209 4.30485 18.975 4.22023 19.0119 4.12709C19.0488 4.03396 19.0678 3.93414 19.0678 3.83333C19.0678 3.73252 19.0488 3.6327 19.0119 3.53957C18.975 3.44644 18.9209 3.36181 18.8527 3.29053C18.7846 3.21925 18.7036 3.16271 18.6145 3.12413C18.5254 3.08555 18.43 3.0657 18.3335 3.0657C18.2371 3.0657 18.1416 3.08555 18.0526 3.12413C17.9635 3.16271 17.8825 3.21925 17.8143 3.29053L11.0002 10.4159L4.18608 3.29053C4.11789 3.21925 4.03695 3.16271 3.94787 3.12413C3.85878 3.08555 3.7633 3.0657 3.66688 3.0657C3.57045 3.0657 3.47497 3.08555 3.38589 3.12413C3.2968 3.16271 3.21586 3.21925 3.14768 3.29053C3.07949 3.36181 3.02541 3.44644 2.98851 3.53957C2.95161 3.6327 2.93262 3.73252 2.93262 3.83333C2.93262 3.93414 2.95161 4.03396 2.98851 4.12709C3.02541 4.22023 3.07949 4.30485 3.14768 4.37613L9.96328 11.5L3.14768 18.6239C3.00998 18.7678 2.93262 18.9631 2.93262 19.1667C2.93262 19.3703 3.00998 19.5655 3.14768 19.7095C3.28538 19.8534 3.47214 19.9343 3.66688 19.9343C3.86161 19.9343 4.04838 19.8534 4.18608 19.7095L11.0002 12.5841L17.8143 19.7095C17.952 19.8534 18.1388 19.9343 18.3335 19.9343C18.5283 19.9343 18.715 19.8534 18.8527 19.7095C18.9904 19.5655 19.0678 19.3703 19.0678 19.1667C19.0678 18.9631 18.9904 18.7678 18.8527 18.6239L12.0371 11.5L18.8527 4.37613Z" fill="black"/>
</svg>
