<svg width="1300" height="2" viewBox="0 0 1300 2" fill="none" xmlns="http://www.w3.org/2000/svg">
<mask id="path-1-inside-1_631_361" fill="white">
<path d="M400.301 0.504883H1300L899.699 1.50488H0L400.301 0.504883Z"/>
</mask>
<path d="M400.301 0.504883V-0.49512L400.298 -0.495114L400.301 0.504883ZM1300 0.504883L1300 1.50488L1300 -0.495117V0.504883ZM899.699 1.50488V2.50489L899.702 2.50488L899.699 1.50488ZM0 1.50488L-0.00249811 0.504886L0 2.50488V1.50488ZM400.301 1.50488H1300V-0.495117H400.301V1.50488ZM1300 -0.495114L899.697 0.504886L899.702 2.50488L1300 1.50488L1300 -0.495114ZM899.699 0.504883H0V2.50488H899.699V0.504883ZM0.00249811 2.50488L400.303 1.50488L400.298 -0.495114L-0.00249811 0.504886L0.00249811 2.50488Z" fill="#DDDDDD" mask="url(#path-1-inside-1_631_361)"/>
</svg>
