<svg width="944" height="2" viewBox="0 0 944 2" fill="none" xmlns="http://www.w3.org/2000/svg">
<mask id="path-1-inside-1_83_650" fill="white">
<path d="M290.68 0.752563H944L653.32 1.75256H0L290.68 0.752563Z"/>
</mask>
<path d="M290.68 0.752563V-0.247442L290.677 -0.247431L290.68 0.752563ZM944 0.752563L944.003 1.75256L944 -0.247437V0.752563ZM653.32 1.75256V2.75257L653.323 2.75256L653.32 1.75256ZM0 1.75256L-0.00344019 0.752569L0 2.75256V1.75256ZM290.68 1.75256H944V-0.247437H290.68V1.75256ZM943.997 -0.247431L653.317 0.752569L653.323 2.75256L944.003 1.75256L943.997 -0.247431ZM653.32 0.752563H0V2.75256H653.32V0.752563ZM0.00344019 2.75256L290.683 1.75256L290.677 -0.247431L-0.00344019 0.752569L0.00344019 2.75256Z" fill="#DDDDDD" mask="url(#path-1-inside-1_83_650)"/>
</svg>
