<svg width="17" height="17" viewBox="0 0 17 17" fill="none" xmlns="http://www.w3.org/2000/svg">
<g clip-path="url(#clip0_72_2936)">
<path fill-rule="evenodd" clip-rule="evenodd" d="M8.05018 1.62338L5.98518 6.06338L1.05518 6.69838C0.959803 6.7103 0.869882 6.74946 0.796187 6.81117C0.722492 6.87288 0.668145 6.95452 0.639655 7.04633C0.611166 7.13813 0.60974 7.23619 0.63555 7.32878C0.661359 7.42137 0.71331 7.50456 0.78518 7.56838L4.43518 10.8534L3.45018 15.7784C3.43163 15.8725 3.44057 15.9701 3.47593 16.0593C3.51129 16.1485 3.57158 16.2257 3.64961 16.2815C3.72763 16.3374 3.82009 16.3697 3.91595 16.3744C4.0118 16.3792 4.107 16.3563 4.19018 16.3084L8.50018 13.8084L12.8152 16.3084C12.8984 16.3563 12.9936 16.3792 13.0894 16.3744C13.1853 16.3697 13.2777 16.3374 13.3558 16.2815C13.4338 16.2257 13.4941 16.1485 13.5294 16.0593C13.5648 15.9701 13.5737 15.8725 13.5552 15.7784L12.5702 10.8534L16.2202 7.56838C16.2906 7.50396 16.3411 7.42072 16.3658 7.3285C16.3904 7.23628 16.3881 7.13894 16.3592 7.04798C16.3303 6.95701 16.2759 6.87623 16.2026 6.81516C16.1292 6.7541 16.0399 6.71531 15.9452 6.70338L11.0152 6.06338L8.95518 1.62338C8.91541 1.53609 8.85136 1.46208 8.77069 1.41018C8.69001 1.35828 8.59611 1.33069 8.50018 1.33069C8.40425 1.33069 8.31035 1.35828 8.22967 1.41018C8.149 1.46208 8.08495 1.53609 8.04518 1.62338H8.05018Z" fill="#222222"/>
</g>
<defs>
<clipPath id="clip0_72_2936">
<rect width="16" height="16" fill="white" transform="translate(0.5 0.833374)"/>
</clipPath>
</defs>
</svg>
