<svg width="16" height="17" viewBox="0 0 16 17" fill="none" xmlns="http://www.w3.org/2000/svg">
<path d="M13.75 6.45508H13.5V4.45508C13.4992 3.76508 12.94 3.20589 12.25 3.20508H3.75C3.06 3.20589 2.50081 3.76508 2.5 4.45508V6.45508H2.25C1.008 6.45658 0.0015 7.46308 0 8.70508V12.2051H0.5V13.9551H1.75V12.2051H14.25V13.9551H15.5V12.2051H16V8.70508C15.9985 7.46308 14.992 6.45658 13.75 6.45508ZM3 4.45508C3 4.04086 3.33578 3.70508 3.75 3.70508H12.25C12.6642 3.70508 13 4.04086 13 4.45508V6.45508H12.25V5.45508C12.25 5.04086 11.9142 4.70508 11.5 4.70508H9.25C8.83578 4.70508 8.5 5.04086 8.5 5.45508V6.45508H7.5V5.45508C7.5 5.04086 7.16422 4.70508 6.75 4.70508H4.5C4.08578 4.70508 3.75 5.04086 3.75 5.45508V6.45508H3V4.45508ZM11.75 5.45508V6.45508H9V5.45508C9 5.38877 9.02634 5.32519 9.07322 5.2783C9.12011 5.23142 9.1837 5.20508 9.25 5.20508H11.5C11.5663 5.20508 11.6299 5.23142 11.6768 5.2783C11.7237 5.32519 11.75 5.38877 11.75 5.45508ZM7 5.45508V6.45508H4.25V5.45508C4.25 5.38877 4.27634 5.32519 4.32322 5.2783C4.37011 5.23142 4.4337 5.20508 4.5 5.20508H6.75C6.8163 5.20508 6.87989 5.23142 6.92678 5.2783C6.97366 5.32519 7 5.38877 7 5.45508ZM1.25 13.4551H1V12.2051H1.25V13.4551ZM15 13.4551H14.75V12.2051H15V13.4551ZM15.5 11.7051H0.5V10.4551H15.5V11.7051ZM15.5 9.95508H0.5V8.70508C0.501094 7.73905 1.28397 6.95617 2.25 6.95508H13.75C14.716 6.95617 15.4989 7.73905 15.5 8.70508V9.95508Z" fill="black"/>
</svg>
