<svg width="36" height="35" viewBox="0 0 36 35" fill="none" xmlns="http://www.w3.org/2000/svg">
<path d="M8.62438 11.5019C8.20657 8.75 10.1469 6.27813 13.1109 5.37251C13.6369 5.21169 14.2045 5.25746 14.6979 5.50052C15.1913 5.74357 15.5735 6.1656 15.7666 6.68063L16.7181 9.21813C16.8713 9.62635 16.899 10.071 16.7977 10.4951C16.6963 10.9192 16.4706 11.3033 16.1494 11.5981L13.3188 14.1903C13.1792 14.3184 13.0753 14.4804 13.017 14.6606C12.9587 14.8407 12.9481 15.0329 12.9863 15.2184L13.0125 15.3322L13.0803 15.6166C13.4323 16.9983 13.9687 18.3264 14.675 19.565C15.4444 20.8812 16.3992 22.0799 17.51 23.1241L17.5975 23.2028C17.7388 23.3283 17.9102 23.4149 18.095 23.4544C18.2798 23.4939 18.4716 23.4848 18.6519 23.4281L22.3116 22.2753C22.7275 22.1447 23.1729 22.1414 23.5907 22.2657C24.0086 22.3901 24.3797 22.6364 24.6566 22.9731L26.3891 25.0753C27.1109 25.9503 27.0234 27.2366 26.1944 28.0088C23.9259 30.1241 20.8066 30.5572 18.6366 28.8138C15.9766 26.6682 13.7343 24.0513 12.0216 21.0941C10.295 18.1391 9.14382 14.8847 8.62438 11.5019ZM15.2809 15.3628L17.6259 13.2103C18.2687 12.6209 18.7206 11.8528 18.9237 11.0046C19.1268 10.1565 19.0717 9.26696 18.7656 8.45032L17.8163 5.91282C17.4276 4.87648 16.6585 4.02732 15.6655 3.53837C14.6726 3.04942 13.5306 2.95747 12.4722 3.28126C8.79063 4.40782 5.83532 7.70876 6.46094 11.8322C6.89844 14.7109 7.90688 18.3728 10.1316 22.1966C11.9794 25.3853 14.3982 28.2067 17.2672 30.52C20.5222 33.1341 24.8666 32.2416 27.6884 29.6122C28.4959 28.8604 28.986 27.8288 29.0588 26.728C29.1315 25.6271 28.7815 24.54 28.08 23.6884L26.3475 21.5841C25.7933 20.9114 25.0507 20.4195 24.2151 20.1717C23.3795 19.9238 22.4889 19.9312 21.6575 20.1928L18.6191 21.1488C17.8346 20.3399 17.1474 19.442 16.5716 18.4734C16.0153 17.4942 15.5819 16.4502 15.2809 15.365V15.3628Z" fill="#111111"/>
</svg>
