<svg width="59" height="59" viewBox="0 0 59 59" fill="none" xmlns="http://www.w3.org/2000/svg">
<path d="M29.5 2.4585L7.375 12.2918V27.0418C7.375 40.6856 16.815 53.4443 29.5 56.5418C42.185 53.4443 51.625 40.6856 51.625 27.0418V12.2918L29.5 2.4585ZM29.5 17.2085C32.9417 17.2085 36.3833 19.9127 36.3833 23.3543V27.0418C37.8583 27.0418 39.3333 28.5168 39.3333 30.2377V38.8418C39.3333 40.3168 37.8583 41.7918 36.1375 41.7918H22.6167C21.1417 41.7918 19.6667 40.3168 19.6667 38.596V29.9918C19.6667 28.5168 21.1417 27.0418 22.6167 27.0418V23.3543C22.6167 19.9127 26.0583 17.2085 29.5 17.2085ZM29.5 20.1585C27.5333 20.1585 25.8125 21.3877 25.8125 23.3543V27.0418H33.1875V23.3543C33.1875 21.3877 31.4667 20.1585 29.5 20.1585Z" fill="#371DAE"/>
</svg>
