<svg width="17" height="17" viewBox="0 0 17 17" fill="none" xmlns="http://www.w3.org/2000/svg">
<g clip-path="url(#clip0_10_6600)">
<path fill-rule="evenodd" clip-rule="evenodd" d="M16.7904 0.959961V4.7888H6.20507V4.56331C6.20507 3.56982 5.39689 2.76164 4.4034 2.76164C3.40991 2.76164 2.60172 3.56982 2.60172 4.56331C2.60172 5.5568 3.40991 6.36498 4.4034 6.36498H4.62851V16.9503H0.800049V0.959961H16.7904ZM16.3398 4.33819V1.41057H1.25065V16.4997H4.17828V14.6746H3.40879V14.2243H4.17828V13.4734H3.40879V13.0228H4.17828V12.3334H2.41419V11.8828H4.17828V11.1694H3.40879V10.7192H4.17828V9.96833H3.40879V9.5181H4.17828V8.84238H2.41419V8.39215H4.17828V6.80443C3.04191 6.69094 2.15149 5.72945 2.15149 4.56331C2.15149 3.32164 3.16172 2.3114 4.4034 2.3114C5.56916 2.3114 6.53103 3.20182 6.64451 4.33819H8.21809V3.42545H8.66833V4.33819H9.41884V3.42545H9.86944V4.33819H10.5593V2.43084H11.0095V4.33819H11.7228V3.42545H12.1734V4.33819H12.924V3.42545H13.3746V4.33819H14.0499V2.43084H14.5005V4.33819H16.3398Z" fill="black"/>
</g>
<defs>
<clipPath id="clip0_10_6600">
<rect width="16" height="16" fill="white" transform="translate(0.800049 0.959961)"/>
</clipPath>
</defs>
</svg>
