<svg width="15" height="14" viewBox="0 0 15 14" fill="none" xmlns="http://www.w3.org/2000/svg">
<path d="M7.0479 0.457121C7.22831 0.0751911 7.77169 0.0751907 7.9521 0.457121L9.67302 4.10039C9.7459 4.25469 9.89245 4.36116 10.0617 4.3828L14.0585 4.89366C14.4775 4.94721 14.6454 5.464 14.3379 5.7536L11.4047 8.51612C11.2805 8.63312 11.2245 8.8054 11.2563 8.97308L12.0055 12.9321C12.084 13.3471 11.6444 13.6665 11.2739 13.4635L7.74023 11.5276C7.59057 11.4456 7.40943 11.4456 7.25977 11.5276L3.72606 13.4635C3.35561 13.6665 2.916 13.3471 2.99454 12.9321L3.74375 8.97308C3.77548 8.8054 3.7195 8.63312 3.59528 8.51612L0.662117 5.7536C0.354629 5.464 0.522545 4.94721 0.941531 4.89366L4.93828 4.3828C5.10755 4.36116 5.2541 4.25469 5.32698 4.10039L7.0479 0.457121Z" fill="#222222"/>
</svg>
