<svg width="151" height="23" viewBox="0 0 151 23" fill="none" xmlns="http://www.w3.org/2000/svg">
<path d="M11.2725 0.252563V3.27506L14.295 1.53506L15.045 2.83256L11.2725 5.00756V10.2051L15.7725 7.60256V3.25256H17.2725V6.74006L19.89 5.22506L20.64 6.53006L18.0225 8.03756L21.045 9.78506L20.295 11.0826L16.5225 8.90756L12.0225 11.5026L16.5225 14.0976L20.295 11.9226L21.045 13.2201L18.0225 14.9676L20.64 16.4751L19.89 17.7801L17.2725 16.2651V19.7526H15.7725V15.4026L11.2725 12.8001V17.9976L15.045 20.1726L14.295 21.4701L11.2725 19.7301V22.7526H9.7725V19.7301L6.75 21.4701L6 20.1726L9.7725 17.9976V12.8001L5.2725 15.4026V19.7526H3.7725V16.2651L1.155 17.7801L0.405 16.4751L3.0225 14.9676L0 13.2201L0.75 11.9226L4.5225 14.0976L9.0225 11.5026L4.5225 8.90756L0.75 11.0826L0 9.78506L3.0225 8.03756L0.405 6.53006L1.155 5.22506L3.7725 6.74006V3.25256H5.2725V7.60256L9.7725 10.2051V5.00756L6 2.83256L6.75 1.53506L9.7725 3.27506V0.252563H11.2725Z" fill="#222222"/>
<path d="M42.3575 13.0651L44.6153 5.12756H45.7091L45.0763 8.2135L42.6466 16.5026H41.5606L42.3575 13.0651ZM40.0216 5.12756L41.8184 12.9088L42.3575 16.5026H41.2794L38.5216 5.12756H40.0216ZM48.6309 12.901L50.3888 5.12756H51.8966L49.1466 16.5026H48.0684L48.6309 12.901ZM45.8731 5.12756L48.0684 13.0651L48.8653 16.5026H47.7794L45.4356 8.2135L44.795 5.12756H45.8731Z" fill="#222222"/>
<path d="M54.92 8.04944V16.5026H53.4669V8.04944H54.92ZM53.3575 5.80725C53.3575 5.57288 53.4278 5.37496 53.5684 5.2135C53.7143 5.05204 53.9278 4.97131 54.2091 4.97131C54.4851 4.97131 54.696 5.05204 54.8419 5.2135C54.9929 5.37496 55.0684 5.57288 55.0684 5.80725C55.0684 6.03121 54.9929 6.22392 54.8419 6.38538C54.696 6.54163 54.4851 6.61975 54.2091 6.61975C53.9278 6.61975 53.7143 6.54163 53.5684 6.38538C53.4278 6.22392 53.3575 6.03121 53.3575 5.80725Z" fill="#222222"/>
<path d="M58.6856 9.85413V16.5026H57.2403V8.04944H58.6075L58.6856 9.85413ZM58.3419 11.9557L57.7403 11.9323C57.7455 11.3541 57.8315 10.8203 57.9981 10.3307C58.1648 9.8359 58.3992 9.40621 58.7013 9.04163C59.0033 8.67704 59.3627 8.39579 59.7794 8.19788C60.2013 7.99475 60.6674 7.89319 61.1778 7.89319C61.5945 7.89319 61.9695 7.95048 62.3028 8.06506C62.6361 8.17444 62.92 8.35152 63.1544 8.59631C63.394 8.84111 63.5763 9.15881 63.7013 9.54944C63.8263 9.93486 63.8888 10.4062 63.8888 10.9635V16.5026H62.4356V10.9479C62.4356 10.5052 62.3705 10.151 62.2403 9.88538C62.1101 9.61454 61.92 9.41923 61.67 9.29944C61.42 9.17444 61.1127 9.11194 60.7481 9.11194C60.3888 9.11194 60.0606 9.18746 59.7638 9.3385C59.4721 9.48954 59.2195 9.69788 59.0059 9.9635C58.7976 10.2291 58.6335 10.5338 58.5138 10.8776C58.3992 11.2161 58.3419 11.5755 58.3419 11.9557Z" fill="#222222"/>
<path d="M71.4122 14.8619V4.50256H72.8653V16.5026H71.5372L71.4122 14.8619ZM65.7247 12.3698V12.2057C65.7247 11.5599 65.8028 10.9739 65.9591 10.4479C66.1205 9.91663 66.3471 9.4609 66.6387 9.08069C66.9356 8.70048 67.2872 8.40881 67.6934 8.20569C68.1049 7.99736 68.5632 7.89319 69.0684 7.89319C69.5997 7.89319 70.0632 7.98694 70.4591 8.17444C70.8601 8.35673 71.1986 8.62496 71.4747 8.97913C71.7559 9.32808 71.9773 9.74996 72.1387 10.2448C72.3002 10.7395 72.4122 11.2994 72.4747 11.9244V12.6432C72.4174 13.263 72.3054 13.8203 72.1387 14.3151C71.9773 14.8099 71.7559 15.2317 71.4747 15.5807C71.1986 15.9296 70.8601 16.1979 70.4591 16.3854C70.058 16.5677 69.5893 16.6588 69.0528 16.6588C68.558 16.6588 68.1049 16.552 67.6934 16.3385C67.2872 16.125 66.9356 15.8255 66.6387 15.4401C66.3471 15.0546 66.1205 14.6015 65.9591 14.0807C65.8028 13.5546 65.7247 12.9843 65.7247 12.3698ZM67.1778 12.2057V12.3698C67.1778 12.7916 67.2195 13.1875 67.3028 13.5573C67.3914 13.927 67.5268 14.2526 67.7091 14.5338C67.8914 14.8151 68.1231 15.0364 68.4044 15.1979C68.6856 15.3541 69.0216 15.4323 69.4122 15.4323C69.8914 15.4323 70.2846 15.3307 70.5919 15.1276C70.9044 14.9244 71.1544 14.6562 71.3419 14.3229C71.5294 13.9895 71.6752 13.6276 71.7794 13.2369V11.3541C71.7169 11.0677 71.6257 10.7916 71.5059 10.526C71.3914 10.2552 71.2403 10.0156 71.0528 9.80725C70.8705 9.59371 70.644 9.42444 70.3731 9.29944C70.1075 9.17444 69.7924 9.11194 69.4278 9.11194C69.032 9.11194 68.6908 9.19527 68.4044 9.36194C68.1231 9.5234 67.8914 9.74736 67.7091 10.0338C67.5268 10.3151 67.3914 10.6432 67.3028 11.0182C67.2195 11.388 67.1778 11.7838 67.1778 12.2057Z" fill="#222222"/>
<path d="M74.7325 12.3698V12.1901C74.7325 11.5807 74.821 11.0156 74.9981 10.4948C75.1752 9.96871 75.4304 9.51298 75.7637 9.12756C76.0971 8.73694 76.5007 8.43486 76.9747 8.22131C77.4486 8.00256 77.9799 7.89319 78.5684 7.89319C79.1622 7.89319 79.696 8.00256 80.17 8.22131C80.6492 8.43486 81.0554 8.73694 81.3887 9.12756C81.7273 9.51298 81.9851 9.96871 82.1622 10.4948C82.3393 11.0156 82.4278 11.5807 82.4278 12.1901V12.3698C82.4278 12.9791 82.3393 13.5442 82.1622 14.0651C81.9851 14.5859 81.7273 15.0416 81.3887 15.4323C81.0554 15.8177 80.6518 16.1198 80.1778 16.3385C79.7091 16.552 79.1778 16.6588 78.5841 16.6588C77.9903 16.6588 77.4565 16.552 76.9825 16.3385C76.5085 16.1198 76.1023 15.8177 75.7637 15.4323C75.4304 15.0416 75.1752 14.5859 74.9981 14.0651C74.821 13.5442 74.7325 12.9791 74.7325 12.3698ZM76.1778 12.1901V12.3698C76.1778 12.7916 76.2273 13.1901 76.3262 13.5651C76.4252 13.9349 76.5736 14.263 76.7716 14.5494C76.9747 14.8359 77.2273 15.0625 77.5294 15.2291C77.8315 15.3906 78.183 15.4713 78.5841 15.4713C78.9799 15.4713 79.3262 15.3906 79.6231 15.2291C79.9252 15.0625 80.1752 14.8359 80.3731 14.5494C80.571 14.263 80.7195 13.9349 80.8184 13.5651C80.9226 13.1901 80.9747 12.7916 80.9747 12.3698V12.1901C80.9747 11.7734 80.9226 11.3802 80.8184 11.0104C80.7195 10.6354 80.5684 10.3046 80.3653 10.0182C80.1674 9.72652 79.9174 9.49736 79.6153 9.33069C79.3184 9.16402 78.9695 9.08069 78.5684 9.08069C78.1726 9.08069 77.8236 9.16402 77.5216 9.33069C77.2247 9.49736 76.9747 9.72652 76.7716 10.0182C76.5736 10.3046 76.4252 10.6354 76.3262 11.0104C76.2273 11.3802 76.1778 11.7734 76.1778 12.1901Z" fill="#222222"/>
<path d="M86.3809 15.0026L88.5528 8.04944H89.5059L89.3184 9.43225L87.1075 16.5026H86.1778L86.3809 15.0026ZM84.92 8.04944L86.7716 15.0807L86.9044 16.5026H85.9278L83.4747 8.04944H84.92ZM91.5841 15.026L93.3497 8.04944H94.7872L92.3341 16.5026H91.3653L91.5841 15.026ZM89.7169 8.04944L91.8419 14.8854L92.0841 16.5026H91.1622L88.8887 9.41663L88.7012 8.04944H89.7169Z" fill="#222222"/>
<path d="M104.67 6.13538L100.904 16.5026H99.3653L103.701 5.12756H104.693L104.67 6.13538ZM107.826 16.5026L104.053 6.13538L104.029 5.12756H105.022L109.373 16.5026H107.826ZM107.631 12.2916V13.526H101.24V12.2916H107.631Z" fill="#222222"/>
<path d="M117.67 12.8854H119.17C119.092 13.6041 118.886 14.2474 118.553 14.8151C118.219 15.3828 117.748 15.8333 117.139 16.1666C116.529 16.4948 115.769 16.6588 114.857 16.6588C114.191 16.6588 113.584 16.5338 113.037 16.2838C112.496 16.0338 112.029 15.6796 111.639 15.2213C111.248 14.7578 110.946 14.2031 110.732 13.5573C110.524 12.9062 110.42 12.1823 110.42 11.3854V10.2526C110.42 9.45569 110.524 8.73433 110.732 8.0885C110.946 7.43746 111.251 6.88017 111.647 6.41663C112.048 5.95308 112.529 5.59631 113.092 5.34631C113.654 5.09631 114.287 4.97131 114.99 4.97131C115.85 4.97131 116.576 5.13277 117.17 5.45569C117.764 5.77861 118.225 6.22652 118.553 6.79944C118.886 7.36715 119.092 8.026 119.17 8.776H117.67C117.597 8.24475 117.462 7.78902 117.264 7.40881C117.066 7.0234 116.785 6.72652 116.42 6.51819C116.055 6.30986 115.579 6.20569 114.99 6.20569C114.485 6.20569 114.04 6.30204 113.654 6.49475C113.274 6.68746 112.954 6.9609 112.693 7.31506C112.438 7.66923 112.246 8.09371 112.115 8.5885C111.985 9.08329 111.92 9.63277 111.92 10.2369V11.3854C111.92 11.9427 111.977 12.4661 112.092 12.9557C112.212 13.4453 112.391 13.875 112.631 14.2448C112.871 14.6145 113.175 14.9062 113.545 15.1198C113.915 15.3281 114.352 15.4323 114.857 15.4323C115.498 15.4323 116.009 15.3307 116.389 15.1276C116.769 14.9244 117.055 14.6328 117.248 14.2526C117.446 13.8724 117.587 13.4166 117.67 12.8854Z" fill="#222222"/>
<path d="M130.147 14.5494V8.04944H131.6V16.5026H130.217L130.147 14.5494ZM130.42 12.7682L131.022 12.7526C131.022 13.3151 130.962 13.8359 130.842 14.3151C130.727 14.789 130.54 15.2005 130.279 15.5494C130.019 15.8984 129.678 16.1718 129.256 16.3698C128.834 16.5625 128.321 16.6588 127.717 16.6588C127.305 16.6588 126.928 16.5989 126.584 16.4791C126.246 16.3593 125.954 16.1744 125.709 15.9244C125.464 15.6744 125.274 15.3489 125.139 14.9479C125.009 14.5468 124.943 14.0651 124.943 13.5026V8.04944H126.389V13.5182C126.389 13.8984 126.43 14.2135 126.514 14.4635C126.602 14.7083 126.719 14.9036 126.865 15.0494C127.016 15.1901 127.183 15.289 127.365 15.3463C127.553 15.4036 127.746 15.4323 127.943 15.4323C128.558 15.4323 129.045 15.3151 129.404 15.0807C129.764 14.8411 130.022 14.5208 130.178 14.1198C130.339 13.7135 130.42 13.263 130.42 12.7682Z" fill="#222222"/>
<path d="M135.248 9.85413V16.5026H133.803V8.04944H135.17L135.248 9.85413ZM134.904 11.9557L134.303 11.9323C134.308 11.3541 134.394 10.8203 134.561 10.3307C134.727 9.8359 134.962 9.40621 135.264 9.04163C135.566 8.67704 135.925 8.39579 136.342 8.19788C136.764 7.99475 137.23 7.89319 137.74 7.89319C138.157 7.89319 138.532 7.95048 138.865 8.06506C139.199 8.17444 139.482 8.35152 139.717 8.59631C139.956 8.84111 140.139 9.15881 140.264 9.54944C140.389 9.93486 140.451 10.4062 140.451 10.9635V16.5026H138.998V10.9479C138.998 10.5052 138.933 10.151 138.803 9.88538C138.673 9.61454 138.482 9.41923 138.232 9.29944C137.982 9.17444 137.675 9.11194 137.311 9.11194C136.951 9.11194 136.623 9.18746 136.326 9.3385C136.035 9.48954 135.782 9.69788 135.568 9.9635C135.36 10.2291 135.196 10.5338 135.076 10.8776C134.962 11.2161 134.904 11.5755 134.904 11.9557Z" fill="#222222"/>
<path d="M144.217 8.04944V16.5026H142.764V8.04944H144.217ZM142.654 5.80725C142.654 5.57288 142.725 5.37496 142.865 5.2135C143.011 5.05204 143.225 4.97131 143.506 4.97131C143.782 4.97131 143.993 5.05204 144.139 5.2135C144.29 5.37496 144.365 5.57288 144.365 5.80725C144.365 6.03121 144.29 6.22392 144.139 6.38538C143.993 6.54163 143.782 6.61975 143.506 6.61975C143.225 6.61975 143.011 6.54163 142.865 6.38538C142.725 6.22392 142.654 6.03121 142.654 5.80725Z" fill="#222222"/>
<path d="M150.076 8.04944V9.15881H145.506V8.04944H150.076ZM147.053 5.99475H148.498V14.4088C148.498 14.6953 148.542 14.9114 148.631 15.0573C148.719 15.2031 148.834 15.2994 148.975 15.3463C149.115 15.3932 149.266 15.4166 149.428 15.4166C149.548 15.4166 149.673 15.4062 149.803 15.3854C149.938 15.3593 150.04 15.3385 150.107 15.3229L150.115 16.5026C150.001 16.539 149.85 16.5729 149.662 16.6041C149.48 16.6406 149.259 16.6588 148.998 16.6588C148.644 16.6588 148.318 16.5885 148.022 16.4479C147.725 16.3073 147.488 16.0729 147.311 15.7448C147.139 15.4114 147.053 14.9635 147.053 14.401V5.99475Z" fill="#222222"/>
</svg>
