<svg width="143" height="24" viewBox="0 0 143 24" fill="none" xmlns="http://www.w3.org/2000/svg">
<path d="M6.375 1.50256C7.01029 1.50154 7.63297 1.67985 8.17143 2.01698C8.70988 2.35411 9.14226 2.83637 9.41882 3.4083C9.69539 3.98023 9.80491 4.61861 9.7348 5.25002C9.66469 5.88143 9.41779 6.48023 9.0225 6.97756C9.4725 7.13506 9.9 7.38256 10.2675 7.71256L10.41 7.85506L12.3 9.75256H22.5V11.2526H21V21.7526C21.0011 22.1316 20.8586 22.4971 20.6012 22.7754C20.3437 23.0536 19.9905 23.2241 19.6125 23.2526H3C2.62092 23.2536 2.2555 23.1111 1.97721 22.8537C1.69893 22.5963 1.52843 22.2431 1.5 21.8651V11.2526H0V9.75256H1.575C1.69797 9.15608 1.96437 8.59851 2.35117 8.12808C2.73797 7.65765 3.23353 7.2885 3.795 7.05256C3.38062 6.56088 3.11531 5.96106 3.03031 5.32369C2.94532 4.68633 3.04416 4.03794 3.31522 3.45485C3.58628 2.87177 4.01826 2.37825 4.56033 2.03238C5.1024 1.68651 5.73199 1.5027 6.375 1.50256ZM11.685 11.2526H3V21.7526H19.5V11.2526H13.8075L16.2825 13.7276L15.2175 14.7776L11.685 11.2526ZM6.375 3.00256C5.94151 2.99903 5.52018 3.14581 5.18273 3.41793C4.84527 3.69005 4.61253 4.07069 4.52411 4.49509C4.4357 4.91948 4.49707 5.3614 4.69779 5.74564C4.8985 6.12988 5.22616 6.4327 5.625 6.60256V8.25256H5.25C4.78451 8.25232 4.3304 8.39646 3.95026 8.66511C3.57012 8.93376 3.28266 9.3137 3.1275 9.75256H10.185L9.345 8.91256C8.95973 8.52804 8.44812 8.29622 7.905 8.26006L7.755 8.25256H7.125V6.60256C7.52384 6.4327 7.8515 6.12988 8.05221 5.74564C8.25293 5.3614 8.3143 4.91948 8.22589 4.49509C8.13747 4.07069 7.90473 3.69005 7.56727 3.41793C7.22982 3.14581 6.80849 2.99903 6.375 3.00256ZM17.9925 0.752563C17.8887 1.89039 17.4144 2.96273 16.6425 3.80506L16.305 4.15006C15.2567 5.27282 14.6241 6.72052 14.5125 8.25256H13.0125C13.1307 6.23851 13.9848 4.3381 15.4125 2.91256C15.9972 2.33057 16.3718 1.57074 16.4775 0.752563H17.9925ZM19.4925 0.752563H20.9925C20.875 2.76679 20.0208 4.66743 18.5925 6.09256C18.011 6.67595 17.6392 7.4355 17.535 8.25256H16.035C16.1409 7.11752 16.615 6.04821 17.385 5.20756L17.715 4.85506C18.7584 3.73053 19.3856 2.28286 19.4925 0.752563Z" fill="#222222"/>
<path d="M45.0156 12.5416H41.9766V11.3151H45.0156C45.6042 11.3151 46.0807 11.2213 46.4453 11.0338C46.8099 10.8463 47.0755 10.5859 47.2422 10.2526C47.4141 9.91923 47.5 9.53902 47.5 9.11194C47.5 8.72132 47.4141 8.35413 47.2422 8.01038C47.0755 7.66663 46.8099 7.39059 46.4453 7.18225C46.0807 6.96871 45.6042 6.86194 45.0156 6.86194H42.3281V17.0026H40.8203V5.62757H45.0156C45.875 5.62757 46.6016 5.776 47.1953 6.07288C47.7891 6.36975 48.2396 6.78121 48.5469 7.30725C48.8542 7.82809 49.0078 8.42444 49.0078 9.09632C49.0078 9.82548 48.8542 10.4479 48.5469 10.9635C48.2396 11.4791 47.7891 11.8724 47.1953 12.1432C46.6016 12.4088 45.875 12.5416 45.0156 12.5416Z" fill="#222222"/>
<path d="M52.1406 9.87757V17.0026H50.6953V8.54944H52.1016L52.1406 9.87757ZM54.7812 8.50257L54.7734 9.84632C54.6536 9.82027 54.5391 9.80465 54.4297 9.79944C54.3255 9.78902 54.2057 9.78382 54.0703 9.78382C53.737 9.78382 53.4427 9.8359 53.1875 9.94007C52.9323 10.0442 52.7161 10.1901 52.5391 10.3776C52.362 10.5651 52.2214 10.789 52.1172 11.0494C52.0182 11.3046 51.9531 11.5859 51.9219 11.8932L51.5156 12.1276C51.5156 11.6171 51.5651 11.138 51.6641 10.6901C51.7682 10.2421 51.9271 9.84632 52.1406 9.50257C52.3542 9.15361 52.625 8.88277 52.9531 8.69007C53.2865 8.49215 53.6823 8.39319 54.1406 8.39319C54.2448 8.39319 54.3646 8.40621 54.5 8.43225C54.6354 8.45309 54.7292 8.47652 54.7812 8.50257Z" fill="#222222"/>
<path d="M57.6875 8.54944V17.0026H56.2344V8.54944H57.6875ZM56.125 6.30725C56.125 6.07288 56.1953 5.87496 56.3359 5.7135C56.4818 5.55205 56.6953 5.47132 56.9766 5.47132C57.2526 5.47132 57.4635 5.55205 57.6094 5.7135C57.7604 5.87496 57.8359 6.07288 57.8359 6.30725C57.8359 6.53121 57.7604 6.72392 57.6094 6.88538C57.4635 7.04163 57.2526 7.11975 56.9766 7.11975C56.6953 7.11975 56.4818 7.04163 56.3359 6.88538C56.1953 6.72392 56.125 6.53121 56.125 6.30725Z" fill="#222222"/>
<path d="M62.5781 15.6979L64.8906 8.54944H66.3672L63.3281 17.0026H62.3594L62.5781 15.6979ZM60.6484 8.54944L63.0312 15.7369L63.1953 17.0026H62.2266L59.1641 8.54944H60.6484Z" fill="#222222"/>
<path d="M72.6172 15.5573V11.2057C72.6172 10.8724 72.5495 10.5833 72.4141 10.3385C72.2839 10.0885 72.0859 9.8958 71.8203 9.76038C71.5547 9.62496 71.2266 9.55725 70.8359 9.55725C70.4714 9.55725 70.151 9.61975 69.875 9.74475C69.6042 9.86975 69.3906 10.0338 69.2344 10.2369C69.0833 10.4401 69.0078 10.6588 69.0078 10.8932H67.5625C67.5625 10.5911 67.6406 10.2916 67.7969 9.99475C67.9531 9.69788 68.1771 9.42965 68.4688 9.19007C68.7656 8.94527 69.1198 8.75257 69.5312 8.61194C69.9479 8.46611 70.4115 8.39319 70.9219 8.39319C71.5365 8.39319 72.0781 8.49736 72.5469 8.70569C73.0208 8.91402 73.3906 9.22913 73.6562 9.651C73.9271 10.0677 74.0625 10.5911 74.0625 11.2213V15.1588C74.0625 15.4401 74.0859 15.7395 74.1328 16.0573C74.1849 16.375 74.2604 16.6484 74.3594 16.8776V17.0026H72.8516C72.7786 16.8359 72.7214 16.6145 72.6797 16.3385C72.638 16.0573 72.6172 15.7968 72.6172 15.5573ZM72.8672 11.8776L72.8828 12.8932H71.4219C71.0104 12.8932 70.6432 12.927 70.3203 12.9948C69.9974 13.0573 69.7266 13.1536 69.5078 13.2838C69.2891 13.414 69.1224 13.5781 69.0078 13.776C68.8932 13.9687 68.8359 14.1953 68.8359 14.4557C68.8359 14.7213 68.8958 14.9635 69.0156 15.1823C69.1354 15.401 69.3151 15.5755 69.5547 15.7057C69.7995 15.8307 70.099 15.8932 70.4531 15.8932C70.8958 15.8932 71.2865 15.7994 71.625 15.6119C71.9635 15.4244 72.2318 15.1953 72.4297 14.9244C72.6328 14.6536 72.7422 14.3906 72.7578 14.1354L73.375 14.8307C73.3385 15.0494 73.2396 15.2916 73.0781 15.5573C72.9167 15.8229 72.7005 16.0781 72.4297 16.3229C72.1641 16.5625 71.8464 16.763 71.4766 16.9244C71.112 17.0807 70.7005 17.1588 70.2422 17.1588C69.6693 17.1588 69.1667 17.0468 68.7344 16.8229C68.3073 16.5989 67.974 16.2994 67.7344 15.9244C67.5 15.5442 67.3828 15.1198 67.3828 14.651C67.3828 14.1979 67.4714 13.7994 67.6484 13.4557C67.8255 13.1067 68.0807 12.8177 68.4141 12.5885C68.7474 12.3541 69.1484 12.177 69.6172 12.0573C70.0859 11.9375 70.6094 11.8776 71.1875 11.8776H72.8672Z" fill="#222222"/>
<path d="M79.875 8.54944V9.65882H75.3047V8.54944H79.875ZM76.8516 6.49475H78.2969V14.9088C78.2969 15.1953 78.3411 15.4114 78.4297 15.5573C78.5182 15.7031 78.6328 15.7994 78.7734 15.8463C78.9141 15.8932 79.0651 15.9166 79.2266 15.9166C79.3464 15.9166 79.4714 15.9062 79.6016 15.8854C79.737 15.8593 79.8385 15.8385 79.9062 15.8229L79.9141 17.0026C79.7995 17.039 79.6484 17.0729 79.4609 17.1041C79.2786 17.1406 79.0573 17.1588 78.7969 17.1588C78.4427 17.1588 78.1172 17.0885 77.8203 16.9479C77.5234 16.8073 77.2865 16.5729 77.1094 16.2448C76.9375 15.9114 76.8516 15.4635 76.8516 14.901V6.49475Z" fill="#222222"/>
<path d="M85.0781 17.1588C84.4896 17.1588 83.9557 17.0599 83.4766 16.8619C83.0026 16.6588 82.5938 16.375 82.25 16.0104C81.9115 15.6458 81.651 15.2135 81.4688 14.7135C81.2865 14.2135 81.1953 13.6666 81.1953 13.0729V12.7448C81.1953 12.0573 81.2969 11.4453 81.5 10.9088C81.7031 10.3671 81.9792 9.90882 82.3281 9.53382C82.6771 9.15882 83.0729 8.87496 83.5156 8.68225C83.9583 8.48955 84.4167 8.39319 84.8906 8.39319C85.4948 8.39319 86.0156 8.49736 86.4531 8.70569C86.8958 8.91402 87.2578 9.20569 87.5391 9.58069C87.8203 9.95048 88.0286 10.388 88.1641 10.8932C88.2995 11.3932 88.3672 11.9401 88.3672 12.5338V13.1823H82.0547V12.0026H86.9219V11.8932C86.901 11.5182 86.8229 11.1536 86.6875 10.7994C86.5573 10.4453 86.349 10.1536 86.0625 9.92444C85.776 9.69527 85.3854 9.58069 84.8906 9.58069C84.5625 9.58069 84.2604 9.651 83.9844 9.79163C83.7083 9.92705 83.4714 10.1302 83.2734 10.401C83.0755 10.6718 82.9219 11.0026 82.8125 11.3932C82.7031 11.7838 82.6484 12.2343 82.6484 12.7448V13.0729C82.6484 13.4739 82.7031 13.8515 82.8125 14.2057C82.9271 14.5546 83.0911 14.8619 83.3047 15.1276C83.5234 15.3932 83.7865 15.6015 84.0938 15.7526C84.4062 15.9036 84.7604 15.9791 85.1562 15.9791C85.6667 15.9791 86.099 15.875 86.4531 15.6666C86.8073 15.4583 87.1172 15.1796 87.3828 14.8307L88.2578 15.526C88.0755 15.802 87.8438 16.0651 87.5625 16.3151C87.2812 16.5651 86.9349 16.7682 86.5234 16.9244C86.1172 17.0807 85.6354 17.1588 85.0781 17.1588Z" fill="#222222"/>
<path d="M95.4688 5.00257V17.0026H94.0234V5.00257H95.4688ZM95.125 12.4557L94.5234 12.4323C94.5286 11.8541 94.6146 11.3203 94.7812 10.8307C94.9479 10.3359 95.1823 9.90621 95.4844 9.54163C95.7865 9.17705 96.1458 8.8958 96.5625 8.69788C96.9844 8.49475 97.4505 8.39319 97.9609 8.39319C98.3776 8.39319 98.7526 8.45048 99.0859 8.56507C99.4193 8.67444 99.7031 8.85152 99.9375 9.09632C100.177 9.34111 100.359 9.65882 100.484 10.0494C100.609 10.4349 100.672 10.9062 100.672 11.4635V17.0026H99.2188V11.4479C99.2188 11.0052 99.1536 10.651 99.0234 10.3854C98.8932 10.1145 98.7031 9.91923 98.4531 9.79944C98.2031 9.67444 97.8958 9.61194 97.5312 9.61194C97.1719 9.61194 96.8438 9.68746 96.5469 9.8385C96.2552 9.98955 96.0026 10.1979 95.7891 10.4635C95.5807 10.7291 95.4167 11.0338 95.2969 11.3776C95.1823 11.7161 95.125 12.0755 95.125 12.4557Z" fill="#222222"/>
<path d="M102.453 12.8698V12.6901C102.453 12.0807 102.542 11.5156 102.719 10.9948C102.896 10.4687 103.151 10.013 103.484 9.62757C103.818 9.23694 104.221 8.93486 104.695 8.72132C105.169 8.50257 105.701 8.39319 106.289 8.39319C106.883 8.39319 107.417 8.50257 107.891 8.72132C108.37 8.93486 108.776 9.23694 109.109 9.62757C109.448 10.013 109.706 10.4687 109.883 10.9948C110.06 11.5156 110.148 12.0807 110.148 12.6901V12.8698C110.148 13.4791 110.06 14.0442 109.883 14.5651C109.706 15.0859 109.448 15.5416 109.109 15.9323C108.776 16.3177 108.372 16.6198 107.898 16.8385C107.43 17.052 106.898 17.1588 106.305 17.1588C105.711 17.1588 105.177 17.052 104.703 16.8385C104.229 16.6198 103.823 16.3177 103.484 15.9323C103.151 15.5416 102.896 15.0859 102.719 14.5651C102.542 14.0442 102.453 13.4791 102.453 12.8698ZM103.898 12.6901V12.8698C103.898 13.2916 103.948 13.6901 104.047 14.0651C104.146 14.4349 104.294 14.763 104.492 15.0494C104.695 15.3359 104.948 15.5625 105.25 15.7291C105.552 15.8906 105.904 15.9713 106.305 15.9713C106.701 15.9713 107.047 15.8906 107.344 15.7291C107.646 15.5625 107.896 15.3359 108.094 15.0494C108.292 14.763 108.44 14.4349 108.539 14.0651C108.643 13.6901 108.695 13.2916 108.695 12.8698V12.6901C108.695 12.2734 108.643 11.8802 108.539 11.5104C108.44 11.1354 108.289 10.8046 108.086 10.5182C107.888 10.2265 107.638 9.99736 107.336 9.83069C107.039 9.66402 106.69 9.58069 106.289 9.58069C105.893 9.58069 105.544 9.66402 105.242 9.83069C104.945 9.99736 104.695 10.2265 104.492 10.5182C104.294 10.8046 104.146 11.1354 104.047 11.5104C103.948 11.8802 103.898 12.2734 103.898 12.6901Z" fill="#222222"/>
<path d="M115.5 8.54944V9.65882H110.93V8.54944H115.5ZM112.477 6.49475H113.922V14.9088C113.922 15.1953 113.966 15.4114 114.055 15.5573C114.143 15.7031 114.258 15.7994 114.398 15.8463C114.539 15.8932 114.69 15.9166 114.852 15.9166C114.971 15.9166 115.096 15.9062 115.227 15.8854C115.362 15.8593 115.464 15.8385 115.531 15.8229L115.539 17.0026C115.424 17.039 115.273 17.0729 115.086 17.1041C114.904 17.1406 114.682 17.1588 114.422 17.1588C114.068 17.1588 113.742 17.0885 113.445 16.9479C113.148 16.8073 112.911 16.5729 112.734 16.2448C112.562 15.9114 112.477 15.4635 112.477 14.901V6.49475Z" fill="#222222"/>
<path d="M124.703 8.54944V9.65882H120.133V8.54944H124.703ZM121.68 6.49475H123.125V14.9088C123.125 15.1953 123.169 15.4114 123.258 15.5573C123.346 15.7031 123.461 15.7994 123.602 15.8463C123.742 15.8932 123.893 15.9166 124.055 15.9166C124.174 15.9166 124.299 15.9062 124.43 15.8854C124.565 15.8593 124.667 15.8385 124.734 15.8229L124.742 17.0026C124.628 17.039 124.477 17.0729 124.289 17.1041C124.107 17.1406 123.885 17.1588 123.625 17.1588C123.271 17.1588 122.945 17.0885 122.648 16.9479C122.352 16.8073 122.115 16.5729 121.938 16.2448C121.766 15.9114 121.68 15.4635 121.68 14.901V6.49475Z" fill="#222222"/>
<path d="M131.57 15.0494V8.54944H133.023V17.0026H131.641L131.57 15.0494ZM131.844 13.2682L132.445 13.2526C132.445 13.8151 132.385 14.3359 132.266 14.8151C132.151 15.289 131.964 15.7005 131.703 16.0494C131.443 16.3984 131.102 16.6718 130.68 16.8698C130.258 17.0625 129.745 17.1588 129.141 17.1588C128.729 17.1588 128.352 17.0989 128.008 16.9791C127.669 16.8593 127.378 16.6744 127.133 16.4244C126.888 16.1744 126.698 15.8489 126.562 15.4479C126.432 15.0468 126.367 14.5651 126.367 14.0026V8.54944H127.812V14.0182C127.812 14.3984 127.854 14.7135 127.938 14.9635C128.026 15.2083 128.143 15.4036 128.289 15.5494C128.44 15.6901 128.607 15.789 128.789 15.8463C128.977 15.9036 129.169 15.9323 129.367 15.9323C129.982 15.9323 130.469 15.8151 130.828 15.5807C131.188 15.3411 131.445 15.0208 131.602 14.6198C131.763 14.2135 131.844 13.763 131.844 13.2682Z" fill="#222222"/>
<path d="M135.219 5.00257H136.672V15.3619L136.547 17.0026H135.219V5.00257ZM142.383 12.7057V12.8698C142.383 13.4843 142.31 14.0546 142.164 14.5807C142.018 15.1015 141.805 15.5546 141.523 15.9401C141.242 16.3255 140.898 16.625 140.492 16.8385C140.086 17.052 139.62 17.1588 139.094 17.1588C138.557 17.1588 138.086 17.0677 137.68 16.8854C137.279 16.6979 136.94 16.4296 136.664 16.0807C136.388 15.7317 136.167 15.3099 136 14.8151C135.839 14.3203 135.727 13.763 135.664 13.1432V12.4244C135.727 11.7994 135.839 11.2395 136 10.7448C136.167 10.25 136.388 9.82809 136.664 9.47913C136.94 9.12496 137.279 8.85673 137.68 8.67444C138.081 8.48694 138.547 8.39319 139.078 8.39319C139.609 8.39319 140.081 8.49736 140.492 8.70569C140.904 8.90882 141.247 9.20048 141.523 9.58069C141.805 9.9609 142.018 10.4166 142.164 10.9479C142.31 11.4739 142.383 12.0599 142.383 12.7057ZM140.93 12.8698V12.7057C140.93 12.2838 140.891 11.888 140.812 11.5182C140.734 11.1432 140.609 10.8151 140.438 10.5338C140.266 10.2474 140.039 10.0234 139.758 9.86194C139.477 9.69527 139.13 9.61194 138.719 9.61194C138.354 9.61194 138.036 9.67444 137.766 9.79944C137.5 9.92444 137.273 10.0937 137.086 10.3073C136.898 10.5156 136.745 10.7552 136.625 11.026C136.51 11.2916 136.424 11.5677 136.367 11.8541V13.7369C136.451 14.1015 136.586 14.4531 136.773 14.7916C136.966 15.125 137.221 15.3984 137.539 15.6119C137.862 15.8255 138.26 15.9323 138.734 15.9323C139.125 15.9323 139.458 15.8541 139.734 15.6979C140.016 15.5364 140.242 15.3151 140.414 15.0338C140.591 14.7526 140.721 14.427 140.805 14.0573C140.888 13.6875 140.93 13.2916 140.93 12.8698Z" fill="#222222"/>
</svg>
