<svg width="23" height="21" viewBox="0 0 23 21" fill="none" xmlns="http://www.w3.org/2000/svg">
<path d="M18.0449 6.71863L17.2449 9.71863C17.1449 10.3186 16.6449 10.7186 16.0449 10.7186H6.04492C5.44492 10.7186 4.94492 10.3186 4.84492 9.71863L4.04492 6.71863M15.0449 19.7186C15.0449 17.2186 17.0449 17.2186 17.0449 14.7186M10.0449 19.7186C10.0449 17.2186 12.0449 17.2186 12.0449 14.7186M5.04492 19.7186C5.04492 17.2186 7.04492 17.2186 7.04492 14.7186M3.04492 6.71863C2.51449 6.71863 2.00578 6.50791 1.63071 6.13284C1.25564 5.75777 1.04492 5.24906 1.04492 4.71863V1.71863H21.0449V4.71863C21.0449 5.24906 20.8342 5.75777 20.4591 6.13284C20.0841 6.50791 19.5754 6.71863 19.0449 6.71863H3.04492Z" stroke="black" stroke-width="2" stroke-linecap="round" stroke-linejoin="round"/>
</svg>
