<svg width="93" height="22" viewBox="0 0 93 22" fill="none" xmlns="http://www.w3.org/2000/svg">
<path d="M18.2175 0.252563C18.7583 0.254449 19.2804 0.451065 19.688 0.806416C20.0957 1.16177 20.3618 1.65207 20.4375 2.18756C20.8125 4.85756 21 7.71506 21 10.7526C21 13.7901 20.8125 16.6476 20.4375 19.3176C20.3641 19.8307 20.1158 20.3028 19.7346 20.654C19.3533 21.0052 18.8624 21.214 18.345 21.2451L18.2175 21.2526H2.775C2.23419 21.2507 1.71214 21.0541 1.30446 20.6987C0.896767 20.3434 0.630711 19.8531 0.555 19.3176C0.1875 16.6476 0 13.7901 0 10.7526C0 7.71506 0.1875 4.85756 0.5625 2.18756C0.635868 1.67441 0.884175 1.20233 1.26544 0.85112C1.64671 0.499915 2.13756 0.291131 2.655 0.260063L2.775 0.252563H18.2175ZM2.79 1.75256C2.60801 1.75077 2.43158 1.81522 2.29359 1.93389C2.1556 2.05256 2.06547 2.21736 2.04 2.39756C1.66712 5.16674 1.48669 7.95843 1.5 10.7526C1.5 13.7226 1.68 16.5051 2.0475 19.1076C2.07105 19.2708 2.14773 19.4217 2.26569 19.5369C2.38364 19.6522 2.53628 19.7253 2.7 19.7451L2.7825 19.7526H18.21C18.392 19.7544 18.5684 19.6899 18.7064 19.5712C18.8444 19.4526 18.9345 19.2878 18.96 19.1076C19.32 16.5051 19.5 13.7226 19.5 10.7526C19.5 7.78256 19.32 5.00006 18.9525 2.39756C18.9276 2.22117 18.8407 2.0594 18.7074 1.94122C18.5741 1.82303 18.4031 1.75616 18.225 1.75256H2.79ZM10.5 4.00256C12.2902 4.00256 14.0071 4.71372 15.273 5.97959C16.5388 7.24546 17.25 8.96235 17.25 10.7526C17.25 12.5428 16.5388 14.2597 15.273 15.5255C14.0071 16.7914 12.2902 17.5026 10.5 17.5026C8.70979 17.5026 6.9929 16.7914 5.72703 15.5255C4.46116 14.2597 3.75 12.5428 3.75 10.7526C3.75 8.96235 4.46116 7.24546 5.72703 5.97959C6.9929 4.71372 8.70979 4.00256 10.5 4.00256ZM6.12 9.62756C5.865 9.62756 5.61 9.64256 5.355 9.68006C5.09726 10.9261 5.30079 12.2233 5.92775 13.3305C6.55471 14.4376 7.56242 15.2795 8.76351 15.6994C9.96459 16.1193 11.2773 16.0887 12.4575 15.6134C13.6378 15.138 14.6052 14.2502 15.18 13.1151C14.2414 13.1923 13.297 13.0742 12.4063 12.7683C11.5157 12.4623 10.698 11.9752 10.005 11.3376L9.8325 11.1651C9.34569 10.6766 8.76704 10.2892 8.12988 10.0254C7.49272 9.76148 6.80964 9.62628 6.12 9.62756ZM10.5 5.50256C9.57744 5.50153 8.67089 5.74363 7.87167 6.20446C7.07245 6.6653 6.40878 7.3286 5.9475 8.12756H6.12C7.815 8.12756 9.45 8.75756 10.71 9.92756L10.89 10.1076C11.5073 10.7272 12.2701 11.1822 13.1086 11.4311C13.9471 11.6801 14.8346 11.7149 15.69 11.5326C15.8022 10.7857 15.752 10.0234 15.5427 9.29779C15.3334 8.57213 14.97 7.90017 14.4774 7.32776C13.9847 6.75536 13.3743 6.29598 12.6879 5.98099C12.0015 5.666 11.2552 5.50281 10.5 5.50256ZM3.75 3.25256C3.94891 3.25256 4.13968 3.33158 4.28033 3.47223C4.42098 3.61289 4.5 3.80365 4.5 4.00256C4.5 4.20148 4.42098 4.39224 4.28033 4.53289C4.13968 4.67355 3.94891 4.75256 3.75 4.75256C3.55109 4.75256 3.36032 4.67355 3.21967 4.53289C3.07902 4.39224 3 4.20148 3 4.00256C3 3.80365 3.07902 3.61289 3.21967 3.47223C3.36032 3.33158 3.55109 3.25256 3.75 3.25256Z" fill="#222222"/>
<path d="M43.3125 12.3151L45.5703 4.37756H46.6641L46.0312 7.4635L43.6016 15.7526H42.5156L43.3125 12.3151ZM40.9766 4.37756L42.7734 12.1588L43.3125 15.7526H42.2344L39.4766 4.37756H40.9766ZM49.5859 12.151L51.3438 4.37756H52.8516L50.1016 15.7526H49.0234L49.5859 12.151ZM46.8281 4.37756L49.0234 12.3151L49.8203 15.7526H48.7344L46.3906 7.4635L45.75 4.37756H46.8281Z" fill="#222222"/>
<path d="M59.0234 14.3073V9.95569C59.0234 9.62236 58.9557 9.33329 58.8203 9.0885C58.6901 8.8385 58.4922 8.64579 58.2266 8.51038C57.9609 8.37496 57.6328 8.30725 57.2422 8.30725C56.8776 8.30725 56.5573 8.36975 56.2812 8.49475C56.0104 8.61975 55.7969 8.78381 55.6406 8.98694C55.4896 9.19006 55.4141 9.40881 55.4141 9.64319H53.9688C53.9688 9.34111 54.0469 9.04163 54.2031 8.74475C54.3594 8.44788 54.5833 8.17965 54.875 7.94006C55.1719 7.69527 55.526 7.50256 55.9375 7.36194C56.3542 7.21611 56.8177 7.14319 57.3281 7.14319C57.9427 7.14319 58.4844 7.24736 58.9531 7.45569C59.4271 7.66402 59.7969 7.97913 60.0625 8.401C60.3333 8.81767 60.4688 9.34111 60.4688 9.97131V13.9088C60.4688 14.1901 60.4922 14.4895 60.5391 14.8073C60.5911 15.125 60.6667 15.3984 60.7656 15.6276V15.7526H59.2578C59.1849 15.5859 59.1276 15.3645 59.0859 15.0885C59.0443 14.8073 59.0234 14.5468 59.0234 14.3073ZM59.2734 10.6276L59.2891 11.6432H57.8281C57.4167 11.6432 57.0495 11.677 56.7266 11.7448C56.4036 11.8073 56.1328 11.9036 55.9141 12.0338C55.6953 12.164 55.5286 12.3281 55.4141 12.526C55.2995 12.7187 55.2422 12.9453 55.2422 13.2057C55.2422 13.4713 55.3021 13.7135 55.4219 13.9323C55.5417 14.151 55.7214 14.3255 55.9609 14.4557C56.2057 14.5807 56.5052 14.6432 56.8594 14.6432C57.3021 14.6432 57.6927 14.5494 58.0312 14.3619C58.3698 14.1744 58.638 13.9453 58.8359 13.6744C59.0391 13.4036 59.1484 13.1406 59.1641 12.8854L59.7812 13.5807C59.7448 13.7994 59.6458 14.0416 59.4844 14.3073C59.3229 14.5729 59.1068 14.8281 58.8359 15.0729C58.5703 15.3125 58.2526 15.513 57.8828 15.6744C57.5182 15.8307 57.1068 15.9088 56.6484 15.9088C56.0755 15.9088 55.5729 15.7968 55.1406 15.5729C54.7135 15.3489 54.3802 15.0494 54.1406 14.6744C53.9062 14.2942 53.7891 13.8698 53.7891 13.401C53.7891 12.9479 53.8776 12.5494 54.0547 12.2057C54.2318 11.8567 54.487 11.5677 54.8203 11.3385C55.1536 11.1041 55.5547 10.927 56.0234 10.8073C56.4922 10.6875 57.0156 10.6276 57.5938 10.6276H59.2734Z" fill="#222222"/>
<path d="M67.6641 13.5104C67.6641 13.302 67.6172 13.1093 67.5234 12.9323C67.4349 12.75 67.25 12.5859 66.9688 12.4401C66.6927 12.289 66.276 12.1588 65.7188 12.0494C65.25 11.9505 64.8255 11.8333 64.4453 11.6979C64.0703 11.5625 63.75 11.3984 63.4844 11.2057C63.224 11.013 63.0234 10.7864 62.8828 10.526C62.7422 10.2656 62.6719 9.9609 62.6719 9.61194C62.6719 9.27861 62.7448 8.9635 62.8906 8.66663C63.0417 8.36975 63.2526 8.10673 63.5234 7.87756C63.7995 7.6484 64.1302 7.46871 64.5156 7.3385C64.901 7.20829 65.3307 7.14319 65.8047 7.14319C66.4818 7.14319 67.0599 7.26298 67.5391 7.50256C68.0182 7.74215 68.3854 8.06246 68.6406 8.4635C68.8958 8.85933 69.0234 9.29944 69.0234 9.78381H67.5781C67.5781 9.54944 67.5078 9.32288 67.3672 9.10413C67.2318 8.88017 67.0312 8.69527 66.7656 8.54944C66.5052 8.40361 66.1849 8.33069 65.8047 8.33069C65.4036 8.33069 65.0781 8.39319 64.8281 8.51819C64.5833 8.63798 64.4036 8.79163 64.2891 8.97913C64.1797 9.16663 64.125 9.36454 64.125 9.57288C64.125 9.72913 64.151 9.86975 64.2031 9.99475C64.2604 10.1145 64.3594 10.2265 64.5 10.3307C64.6406 10.4296 64.8385 10.5234 65.0938 10.6119C65.349 10.7005 65.6745 10.789 66.0703 10.8776C66.763 11.0338 67.3333 11.2213 67.7812 11.4401C68.2292 11.6588 68.5625 11.927 68.7812 12.2448C69 12.5625 69.1094 12.9479 69.1094 13.401C69.1094 13.7708 69.0312 14.1093 68.875 14.4166C68.724 14.7239 68.5026 14.9895 68.2109 15.2135C67.9245 15.4323 67.5807 15.6041 67.1797 15.7291C66.7839 15.8489 66.3385 15.9088 65.8438 15.9088C65.099 15.9088 64.4688 15.776 63.9531 15.5104C63.4375 15.2448 63.0469 14.901 62.7812 14.4791C62.5156 14.0573 62.3828 13.6119 62.3828 13.1432H63.8359C63.8568 13.539 63.9714 13.8541 64.1797 14.0885C64.388 14.3177 64.6432 14.4817 64.9453 14.5807C65.2474 14.6744 65.5469 14.7213 65.8438 14.7213C66.2396 14.7213 66.5703 14.6692 66.8359 14.5651C67.1068 14.4609 67.3125 14.3177 67.4531 14.1354C67.5938 13.9531 67.6641 13.7448 67.6641 13.5104Z" fill="#222222"/>
<path d="M72.4531 3.75256V15.7526H71.0078V3.75256H72.4531ZM72.1094 11.2057L71.5078 11.1823C71.513 10.6041 71.599 10.0703 71.7656 9.58069C71.9323 9.0859 72.1667 8.65621 72.4688 8.29163C72.7708 7.92704 73.1302 7.64579 73.5469 7.44788C73.9688 7.24475 74.4349 7.14319 74.9453 7.14319C75.362 7.14319 75.737 7.20048 76.0703 7.31506C76.4036 7.42444 76.6875 7.60152 76.9219 7.84631C77.1615 8.09111 77.3438 8.40881 77.4688 8.79944C77.5938 9.18486 77.6562 9.65621 77.6562 10.2135V15.7526H76.2031V10.1979C76.2031 9.75517 76.138 9.401 76.0078 9.13538C75.8776 8.86454 75.6875 8.66923 75.4375 8.54944C75.1875 8.42444 74.8802 8.36194 74.5156 8.36194C74.1562 8.36194 73.8281 8.43746 73.5312 8.5885C73.2396 8.73954 72.987 8.94788 72.7734 9.2135C72.5651 9.47913 72.401 9.78381 72.2812 10.1276C72.1667 10.4661 72.1094 10.8255 72.1094 11.2057Z" fill="#222222"/>
<path d="M83.3281 15.9088C82.7396 15.9088 82.2057 15.8099 81.7266 15.6119C81.2526 15.4088 80.8438 15.125 80.5 14.7604C80.1615 14.3958 79.901 13.9635 79.7188 13.4635C79.5365 12.9635 79.4453 12.4166 79.4453 11.8229V11.4948C79.4453 10.8073 79.5469 10.1953 79.75 9.65881C79.9531 9.11715 80.2292 8.65881 80.5781 8.28381C80.9271 7.90881 81.3229 7.62496 81.7656 7.43225C82.2083 7.23954 82.6667 7.14319 83.1406 7.14319C83.7448 7.14319 84.2656 7.24736 84.7031 7.45569C85.1458 7.66402 85.5078 7.95569 85.7891 8.33069C86.0703 8.70048 86.2786 9.13798 86.4141 9.64319C86.5495 10.1432 86.6172 10.6901 86.6172 11.2838V11.9323H80.3047V10.7526H85.1719V10.6432C85.151 10.2682 85.0729 9.90361 84.9375 9.54944C84.8073 9.19527 84.599 8.90361 84.3125 8.67444C84.026 8.44527 83.6354 8.33069 83.1406 8.33069C82.8125 8.33069 82.5104 8.401 82.2344 8.54163C81.9583 8.67704 81.7214 8.88017 81.5234 9.151C81.3255 9.42183 81.1719 9.75256 81.0625 10.1432C80.9531 10.5338 80.8984 10.9843 80.8984 11.4948V11.8229C80.8984 12.2239 80.9531 12.6015 81.0625 12.9557C81.1771 13.3046 81.3411 13.6119 81.5547 13.8776C81.7734 14.1432 82.0365 14.3515 82.3438 14.5026C82.6562 14.6536 83.0104 14.7291 83.4062 14.7291C83.9167 14.7291 84.349 14.625 84.7031 14.4166C85.0573 14.2083 85.3672 13.9296 85.6328 13.5807L86.5078 14.276C86.3255 14.552 86.0938 14.8151 85.8125 15.0651C85.5312 15.3151 85.1849 15.5182 84.7734 15.6744C84.3672 15.8307 83.8854 15.9088 83.3281 15.9088Z" fill="#222222"/>
<path d="M89.75 8.62756V15.7526H88.3047V7.29944H89.7109L89.75 8.62756ZM92.3906 7.25256L92.3828 8.59631C92.263 8.57027 92.1484 8.55465 92.0391 8.54944C91.9349 8.53902 91.8151 8.53381 91.6797 8.53381C91.3464 8.53381 91.0521 8.5859 90.7969 8.69006C90.5417 8.79423 90.3255 8.94006 90.1484 9.12756C89.9714 9.31506 89.8307 9.53902 89.7266 9.79944C89.6276 10.0546 89.5625 10.3359 89.5312 10.6432L89.125 10.8776C89.125 10.3671 89.1745 9.88798 89.2734 9.44006C89.3776 8.99215 89.5365 8.59631 89.75 8.25256C89.9635 7.90361 90.2344 7.63277 90.5625 7.44006C90.8958 7.24215 91.2917 7.14319 91.75 7.14319C91.8542 7.14319 91.974 7.15621 92.1094 7.18225C92.2448 7.20308 92.3385 7.22652 92.3906 7.25256Z" fill="#222222"/>
</svg>
