<svg width="92" height="24" viewBox="0 0 92 24" fill="none" xmlns="http://www.w3.org/2000/svg">
<path d="M18.1154 0.875002C18.6078 0.875002 19.0954 0.971998 19.5504 1.16045C20.0054 1.34891 20.4188 1.62513 20.767 1.97335C21.1152 2.32157 21.3914 2.73497 21.5799 3.18994C21.7684 3.64491 21.8654 4.13254 21.8654 4.625C21.8654 9.4175 20.6654 14.5175 18.8654 15.65V23.375H17.3654V15.65C15.5954 14.54 14.4104 9.5975 14.3654 4.88V4.46C14.4079 3.49431 14.8217 2.58235 15.5204 1.91439C16.2191 1.24642 17.1487 0.874066 18.1154 0.875002ZM11.3654 0.875002V14.465C13.1054 14.8775 14.3654 16.715 14.3654 18.875C14.3654 21.3275 12.7304 23.375 10.6154 23.375C8.50036 23.375 6.86536 21.3275 6.86536 18.875C6.86536 16.7225 8.12536 14.8775 9.86536 14.465V0.875002H11.3654ZM0.115356 0.875002H0.865356C4.21786 0.875002 6.06286 5.6525 6.11536 14.75V15.875H1.61536V23.375H0.115356V0.875002ZM10.6154 15.875C9.41536 15.875 8.36536 17.1875 8.36536 18.875C8.36536 20.5625 9.41536 21.875 10.6154 21.875C11.8154 21.875 12.8654 20.5625 12.8654 18.875C12.8654 17.1875 11.8154 15.875 10.6154 15.875ZM1.61536 2.555V14.375H4.61536L4.60036 13.655L4.57786 12.9425C4.36786 6.995 3.29536 3.59 1.78036 2.645L1.69036 2.6L1.61536 2.555ZM15.8654 4.49V4.8575C15.9029 8.0975 16.6379 11.705 17.3654 13.4V2.5025C16.9475 2.64935 16.5822 2.91628 16.3154 3.26984C16.0485 3.6234 15.892 4.04785 15.8654 4.49ZM18.8654 2.5025V13.4C19.6079 11.6675 20.3654 7.925 20.3654 4.625C20.3656 4.15951 20.2215 3.70541 19.9528 3.32527C19.6842 2.94512 19.3042 2.65766 18.8654 2.5025Z" fill="#222222"/>
<path d="M41.6935 5.75V17.125H40.1857V5.75H41.6935ZM48.5607 5.75L43.8341 11.0547L41.1779 13.8125L40.9279 12.2031L42.9279 10L46.7482 5.75H48.5607ZM47.1075 17.125L42.8966 11.5781L43.795 10.3828L48.9044 17.125H47.1075Z" fill="#222222"/>
<path d="M51.5841 8.67188V17.125H50.131V8.67188H51.5841ZM50.0216 6.42969C50.0216 6.19531 50.0919 5.9974 50.2325 5.83594C50.3784 5.67448 50.5919 5.59375 50.8732 5.59375C51.1492 5.59375 51.3601 5.67448 51.506 5.83594C51.657 5.9974 51.7325 6.19531 51.7325 6.42969C51.7325 6.65365 51.657 6.84636 51.506 7.00781C51.3601 7.16406 51.1492 7.24219 50.8732 7.24219C50.5919 7.24219 50.3784 7.16406 50.2325 7.00781C50.0919 6.84636 50.0216 6.65365 50.0216 6.42969Z" fill="#222222"/>
<path d="M57.4435 8.67188V9.78125H52.8732V8.67188H57.4435ZM54.42 6.61719H55.8654V15.0313C55.8654 15.3177 55.9096 15.5339 55.9982 15.6797C56.0867 15.8255 56.2013 15.9219 56.3419 15.9688C56.4825 16.0156 56.6336 16.0391 56.795 16.0391C56.9148 16.0391 57.0398 16.0286 57.17 16.0078C57.3055 15.9818 57.407 15.9609 57.4747 15.9453L57.4825 17.125C57.368 17.1615 57.2169 17.1953 57.0294 17.2266C56.8471 17.263 56.6258 17.2813 56.3654 17.2813C56.0112 17.2813 55.6857 17.2109 55.3888 17.0703C55.0919 16.9297 54.8549 16.6953 54.6779 16.3672C54.506 16.0339 54.42 15.5859 54.42 15.0234V6.61719Z" fill="#222222"/>
<path d="M62.5216 16.0938C62.8654 16.0938 63.1831 16.0234 63.4747 15.8828C63.7664 15.7422 64.006 15.5495 64.1935 15.3047C64.381 15.0547 64.4878 14.7708 64.5138 14.4531H65.8888C65.8628 14.9531 65.6935 15.4193 65.381 15.8516C65.0737 16.2786 64.67 16.625 64.17 16.8906C63.67 17.151 63.1206 17.2813 62.5216 17.2813C61.8862 17.2813 61.3315 17.1693 60.8575 16.9453C60.3888 16.7214 59.9982 16.4141 59.6857 16.0234C59.3784 15.6328 59.1466 15.1849 58.9904 14.6797C58.8393 14.1693 58.7638 13.6302 58.7638 13.0625V12.7344C58.7638 12.1667 58.8393 11.6302 58.9904 11.125C59.1466 10.6146 59.3784 10.1641 59.6857 9.77344C59.9982 9.38281 60.3888 9.07552 60.8575 8.85156C61.3315 8.62761 61.8862 8.51563 62.5216 8.51563C63.1831 8.51563 63.7612 8.65104 64.256 8.92188C64.7508 9.1875 65.1388 9.55208 65.42 10.0156C65.7065 10.474 65.8628 10.9948 65.8888 11.5781H64.5138C64.4878 11.2292 64.3888 10.9141 64.2169 10.6328C64.0503 10.3516 63.8211 10.1276 63.5294 9.96094C63.243 9.78906 62.907 9.70313 62.5216 9.70313C62.0789 9.70313 61.7065 9.79167 61.4044 9.96875C61.1075 10.1406 60.8706 10.375 60.6935 10.6719C60.5216 10.9635 60.3966 11.2891 60.3185 11.6484C60.2456 12.0026 60.2091 12.3646 60.2091 12.7344V13.0625C60.2091 13.4323 60.2456 13.7969 60.3185 14.1563C60.3914 14.5156 60.5138 14.8411 60.6857 15.1328C60.8628 15.4245 61.0997 15.6589 61.3966 15.8359C61.6987 16.0078 62.0737 16.0938 62.5216 16.0938Z" fill="#222222"/>
<path d="M68.9591 5.125V17.125H67.5138V5.125H68.9591ZM68.6154 12.5781L68.0138 12.5547C68.019 11.9766 68.1049 11.4427 68.2716 10.9531C68.4383 10.4583 68.6726 10.0286 68.9747 9.66406C69.2768 9.29948 69.6362 9.01823 70.0529 8.82031C70.4747 8.61719 70.9409 8.51563 71.4513 8.51563C71.868 8.51563 72.243 8.57292 72.5763 8.6875C72.9096 8.79688 73.1935 8.97396 73.4279 9.21875C73.6674 9.46354 73.8497 9.78125 73.9747 10.1719C74.0997 10.5573 74.1622 11.0286 74.1622 11.5859V17.125H72.7091V11.5703C72.7091 11.1276 72.644 10.7734 72.5138 10.5078C72.3836 10.237 72.1935 10.0417 71.9435 9.92188C71.6935 9.79688 71.3862 9.73438 71.0216 9.73438C70.6622 9.73438 70.3341 9.8099 70.0372 9.96094C69.7456 10.112 69.493 10.3203 69.2794 10.5859C69.0711 10.8516 68.907 11.1563 68.7872 11.5C68.6726 11.8385 68.6154 12.1979 68.6154 12.5781Z" fill="#222222"/>
<path d="M79.8341 17.2813C79.2456 17.2813 78.7117 17.1823 78.2325 16.9844C77.7586 16.7813 77.3497 16.4974 77.006 16.1328C76.6674 15.7682 76.407 15.3359 76.2247 14.8359C76.0424 14.3359 75.9513 13.7891 75.9513 13.1953V12.8672C75.9513 12.1797 76.0529 11.5677 76.256 11.0313C76.4591 10.4896 76.7351 10.0313 77.0841 9.65625C77.4331 9.28125 77.8289 8.9974 78.2716 8.80469C78.7143 8.61198 79.1726 8.51563 79.6466 8.51563C80.2508 8.51563 80.7716 8.61979 81.2091 8.82813C81.6518 9.03646 82.0138 9.32813 82.295 9.70313C82.5763 10.0729 82.7846 10.5104 82.92 11.0156C83.0555 11.5156 83.1232 12.0625 83.1232 12.6563V13.3047H76.8107V12.125H81.6779V12.0156C81.657 11.6406 81.5789 11.276 81.4435 10.9219C81.3133 10.5677 81.1049 10.276 80.8185 10.0469C80.532 9.81771 80.1414 9.70313 79.6466 9.70313C79.3185 9.70313 79.0164 9.77344 78.7404 9.91406C78.4643 10.0495 78.2273 10.2526 78.0294 10.5234C77.8315 10.7943 77.6779 11.125 77.5685 11.5156C77.4591 11.9063 77.4044 12.3568 77.4044 12.8672V13.1953C77.4044 13.5964 77.4591 13.974 77.5685 14.3281C77.6831 14.6771 77.8471 14.9844 78.0607 15.25C78.2794 15.5156 78.5424 15.724 78.8497 15.875C79.1622 16.026 79.5164 16.1016 79.9122 16.1016C80.4226 16.1016 80.8549 15.9974 81.2091 15.7891C81.5633 15.5807 81.8732 15.3021 82.1388 14.9531L83.0138 15.6484C82.8315 15.9245 82.5997 16.1875 82.3185 16.4375C82.0372 16.6875 81.6909 16.8906 81.2794 17.0469C80.8732 17.2031 80.3914 17.2813 79.8341 17.2813Z" fill="#222222"/>
<path d="M86.256 10.4766V17.125H84.8107V8.67188H86.1779L86.256 10.4766ZM85.9122 12.5781L85.3107 12.5547C85.3159 11.9766 85.4018 11.4427 85.5685 10.9531C85.7351 10.4583 85.9695 10.0286 86.2716 9.66406C86.5737 9.29948 86.9331 9.01823 87.3497 8.82031C87.7716 8.61719 88.2378 8.51563 88.7482 8.51563C89.1648 8.51563 89.5398 8.57292 89.8732 8.6875C90.2065 8.79688 90.4904 8.97396 90.7247 9.21875C90.9643 9.46354 91.1466 9.78125 91.2716 10.1719C91.3966 10.5573 91.4591 11.0286 91.4591 11.5859V17.125H90.006V11.5703C90.006 11.1276 89.9409 10.7734 89.8107 10.5078C89.6805 10.237 89.4904 10.0417 89.2404 9.92188C88.9904 9.79688 88.6831 9.73438 88.3185 9.73438C87.9591 9.73438 87.631 9.8099 87.3341 9.96094C87.0424 10.112 86.7898 10.3203 86.5763 10.5859C86.368 10.8516 86.2039 11.1563 86.0841 11.5C85.9695 11.8385 85.9122 12.1979 85.9122 12.5781Z" fill="#222222"/>
</svg>
