<svg width="218" height="19" viewBox="0 0 218 19" fill="none" xmlns="http://www.w3.org/2000/svg">
<path d="M18.1154 10.875C18.1154 11.0739 18.0363 11.2647 17.8957 11.4053C17.755 11.546 17.5643 11.625 17.3654 11.625C17.1664 11.625 16.9757 11.546 16.835 11.4053C16.6944 11.2647 16.6154 11.0739 16.6154 10.875C16.6154 10.6761 16.6944 10.4853 16.835 10.3447C16.9757 10.204 17.1664 10.125 17.3654 10.125C17.5643 10.125 17.755 10.204 17.8957 10.3447C18.0363 10.4853 18.1154 10.6761 18.1154 10.875ZM3.86536 10.125C3.66644 10.125 3.47568 10.204 3.33503 10.3447C3.19437 10.4853 3.11536 10.6761 3.11536 10.875C3.11536 11.0739 3.19437 11.2647 3.33503 11.4053C3.47568 11.546 3.66644 11.625 3.86536 11.625C4.06427 11.625 4.25503 11.546 4.39569 11.4053C4.53634 11.2647 4.61536 11.0739 4.61536 10.875C4.61536 10.6761 4.53634 10.4853 4.39569 10.3447C4.25503 10.204 4.06427 10.125 3.86536 10.125ZM19.3904 6.375L19.6979 7.215C20.1377 7.56229 20.4935 8.00429 20.739 8.50811C20.9844 9.01192 21.113 9.56459 21.1154 10.125V16.875C21.1154 17.2728 20.9573 17.6544 20.676 17.9357C20.3947 18.217 20.0132 18.375 19.6154 18.375H18.1154C17.7175 18.375 17.336 18.217 17.0547 17.9357C16.7734 17.6544 16.6154 17.2728 16.6154 16.875V15.375H4.61536V16.875C4.61536 17.2728 4.45732 17.6544 4.17602 17.9357C3.89471 18.217 3.51318 18.375 3.11536 18.375H1.61536C1.21753 18.375 0.836001 18.217 0.554696 17.9357C0.273392 17.6544 0.115356 17.2728 0.115356 16.875V10.125C0.115356 8.9475 0.677857 7.905 1.53286 7.215L1.84036 6.375H0.115356V4.875H2.36536V4.9875L3.73036 1.35C3.83718 1.0641 4.02867 0.817585 4.27927 0.643371C4.52987 0.469158 4.82765 0.375534 5.13286 0.375H16.0979C16.7204 0.375 17.2829 0.765 17.5004 1.35L18.8654 4.9875V4.875H21.1154V6.375H19.3904ZM3.11536 15.375H1.61536V16.875H3.11536V15.375ZM19.6154 15.375H18.1154V16.875H19.6154V15.375ZM19.6154 13.875V10.125C19.6154 9.52826 19.3783 8.95597 18.9563 8.53401C18.5344 8.11205 17.9621 7.875 17.3654 7.875H3.86536C3.26862 7.875 2.69632 8.11205 2.27437 8.53401C1.85241 8.95597 1.61536 9.52826 1.61536 10.125V13.875H19.6154ZM17.7854 6.375L16.0904 1.875H5.13286L3.44536 6.375H17.7854ZM6.11536 11.625H15.1154V10.125H6.11536V11.625Z" fill="#222222"/>
<path d="M41.9435 3V14.375H40.4357V3H41.9435ZM46.7091 8.11719V9.35156H41.6154V8.11719H46.7091ZM47.4825 3V4.23438H41.6154V3H47.4825Z" fill="#222222"/>
<path d="M50.3029 7.25V14.375H48.8575V5.92188H50.2638L50.3029 7.25ZM52.9435 5.875L52.9357 7.21875C52.8159 7.19271 52.7013 7.17708 52.5919 7.17188C52.4878 7.16146 52.368 7.15625 52.2325 7.15625C51.8992 7.15625 51.6049 7.20833 51.3497 7.3125C51.0945 7.41667 50.8784 7.5625 50.7013 7.75C50.5242 7.9375 50.3836 8.16146 50.2794 8.42188C50.1805 8.67708 50.1154 8.95833 50.0841 9.26562L49.6779 9.5C49.6779 8.98958 49.7273 8.51042 49.8263 8.0625C49.9305 7.61458 50.0893 7.21875 50.3029 6.875C50.5164 6.52604 50.7872 6.25521 51.1154 6.0625C51.4487 5.86458 51.8445 5.76562 52.3029 5.76562C52.407 5.76562 52.5268 5.77865 52.6622 5.80469C52.7976 5.82552 52.8914 5.84896 52.9435 5.875Z" fill="#222222"/>
<path d="M57.631 14.5312C57.0424 14.5312 56.5086 14.4323 56.0294 14.2344C55.5555 14.0312 55.1466 13.7474 54.8029 13.3828C54.4643 13.0182 54.2039 12.5859 54.0216 12.0859C53.8393 11.5859 53.7482 11.0391 53.7482 10.4453V10.1172C53.7482 9.42969 53.8497 8.81771 54.0529 8.28125C54.256 7.73958 54.532 7.28125 54.881 6.90625C55.2299 6.53125 55.6258 6.2474 56.0685 6.05469C56.5112 5.86198 56.9695 5.76562 57.4435 5.76562C58.0476 5.76562 58.5685 5.86979 59.006 6.07812C59.4487 6.28646 59.8107 6.57812 60.0919 6.95312C60.3732 7.32292 60.5815 7.76042 60.7169 8.26562C60.8523 8.76562 60.92 9.3125 60.92 9.90625V10.5547H54.6075V9.375H59.4747V9.26562C59.4539 8.89062 59.3758 8.52604 59.2404 8.17188C59.1101 7.81771 58.9018 7.52604 58.6154 7.29688C58.3289 7.06771 57.9383 6.95312 57.4435 6.95312C57.1154 6.95312 56.8133 7.02344 56.5372 7.16406C56.2612 7.29948 56.0242 7.5026 55.8263 7.77344C55.6284 8.04427 55.4747 8.375 55.3654 8.76562C55.256 9.15625 55.2013 9.60677 55.2013 10.1172V10.4453C55.2013 10.8464 55.256 11.224 55.3654 11.5781C55.4799 11.9271 55.644 12.2344 55.8575 12.5C56.0763 12.7656 56.3393 12.974 56.6466 13.125C56.9591 13.276 57.3133 13.3516 57.7091 13.3516C58.2195 13.3516 58.6518 13.2474 59.006 13.0391C59.3601 12.8307 59.67 12.5521 59.9357 12.2031L60.8107 12.8984C60.6284 13.1745 60.3966 13.4375 60.1154 13.6875C59.8341 13.9375 59.4878 14.1406 59.0763 14.2969C58.67 14.4531 58.1883 14.5312 57.631 14.5312Z" fill="#222222"/>
<path d="M66.1154 14.5312C65.5268 14.5312 64.993 14.4323 64.5138 14.2344C64.0398 14.0312 63.631 13.7474 63.2872 13.3828C62.9487 13.0182 62.6883 12.5859 62.506 12.0859C62.3237 11.5859 62.2325 11.0391 62.2325 10.4453V10.1172C62.2325 9.42969 62.3341 8.81771 62.5372 8.28125C62.7404 7.73958 63.0164 7.28125 63.3654 6.90625C63.7143 6.53125 64.1101 6.2474 64.5529 6.05469C64.9956 5.86198 65.4539 5.76562 65.9279 5.76562C66.532 5.76562 67.0529 5.86979 67.4904 6.07812C67.9331 6.28646 68.295 6.57812 68.5763 6.95312C68.8575 7.32292 69.0659 7.76042 69.2013 8.26562C69.3367 8.76562 69.4044 9.3125 69.4044 9.90625V10.5547H63.0919V9.375H67.9591V9.26562C67.9383 8.89062 67.8601 8.52604 67.7247 8.17188C67.5945 7.81771 67.3862 7.52604 67.0997 7.29688C66.8133 7.06771 66.4226 6.95312 65.9279 6.95312C65.5997 6.95312 65.2976 7.02344 65.0216 7.16406C64.7456 7.29948 64.5086 7.5026 64.3107 7.77344C64.1128 8.04427 63.9591 8.375 63.8497 8.76562C63.7404 9.15625 63.6857 9.60677 63.6857 10.1172V10.4453C63.6857 10.8464 63.7404 11.224 63.8497 11.5781C63.9643 11.9271 64.1284 12.2344 64.3419 12.5C64.5607 12.7656 64.8237 12.974 65.131 13.125C65.4435 13.276 65.7976 13.3516 66.1935 13.3516C66.7039 13.3516 67.1362 13.2474 67.4904 13.0391C67.8445 12.8307 68.1544 12.5521 68.42 12.2031L69.295 12.8984C69.1128 13.1745 68.881 13.4375 68.5997 13.6875C68.3185 13.9375 67.9721 14.1406 67.5607 14.2969C67.1544 14.4531 66.6726 14.5312 66.1154 14.5312Z" fill="#222222"/>
<path d="M76.506 7.54688V17.625H75.0529V5.92188H76.381L76.506 7.54688ZM82.2013 10.0781V10.2422C82.2013 10.8568 82.1284 11.4271 81.9825 11.9531C81.8367 12.474 81.6232 12.9271 81.3419 13.3125C81.0659 13.6979 80.7247 13.9974 80.3185 14.2109C79.9122 14.4245 79.4461 14.5312 78.92 14.5312C78.3836 14.5312 77.9096 14.4427 77.4982 14.2656C77.0867 14.0885 76.7378 13.8307 76.4513 13.4922C76.1648 13.1536 75.9357 12.7474 75.7638 12.2734C75.5971 11.7995 75.4825 11.2656 75.42 10.6719V9.79688C75.4825 9.17188 75.5997 8.61198 75.7716 8.11719C75.9435 7.6224 76.17 7.20052 76.4513 6.85156C76.7378 6.4974 77.0841 6.22917 77.4904 6.04688C77.8966 5.85938 78.3654 5.76562 78.8966 5.76562C79.4279 5.76562 79.8992 5.86979 80.3107 6.07812C80.7221 6.28125 81.0685 6.57292 81.3497 6.95312C81.631 7.33333 81.8419 7.78906 81.9825 8.32031C82.1284 8.84635 82.2013 9.43229 82.2013 10.0781ZM80.7482 10.2422V10.0781C80.7482 9.65625 80.7039 9.26042 80.6154 8.89062C80.5268 8.51562 80.3888 8.1875 80.2013 7.90625C80.019 7.61979 79.7846 7.39583 79.4982 7.23438C79.2117 7.06771 78.8706 6.98438 78.4747 6.98438C78.1101 6.98438 77.7924 7.04688 77.5216 7.17188C77.256 7.29688 77.0294 7.46615 76.8419 7.67969C76.6544 7.88802 76.5008 8.1276 76.381 8.39844C76.2664 8.66406 76.1805 8.9401 76.1232 9.22656V11.25C76.2273 11.6146 76.3732 11.9583 76.5607 12.2812C76.7482 12.599 76.9982 12.8568 77.3107 13.0547C77.6232 13.2474 78.0164 13.3438 78.4904 13.3438C78.881 13.3438 79.2169 13.263 79.4982 13.1016C79.7846 12.9349 80.019 12.7083 80.2013 12.4219C80.3888 12.1354 80.5268 11.8073 80.6154 11.4375C80.7039 11.0625 80.7482 10.6641 80.7482 10.2422Z" fill="#222222"/>
<path d="M89.0294 12.9297V8.57812C89.0294 8.24479 88.9617 7.95573 88.8263 7.71094C88.6961 7.46094 88.4982 7.26823 88.2325 7.13281C87.9669 6.9974 87.6388 6.92969 87.2482 6.92969C86.8836 6.92969 86.5633 6.99219 86.2872 7.11719C86.0164 7.24219 85.8029 7.40625 85.6466 7.60938C85.4956 7.8125 85.42 8.03125 85.42 8.26562H83.9747C83.9747 7.96354 84.0529 7.66406 84.2091 7.36719C84.3654 7.07031 84.5893 6.80208 84.881 6.5625C85.1779 6.31771 85.532 6.125 85.9435 5.98438C86.3601 5.83854 86.8237 5.76562 87.3341 5.76562C87.9487 5.76562 88.4904 5.86979 88.9591 6.07812C89.4331 6.28646 89.8029 6.60156 90.0685 7.02344C90.3393 7.4401 90.4747 7.96354 90.4747 8.59375V12.5312C90.4747 12.8125 90.4982 13.112 90.545 13.4297C90.5971 13.7474 90.6726 14.0208 90.7716 14.25V14.375H89.2638C89.1909 14.2083 89.1336 13.987 89.0919 13.7109C89.0503 13.4297 89.0294 13.1693 89.0294 12.9297ZM89.2794 9.25L89.295 10.2656H87.8341C87.4226 10.2656 87.0555 10.2995 86.7325 10.3672C86.4096 10.4297 86.1388 10.526 85.92 10.6562C85.7013 10.7865 85.5346 10.9505 85.42 11.1484C85.3055 11.3411 85.2482 11.5677 85.2482 11.8281C85.2482 12.0938 85.3081 12.3359 85.4279 12.5547C85.5476 12.7734 85.7273 12.9479 85.9669 13.0781C86.2117 13.2031 86.5112 13.2656 86.8654 13.2656C87.3081 13.2656 87.6987 13.1719 88.0372 12.9844C88.3758 12.7969 88.644 12.5677 88.8419 12.2969C89.045 12.026 89.1544 11.763 89.17 11.5078L89.7872 12.2031C89.7508 12.4219 89.6518 12.6641 89.4904 12.9297C89.3289 13.1953 89.1128 13.4505 88.8419 13.6953C88.5763 13.9349 88.2586 14.1354 87.8888 14.2969C87.5242 14.4531 87.1128 14.5312 86.6544 14.5312C86.0815 14.5312 85.5789 14.4193 85.1466 14.1953C84.7195 13.9714 84.3862 13.6719 84.1466 13.2969C83.9122 12.9167 83.795 12.4922 83.795 12.0234C83.795 11.5703 83.8836 11.1719 84.0607 10.8281C84.2378 10.4792 84.493 10.1901 84.8263 9.96094C85.1596 9.72656 85.5607 9.54948 86.0294 9.42969C86.4982 9.3099 87.0216 9.25 87.5997 9.25H89.2794Z" fill="#222222"/>
<path d="M94.1935 7.25V14.375H92.7482V5.92188H94.1544L94.1935 7.25ZM96.8341 5.875L96.8263 7.21875C96.7065 7.19271 96.5919 7.17708 96.4825 7.17188C96.3784 7.16146 96.2586 7.15625 96.1232 7.15625C95.7898 7.15625 95.4956 7.20833 95.2404 7.3125C94.9851 7.41667 94.769 7.5625 94.5919 7.75C94.4148 7.9375 94.2742 8.16146 94.17 8.42188C94.0711 8.67708 94.006 8.95833 93.9747 9.26562L93.5685 9.5C93.5685 8.98958 93.618 8.51042 93.7169 8.0625C93.8211 7.61458 93.9799 7.21875 94.1935 6.875C94.407 6.52604 94.6779 6.25521 95.006 6.0625C95.3393 5.86458 95.7351 5.76562 96.1935 5.76562C96.2976 5.76562 96.4174 5.77865 96.5529 5.80469C96.6883 5.82552 96.782 5.84896 96.8341 5.875Z" fill="#222222"/>
<path d="M99.6232 2.375V14.375H98.17V2.375H99.6232ZM104.787 5.92188L101.1 9.86719L99.0372 12.0078L98.92 10.4688L100.397 8.70312L103.022 5.92188H104.787ZM103.467 14.375L100.451 10.3438L101.201 9.05469L105.17 14.375H103.467Z" fill="#222222"/>
<path d="M107.85 5.92188V14.375H106.397V5.92188H107.85ZM106.287 3.67969C106.287 3.44531 106.358 3.2474 106.498 3.08594C106.644 2.92448 106.858 2.84375 107.139 2.84375C107.415 2.84375 107.626 2.92448 107.772 3.08594C107.923 3.2474 107.998 3.44531 107.998 3.67969C107.998 3.90365 107.923 4.09635 107.772 4.25781C107.626 4.41406 107.415 4.49219 107.139 4.49219C106.858 4.49219 106.644 4.41406 106.498 4.25781C106.358 4.09635 106.287 3.90365 106.287 3.67969Z" fill="#222222"/>
<path d="M111.615 7.72656V14.375H110.17V5.92188H111.537L111.615 7.72656ZM111.272 9.82812L110.67 9.80469C110.675 9.22656 110.761 8.69271 110.928 8.20312C111.095 7.70833 111.329 7.27865 111.631 6.91406C111.933 6.54948 112.292 6.26823 112.709 6.07031C113.131 5.86719 113.597 5.76562 114.108 5.76562C114.524 5.76562 114.899 5.82292 115.233 5.9375C115.566 6.04688 115.85 6.22396 116.084 6.46875C116.324 6.71354 116.506 7.03125 116.631 7.42188C116.756 7.80729 116.818 8.27865 116.818 8.83594V14.375H115.365V8.82031C115.365 8.3776 115.3 8.02344 115.17 7.75781C115.04 7.48698 114.85 7.29167 114.6 7.17188C114.35 7.04688 114.042 6.98438 113.678 6.98438C113.318 6.98438 112.99 7.0599 112.693 7.21094C112.402 7.36198 112.149 7.57031 111.936 7.83594C111.727 8.10156 111.563 8.40625 111.443 8.75C111.329 9.08854 111.272 9.44792 111.272 9.82812Z" fill="#222222"/>
<path d="M124.49 5.92188H125.803V14.1953C125.803 14.9401 125.652 15.5755 125.35 16.1016C125.048 16.6276 124.626 17.026 124.084 17.2969C123.548 17.5729 122.928 17.7109 122.225 17.7109C121.933 17.7109 121.589 17.6641 121.193 17.5703C120.803 17.4818 120.417 17.3281 120.037 17.1094C119.662 16.8958 119.347 16.6068 119.092 16.2422L119.85 15.3828C120.204 15.8099 120.574 16.1068 120.959 16.2734C121.35 16.4401 121.735 16.5234 122.115 16.5234C122.574 16.5234 122.97 16.4375 123.303 16.2656C123.636 16.0938 123.894 15.8385 124.076 15.5C124.264 15.1667 124.358 14.7552 124.358 14.2656V7.78125L124.49 5.92188ZM118.67 10.2422V10.0781C118.67 9.43229 118.746 8.84635 118.897 8.32031C119.053 7.78906 119.274 7.33333 119.561 6.95312C119.852 6.57292 120.204 6.28125 120.615 6.07812C121.027 5.86979 121.49 5.76562 122.006 5.76562C122.537 5.76562 123.001 5.85938 123.397 6.04688C123.798 6.22917 124.136 6.4974 124.412 6.85156C124.693 7.20052 124.915 7.6224 125.076 8.11719C125.238 8.61198 125.35 9.17188 125.412 9.79688V10.5156C125.355 11.1354 125.243 11.6927 125.076 12.1875C124.915 12.6823 124.693 13.1042 124.412 13.4531C124.136 13.8021 123.798 14.0703 123.397 14.2578C122.996 14.4401 122.527 14.5312 121.99 14.5312C121.485 14.5312 121.027 14.4245 120.615 14.2109C120.209 13.9974 119.86 13.6979 119.568 13.3125C119.277 12.9271 119.053 12.474 118.897 11.9531C118.746 11.4271 118.67 10.8568 118.67 10.2422ZM120.115 10.0781V10.2422C120.115 10.6641 120.157 11.0599 120.24 11.4297C120.329 11.7995 120.462 12.125 120.639 12.4062C120.821 12.6875 121.053 12.9089 121.334 13.0703C121.615 13.2266 121.951 13.3047 122.342 13.3047C122.821 13.3047 123.217 13.2031 123.529 13C123.842 12.7969 124.089 12.5286 124.272 12.1953C124.459 11.862 124.605 11.5 124.709 11.1094V9.22656C124.652 8.9401 124.563 8.66406 124.443 8.39844C124.329 8.1276 124.178 7.88802 123.99 7.67969C123.808 7.46615 123.582 7.29688 123.311 7.17188C123.04 7.04688 122.722 6.98438 122.358 6.98438C121.962 6.98438 121.621 7.06771 121.334 7.23438C121.053 7.39583 120.821 7.61979 120.639 7.90625C120.462 8.1875 120.329 8.51562 120.24 8.89062C120.157 9.26042 120.115 9.65625 120.115 10.0781Z" fill="#222222"/>
<path d="M131.584 10.2422V10.0625C131.584 9.45312 131.673 8.88802 131.85 8.36719C132.027 7.84115 132.282 7.38542 132.615 7C132.949 6.60938 133.352 6.30729 133.826 6.09375C134.3 5.875 134.832 5.76562 135.42 5.76562C136.014 5.76562 136.548 5.875 137.022 6.09375C137.501 6.30729 137.907 6.60938 138.24 7C138.579 7.38542 138.837 7.84115 139.014 8.36719C139.191 8.88802 139.279 9.45312 139.279 10.0625V10.2422C139.279 10.8516 139.191 11.4167 139.014 11.9375C138.837 12.4583 138.579 12.9141 138.24 13.3047C137.907 13.6901 137.503 13.9922 137.029 14.2109C136.561 14.4245 136.029 14.5312 135.436 14.5312C134.842 14.5312 134.308 14.4245 133.834 14.2109C133.36 13.9922 132.954 13.6901 132.615 13.3047C132.282 12.9141 132.027 12.4583 131.85 11.9375C131.673 11.4167 131.584 10.8516 131.584 10.2422ZM133.029 10.0625V10.2422C133.029 10.6641 133.079 11.0625 133.178 11.4375C133.277 11.8073 133.425 12.1354 133.623 12.4219C133.826 12.7083 134.079 12.9349 134.381 13.1016C134.683 13.263 135.035 13.3438 135.436 13.3438C135.832 13.3438 136.178 13.263 136.475 13.1016C136.777 12.9349 137.027 12.7083 137.225 12.4219C137.423 12.1354 137.571 11.8073 137.67 11.4375C137.774 11.0625 137.826 10.6641 137.826 10.2422V10.0625C137.826 9.64583 137.774 9.2526 137.67 8.88281C137.571 8.50781 137.42 8.17708 137.217 7.89062C137.019 7.59896 136.769 7.36979 136.467 7.20312C136.17 7.03646 135.821 6.95312 135.42 6.95312C135.024 6.95312 134.675 7.03646 134.373 7.20312C134.076 7.36979 133.826 7.59896 133.623 7.89062C133.425 8.17708 133.277 8.50781 133.178 8.88281C133.079 9.2526 133.029 9.64583 133.029 10.0625Z" fill="#222222"/>
<path d="M142.537 7.72656V14.375H141.092V5.92188H142.459L142.537 7.72656ZM142.193 9.82812L141.592 9.80469C141.597 9.22656 141.683 8.69271 141.85 8.20312C142.016 7.70833 142.251 7.27865 142.553 6.91406C142.855 6.54948 143.214 6.26823 143.631 6.07031C144.053 5.86719 144.519 5.76562 145.029 5.76562C145.446 5.76562 145.821 5.82292 146.154 5.9375C146.488 6.04688 146.772 6.22396 147.006 6.46875C147.246 6.71354 147.428 7.03125 147.553 7.42188C147.678 7.80729 147.74 8.27865 147.74 8.83594V14.375H146.287V8.82031C146.287 8.3776 146.222 8.02344 146.092 7.75781C145.962 7.48698 145.772 7.29167 145.522 7.17188C145.272 7.04688 144.964 6.98438 144.6 6.98438C144.24 6.98438 143.912 7.0599 143.615 7.21094C143.324 7.36198 143.071 7.57031 142.858 7.83594C142.649 8.10156 142.485 8.40625 142.365 8.75C142.251 9.08854 142.193 9.44792 142.193 9.82812Z" fill="#222222"/>
<path d="M155.35 7.54688V17.625H153.897V5.92188H155.225L155.35 7.54688ZM161.045 10.0781V10.2422C161.045 10.8568 160.972 11.4271 160.826 11.9531C160.68 12.474 160.467 12.9271 160.186 13.3125C159.91 13.6979 159.568 13.9974 159.162 14.2109C158.756 14.4245 158.29 14.5312 157.764 14.5312C157.227 14.5312 156.753 14.4427 156.342 14.2656C155.93 14.0885 155.582 13.8307 155.295 13.4922C155.009 13.1536 154.779 12.7474 154.608 12.2734C154.441 11.7995 154.326 11.2656 154.264 10.6719V9.79688C154.326 9.17188 154.443 8.61198 154.615 8.11719C154.787 7.6224 155.014 7.20052 155.295 6.85156C155.582 6.4974 155.928 6.22917 156.334 6.04688C156.74 5.85938 157.209 5.76562 157.74 5.76562C158.272 5.76562 158.743 5.86979 159.154 6.07812C159.566 6.28125 159.912 6.57292 160.193 6.95312C160.475 7.33333 160.686 7.78906 160.826 8.32031C160.972 8.84635 161.045 9.43229 161.045 10.0781ZM159.592 10.2422V10.0781C159.592 9.65625 159.548 9.26042 159.459 8.89062C159.371 8.51562 159.233 8.1875 159.045 7.90625C158.863 7.61979 158.628 7.39583 158.342 7.23438C158.055 7.06771 157.714 6.98438 157.318 6.98438C156.954 6.98438 156.636 7.04688 156.365 7.17188C156.1 7.29688 155.873 7.46615 155.686 7.67969C155.498 7.88802 155.345 8.1276 155.225 8.39844C155.11 8.66406 155.024 8.9401 154.967 9.22656V11.25C155.071 11.6146 155.217 11.9583 155.404 12.2812C155.592 12.599 155.842 12.8568 156.154 13.0547C156.467 13.2474 156.86 13.3438 157.334 13.3438C157.725 13.3438 158.061 13.263 158.342 13.1016C158.628 12.9349 158.863 12.7083 159.045 12.4219C159.233 12.1354 159.371 11.8073 159.459 11.4375C159.548 11.0625 159.592 10.6641 159.592 10.2422Z" fill="#222222"/>
<path d="M164.334 7.25V14.375H162.889V5.92188H164.295L164.334 7.25ZM166.975 5.875L166.967 7.21875C166.847 7.19271 166.733 7.17708 166.623 7.17188C166.519 7.16146 166.399 7.15625 166.264 7.15625C165.93 7.15625 165.636 7.20833 165.381 7.3125C165.126 7.41667 164.91 7.5625 164.733 7.75C164.555 7.9375 164.415 8.16146 164.311 8.42188C164.212 8.67708 164.147 8.95833 164.115 9.26562L163.709 9.5C163.709 8.98958 163.759 8.51042 163.858 8.0625C163.962 7.61458 164.121 7.21875 164.334 6.875C164.548 6.52604 164.818 6.25521 165.147 6.0625C165.48 5.86458 165.876 5.76562 166.334 5.76562C166.438 5.76562 166.558 5.77865 166.693 5.80469C166.829 5.82552 166.923 5.84896 166.975 5.875Z" fill="#222222"/>
<path d="M171.662 14.5312C171.074 14.5312 170.54 14.4323 170.061 14.2344C169.587 14.0312 169.178 13.7474 168.834 13.3828C168.496 13.0182 168.235 12.5859 168.053 12.0859C167.871 11.5859 167.779 11.0391 167.779 10.4453V10.1172C167.779 9.42969 167.881 8.81771 168.084 8.28125C168.287 7.73958 168.563 7.28125 168.912 6.90625C169.261 6.53125 169.657 6.2474 170.1 6.05469C170.542 5.86198 171.001 5.76562 171.475 5.76562C172.079 5.76562 172.6 5.86979 173.037 6.07812C173.48 6.28646 173.842 6.57812 174.123 6.95312C174.404 7.32292 174.613 7.76042 174.748 8.26562C174.884 8.76562 174.951 9.3125 174.951 9.90625V10.5547H168.639V9.375H173.506V9.26562C173.485 8.89062 173.407 8.52604 173.272 8.17188C173.141 7.81771 172.933 7.52604 172.647 7.29688C172.36 7.06771 171.97 6.95312 171.475 6.95312C171.147 6.95312 170.845 7.02344 170.568 7.16406C170.292 7.29948 170.055 7.5026 169.858 7.77344C169.66 8.04427 169.506 8.375 169.397 8.76562C169.287 9.15625 169.233 9.60677 169.233 10.1172V10.4453C169.233 10.8464 169.287 11.224 169.397 11.5781C169.511 11.9271 169.675 12.2344 169.889 12.5C170.108 12.7656 170.371 12.974 170.678 13.125C170.99 13.276 171.345 13.3516 171.74 13.3516C172.251 13.3516 172.683 13.2474 173.037 13.0391C173.391 12.8307 173.701 12.5521 173.967 12.2031L174.842 12.8984C174.66 13.1745 174.428 13.4375 174.147 13.6875C173.865 13.9375 173.519 14.1406 173.108 14.2969C172.701 14.4531 172.22 14.5312 171.662 14.5312Z" fill="#222222"/>
<path d="M178.076 7.60156V14.375H176.623V5.92188H177.998L178.076 7.60156ZM177.779 9.82812L177.108 9.80469C177.113 9.22656 177.188 8.69271 177.334 8.20312C177.48 7.70833 177.696 7.27865 177.983 6.91406C178.269 6.54948 178.626 6.26823 179.053 6.07031C179.48 5.86719 179.975 5.76562 180.537 5.76562C180.933 5.76562 181.298 5.82292 181.631 5.9375C181.964 6.04688 182.253 6.22135 182.498 6.46094C182.743 6.70052 182.933 7.00781 183.068 7.38281C183.204 7.75781 183.272 8.21094 183.272 8.74219V14.375H181.826V8.8125C181.826 8.36979 181.751 8.01562 181.6 7.75C181.454 7.48438 181.246 7.29167 180.975 7.17188C180.704 7.04688 180.386 6.98438 180.022 6.98438C179.595 6.98438 179.238 7.0599 178.951 7.21094C178.665 7.36198 178.436 7.57031 178.264 7.83594C178.092 8.10156 177.967 8.40625 177.889 8.75C177.816 9.08854 177.779 9.44792 177.779 9.82812ZM183.256 9.03125L182.287 9.32812C182.292 8.86458 182.368 8.41927 182.514 7.99219C182.665 7.5651 182.881 7.1849 183.162 6.85156C183.449 6.51823 183.8 6.25521 184.217 6.0625C184.634 5.86458 185.11 5.76562 185.647 5.76562C186.1 5.76562 186.501 5.82552 186.85 5.94531C187.204 6.0651 187.501 6.25 187.74 6.5C187.985 6.74479 188.17 7.0599 188.295 7.44531C188.42 7.83073 188.483 8.28906 188.483 8.82031V14.375H187.029V8.80469C187.029 8.33073 186.954 7.96354 186.803 7.70312C186.657 7.4375 186.449 7.2526 186.178 7.14844C185.912 7.03906 185.595 6.98438 185.225 6.98438C184.907 6.98438 184.626 7.03906 184.381 7.14844C184.136 7.25781 183.93 7.40885 183.764 7.60156C183.597 7.78906 183.47 8.00521 183.381 8.25C183.298 8.49479 183.256 8.75521 183.256 9.03125Z" fill="#222222"/>
<path d="M192.24 5.92188V14.375H190.787V5.92188H192.24ZM190.678 3.67969C190.678 3.44531 190.748 3.2474 190.889 3.08594C191.035 2.92448 191.248 2.84375 191.529 2.84375C191.805 2.84375 192.016 2.92448 192.162 3.08594C192.313 3.2474 192.389 3.44531 192.389 3.67969C192.389 3.90365 192.313 4.09635 192.162 4.25781C192.016 4.41406 191.805 4.49219 191.529 4.49219C191.248 4.49219 191.035 4.41406 190.889 4.25781C190.748 4.09635 190.678 3.90365 190.678 3.67969Z" fill="#222222"/>
<path d="M199.483 12.1328C199.483 11.9245 199.436 11.7318 199.342 11.5547C199.253 11.3724 199.068 11.2083 198.787 11.0625C198.511 10.9115 198.095 10.7812 197.537 10.6719C197.068 10.5729 196.644 10.4557 196.264 10.3203C195.889 10.1849 195.568 10.0208 195.303 9.82812C195.042 9.63542 194.842 9.40885 194.701 9.14844C194.561 8.88802 194.49 8.58333 194.49 8.23438C194.49 7.90104 194.563 7.58594 194.709 7.28906C194.86 6.99219 195.071 6.72917 195.342 6.5C195.618 6.27083 195.949 6.09115 196.334 5.96094C196.72 5.83073 197.149 5.76562 197.623 5.76562C198.3 5.76562 198.878 5.88542 199.358 6.125C199.837 6.36458 200.204 6.6849 200.459 7.08594C200.714 7.48177 200.842 7.92188 200.842 8.40625H199.397C199.397 8.17188 199.326 7.94531 199.186 7.72656C199.05 7.5026 198.85 7.31771 198.584 7.17188C198.324 7.02604 198.003 6.95312 197.623 6.95312C197.222 6.95312 196.897 7.01562 196.647 7.14062C196.402 7.26042 196.222 7.41406 196.108 7.60156C195.998 7.78906 195.943 7.98698 195.943 8.19531C195.943 8.35156 195.97 8.49219 196.022 8.61719C196.079 8.73698 196.178 8.84896 196.318 8.95312C196.459 9.05208 196.657 9.14583 196.912 9.23438C197.167 9.32292 197.493 9.41146 197.889 9.5C198.582 9.65625 199.152 9.84375 199.6 10.0625C200.048 10.2812 200.381 10.5495 200.6 10.8672C200.818 11.1849 200.928 11.5703 200.928 12.0234C200.928 12.3932 200.85 12.7318 200.693 13.0391C200.542 13.3464 200.321 13.612 200.029 13.8359C199.743 14.0547 199.399 14.2266 198.998 14.3516C198.602 14.4714 198.157 14.5312 197.662 14.5312C196.917 14.5312 196.287 14.3984 195.772 14.1328C195.256 13.8672 194.865 13.5234 194.6 13.1016C194.334 12.6797 194.201 12.2344 194.201 11.7656H195.654C195.675 12.1615 195.79 12.4766 195.998 12.7109C196.207 12.9401 196.462 13.1042 196.764 13.2031C197.066 13.2969 197.365 13.3438 197.662 13.3438C198.058 13.3438 198.389 13.2917 198.654 13.1875C198.925 13.0833 199.131 12.9401 199.272 12.7578C199.412 12.5755 199.483 12.3672 199.483 12.1328Z" fill="#222222"/>
<path d="M206.334 14.5312C205.746 14.5312 205.212 14.4323 204.733 14.2344C204.259 14.0312 203.85 13.7474 203.506 13.3828C203.167 13.0182 202.907 12.5859 202.725 12.0859C202.542 11.5859 202.451 11.0391 202.451 10.4453V10.1172C202.451 9.42969 202.553 8.81771 202.756 8.28125C202.959 7.73958 203.235 7.28125 203.584 6.90625C203.933 6.53125 204.329 6.2474 204.772 6.05469C205.214 5.86198 205.673 5.76562 206.147 5.76562C206.751 5.76562 207.272 5.86979 207.709 6.07812C208.152 6.28646 208.514 6.57812 208.795 6.95312C209.076 7.32292 209.285 7.76042 209.42 8.26562C209.555 8.76562 209.623 9.3125 209.623 9.90625V10.5547H203.311V9.375H208.178V9.26562C208.157 8.89062 208.079 8.52604 207.943 8.17188C207.813 7.81771 207.605 7.52604 207.318 7.29688C207.032 7.06771 206.641 6.95312 206.147 6.95312C205.818 6.95312 205.516 7.02344 205.24 7.16406C204.964 7.29948 204.727 7.5026 204.529 7.77344C204.332 8.04427 204.178 8.375 204.068 8.76562C203.959 9.15625 203.904 9.60677 203.904 10.1172V10.4453C203.904 10.8464 203.959 11.224 204.068 11.5781C204.183 11.9271 204.347 12.2344 204.561 12.5C204.779 12.7656 205.042 12.974 205.35 13.125C205.662 13.276 206.016 13.3516 206.412 13.3516C206.923 13.3516 207.355 13.2474 207.709 13.0391C208.063 12.8307 208.373 12.5521 208.639 12.2031L209.514 12.8984C209.332 13.1745 209.1 13.4375 208.818 13.6875C208.537 13.9375 208.191 14.1406 207.779 14.2969C207.373 14.4531 206.891 14.5312 206.334 14.5312Z" fill="#222222"/>
<path d="M216.233 12.1328C216.233 11.9245 216.186 11.7318 216.092 11.5547C216.003 11.3724 215.818 11.2083 215.537 11.0625C215.261 10.9115 214.845 10.7812 214.287 10.6719C213.818 10.5729 213.394 10.4557 213.014 10.3203C212.639 10.1849 212.318 10.0208 212.053 9.82812C211.792 9.63542 211.592 9.40885 211.451 9.14844C211.311 8.88802 211.24 8.58333 211.24 8.23438C211.24 7.90104 211.313 7.58594 211.459 7.28906C211.61 6.99219 211.821 6.72917 212.092 6.5C212.368 6.27083 212.699 6.09115 213.084 5.96094C213.47 5.83073 213.899 5.76562 214.373 5.76562C215.05 5.76562 215.628 5.88542 216.108 6.125C216.587 6.36458 216.954 6.6849 217.209 7.08594C217.464 7.48177 217.592 7.92188 217.592 8.40625H216.147C216.147 8.17188 216.076 7.94531 215.936 7.72656C215.8 7.5026 215.6 7.31771 215.334 7.17188C215.074 7.02604 214.753 6.95312 214.373 6.95312C213.972 6.95312 213.647 7.01562 213.397 7.14062C213.152 7.26042 212.972 7.41406 212.858 7.60156C212.748 7.78906 212.693 7.98698 212.693 8.19531C212.693 8.35156 212.72 8.49219 212.772 8.61719C212.829 8.73698 212.928 8.84896 213.068 8.95312C213.209 9.05208 213.407 9.14583 213.662 9.23438C213.917 9.32292 214.243 9.41146 214.639 9.5C215.332 9.65625 215.902 9.84375 216.35 10.0625C216.798 10.2812 217.131 10.5495 217.35 10.8672C217.568 11.1849 217.678 11.5703 217.678 12.0234C217.678 12.3932 217.6 12.7318 217.443 13.0391C217.292 13.3464 217.071 13.612 216.779 13.8359C216.493 14.0547 216.149 14.2266 215.748 14.3516C215.352 14.4714 214.907 14.5312 214.412 14.5312C213.667 14.5312 213.037 14.3984 212.522 14.1328C212.006 13.8672 211.615 13.5234 211.35 13.1016C211.084 12.6797 210.951 12.2344 210.951 11.7656H212.404C212.425 12.1615 212.54 12.4766 212.748 12.7109C212.957 12.9401 213.212 13.1042 213.514 13.2031C213.816 13.2969 214.115 13.3438 214.412 13.3438C214.808 13.3438 215.139 13.2917 215.404 13.1875C215.675 13.0833 215.881 12.9401 216.022 12.7578C216.162 12.5755 216.233 12.3672 216.233 12.1328Z" fill="#222222"/>
</svg>
