<svg width="151" height="24" viewBox="0 0 151 24" fill="none" xmlns="http://www.w3.org/2000/svg">
<path d="M15.4559 5.06329L9.76711 3.35704L12.5796 1.95079C12.7573 1.86128 12.8921 1.70487 12.9544 1.51595C13.0167 1.32704 13.0015 1.1211 12.912 0.943449C12.8224 0.765795 12.666 0.630976 12.4771 0.56865C12.2882 0.506323 12.0823 0.521595 11.9046 0.611105L7.55273 2.78611C5.59691 2.83692 3.73818 3.64924 2.37236 5.05009C1.00654 6.45093 0.241529 8.32962 0.240234 10.2861V20.0314C0.240234 20.2303 0.319252 20.4211 0.459904 20.5617C0.600557 20.7024 0.791322 20.7814 0.990234 20.7814C1.18915 20.7814 1.37991 20.7024 1.52056 20.5617C1.66122 20.4211 1.74023 20.2303 1.74023 20.0314V17.0314H3.24023V22.2814C3.24023 22.6792 3.39827 23.0608 3.67957 23.3421C3.96088 23.6234 4.34241 23.7814 4.74023 23.7814H10.7402C11.1381 23.7814 11.5196 23.6234 11.8009 23.3421C12.0822 23.0608 12.2402 22.6792 12.2402 22.2814V10.2814C12.2387 9.21847 11.8616 8.19027 11.1754 7.37849C10.4892 6.56671 9.5381 6.02361 8.49023 5.84517V4.53923L15.0246 6.49954C15.1196 6.5305 15.2199 6.54215 15.3195 6.5338C15.4191 6.52545 15.5161 6.49728 15.6046 6.45093C15.6932 6.40459 15.7716 6.34101 15.8352 6.26393C15.8989 6.18685 15.9465 6.09783 15.9752 6.0021C16.004 5.90637 16.0133 5.80586 16.0026 5.70647C15.992 5.60709 15.9615 5.51083 15.9132 5.42337C15.8648 5.33591 15.7994 5.259 15.7209 5.19716C15.6423 5.13532 15.5522 5.08981 15.4559 5.06329ZM1.74023 15.5314V10.2814C1.74205 8.8207 2.2761 7.4107 3.24243 6.31529C4.20876 5.21989 5.54115 4.51415 6.99023 4.33017V5.84517C5.94237 6.02361 4.99131 6.56671 4.30511 7.37849C3.61891 8.19027 3.24173 9.21847 3.24023 10.2814V15.5314H1.74023ZM10.7402 22.2814H4.74023V17.0314H10.7402V22.2814ZM10.7402 10.2814V15.5314H4.74023V10.2814C4.74023 9.48577 5.0563 8.72271 5.61891 8.1601C6.18152 7.59749 6.94458 7.28142 7.74023 7.28142C8.53588 7.28142 9.29895 7.59749 9.86155 8.1601C10.4242 8.72271 10.7402 9.48577 10.7402 10.2814Z" fill="black"/>
<path d="M35.835 5.78115V17.1562H34.3272V5.78115H35.835ZM40.6006 10.8983V12.1327H35.5069V10.8983H40.6006ZM41.3741 5.78115V7.01553H35.5069V5.78115H41.3741Z" fill="#222222"/>
<path d="M44.5225 8.70303V17.1562H43.0694V8.70303H44.5225ZM42.96 6.46084C42.96 6.22646 43.0303 6.02855 43.171 5.86709C43.3168 5.70563 43.5303 5.6249 43.8116 5.6249C44.0876 5.6249 44.2986 5.70563 44.4444 5.86709C44.5954 6.02855 44.671 6.22646 44.671 6.46084C44.671 6.6848 44.5954 6.8775 44.4444 7.03896C44.2986 7.19521 44.0876 7.27334 43.8116 7.27334C43.5303 7.27334 43.3168 7.19521 43.171 7.03896C43.0303 6.8775 42.96 6.6848 42.96 6.46084Z" fill="#222222"/>
<path d="M48.2881 10.0312V17.1562H46.8428V8.70303H48.2491L48.2881 10.0312ZM50.9288 8.65615L50.921 9.9999C50.8012 9.97386 50.6866 9.95823 50.5772 9.95303C50.473 9.94261 50.3532 9.9374 50.2178 9.9374C49.8845 9.9374 49.5902 9.98948 49.335 10.0937C49.0798 10.1978 48.8637 10.3437 48.6866 10.5312C48.5095 10.7187 48.3689 10.9426 48.2647 11.203C48.1657 11.4582 48.1006 11.7395 48.0694 12.0468L47.6631 12.2812C47.6631 11.7707 47.7126 11.2916 47.8116 10.8437C47.9157 10.3957 48.0746 9.9999 48.2881 9.65615C48.5017 9.30719 48.7725 9.03636 49.1006 8.84365C49.434 8.64573 49.8298 8.54678 50.2881 8.54678C50.3923 8.54678 50.5121 8.5598 50.6475 8.58584C50.7829 8.60667 50.8767 8.63011 50.9288 8.65615Z" fill="#222222"/>
<path d="M55.6163 17.3124C55.0277 17.3124 54.4939 17.2134 54.0147 17.0155C53.5407 16.8124 53.1319 16.5285 52.7881 16.164C52.4496 15.7994 52.1892 15.3671 52.0069 14.8671C51.8246 14.3671 51.7335 13.8202 51.7335 13.2265V12.8983C51.7335 12.2108 51.835 11.5989 52.0381 11.0624C52.2413 10.5207 52.5173 10.0624 52.8663 9.6874C53.2152 9.3124 53.6111 9.02855 54.0538 8.83584C54.4965 8.64313 54.9548 8.54678 55.4288 8.54678C56.0329 8.54678 56.5538 8.65094 56.9913 8.85928C57.434 9.06761 57.796 9.35928 58.0772 9.73428C58.3585 10.1041 58.5668 10.5416 58.7022 11.0468C58.8376 11.5468 58.9053 12.0937 58.9053 12.6874V13.3358H52.5928V12.1562H57.46V12.0468C57.4392 11.6718 57.3611 11.3072 57.2256 10.953C57.0954 10.5989 56.8871 10.3072 56.6006 10.078C56.3142 9.84886 55.9236 9.73428 55.4288 9.73428C55.1006 9.73428 54.7986 9.80459 54.5225 9.94521C54.2465 10.0806 54.0095 10.2838 53.8116 10.5546C53.6137 10.8254 53.46 11.1562 53.3506 11.5468C53.2413 11.9374 53.1866 12.3879 53.1866 12.8983V13.2265C53.1866 13.6275 53.2413 14.0051 53.3506 14.3593C53.4652 14.7082 53.6293 15.0155 53.8428 15.2812C54.0616 15.5468 54.3246 15.7551 54.6319 15.9062C54.9444 16.0572 55.2986 16.1327 55.6944 16.1327C56.2048 16.1327 56.6371 16.0285 56.9913 15.8202C57.3454 15.6119 57.6553 15.3332 57.921 14.9843L58.796 15.6796C58.6137 15.9556 58.3819 16.2187 58.1006 16.4687C57.8194 16.7187 57.473 16.9218 57.0616 17.078C56.6553 17.2343 56.1736 17.3124 55.6163 17.3124Z" fill="#222222"/>
<path d="M68.0694 17.3124C67.4808 17.3124 66.947 17.2134 66.4678 17.0155C65.9939 16.8124 65.585 16.5285 65.2413 16.164C64.9027 15.7994 64.6423 15.3671 64.46 14.8671C64.2777 14.3671 64.1866 13.8202 64.1866 13.2265V12.8983C64.1866 12.2108 64.2881 11.5989 64.4913 11.0624C64.6944 10.5207 64.9704 10.0624 65.3194 9.6874C65.6683 9.3124 66.0642 9.02855 66.5069 8.83584C66.9496 8.64313 67.4079 8.54678 67.8819 8.54678C68.4861 8.54678 69.0069 8.65094 69.4444 8.85928C69.8871 9.06761 70.2491 9.35928 70.5303 9.73428C70.8116 10.1041 71.0199 10.5416 71.1553 11.0468C71.2907 11.5468 71.3585 12.0937 71.3585 12.6874V13.3358H65.046V12.1562H69.9131V12.0468C69.8923 11.6718 69.8142 11.3072 69.6788 10.953C69.5486 10.5989 69.3402 10.3072 69.0538 10.078C68.7673 9.84886 68.3767 9.73428 67.8819 9.73428C67.5538 9.73428 67.2517 9.80459 66.9756 9.94521C66.6996 10.0806 66.4626 10.2838 66.2647 10.5546C66.0668 10.8254 65.9131 11.1562 65.8038 11.5468C65.6944 11.9374 65.6397 12.3879 65.6397 12.8983V13.2265C65.6397 13.6275 65.6944 14.0051 65.8038 14.3593C65.9183 14.7082 66.0824 15.0155 66.296 15.2812C66.5147 15.5468 66.7777 15.7551 67.085 15.9062C67.3975 16.0572 67.7517 16.1327 68.1475 16.1327C68.6579 16.1327 69.0902 16.0285 69.4444 15.8202C69.7986 15.6119 70.1085 15.3332 70.3741 14.9843L71.2491 15.6796C71.0668 15.9556 70.835 16.2187 70.5538 16.4687C70.2725 16.7187 69.9262 16.9218 69.5147 17.078C69.1085 17.2343 68.6267 17.3124 68.0694 17.3124Z" fill="#222222"/>
<path d="M74.0225 8.70303L75.8741 11.7812L77.7491 8.70303H79.4444L76.6788 12.8749L79.5303 17.1562H77.8585L75.9053 13.9843L73.9522 17.1562H72.2725L75.1163 12.8749L72.3585 8.70303H74.0225Z" fill="#222222"/>
<path d="M84.5225 8.70303V9.8124H79.9522V8.70303H84.5225ZM81.4991 6.64834H82.9444V15.0624C82.9444 15.3489 82.9887 15.565 83.0772 15.7108C83.1657 15.8567 83.2803 15.953 83.421 15.9999C83.5616 16.0468 83.7126 16.0702 83.8741 16.0702C83.9939 16.0702 84.1189 16.0598 84.2491 16.039C84.3845 16.0129 84.4861 15.9921 84.5538 15.9765L84.5616 17.1562C84.447 17.1926 84.296 17.2265 84.1085 17.2577C83.9262 17.2942 83.7048 17.3124 83.4444 17.3124C83.0902 17.3124 82.7647 17.2421 82.4678 17.1015C82.171 16.9608 81.934 16.7265 81.7569 16.3983C81.585 16.065 81.4991 15.6171 81.4991 15.0546V6.64834Z" fill="#222222"/>
<path d="M87.7881 8.70303V17.1562H86.335V8.70303H87.7881ZM86.2256 6.46084C86.2256 6.22646 86.296 6.02855 86.4366 5.86709C86.5824 5.70563 86.796 5.6249 87.0772 5.6249C87.3532 5.6249 87.5642 5.70563 87.71 5.86709C87.8611 6.02855 87.9366 6.22646 87.9366 6.46084C87.9366 6.6848 87.8611 6.8775 87.71 7.03896C87.5642 7.19521 87.3532 7.27334 87.0772 7.27334C86.796 7.27334 86.5824 7.19521 86.4366 7.03896C86.296 6.8775 86.2256 6.6848 86.2256 6.46084Z" fill="#222222"/>
<path d="M91.5538 10.5077V17.1562H90.1085V8.70303H91.4756L91.5538 10.5077ZM91.21 12.6093L90.6085 12.5858C90.6137 12.0077 90.6996 11.4739 90.8663 10.9843C91.0329 10.4895 91.2673 10.0598 91.5694 9.69521C91.8715 9.33063 92.2308 9.04938 92.6475 8.85146C93.0694 8.64834 93.5355 8.54678 94.046 8.54678C94.4626 8.54678 94.8376 8.60407 95.171 8.71865C95.5043 8.82803 95.7881 9.00511 96.0225 9.2499C96.2621 9.49469 96.4444 9.8124 96.5694 10.203C96.6944 10.5884 96.7569 11.0598 96.7569 11.6171V17.1562H95.3038V11.6015C95.3038 11.1588 95.2387 10.8046 95.1085 10.539C94.9782 10.2681 94.7881 10.0728 94.5381 9.95303C94.2881 9.82803 93.9808 9.76553 93.6163 9.76553C93.2569 9.76553 92.9288 9.84105 92.6319 9.99209C92.3402 10.1431 92.0876 10.3515 91.8741 10.6171C91.6657 10.8827 91.5017 11.1874 91.3819 11.5312C91.2673 11.8697 91.21 12.2291 91.21 12.6093Z" fill="#222222"/>
<path d="M104.429 8.70303H105.741V16.9765C105.741 17.7213 105.59 18.3567 105.288 18.8827C104.986 19.4088 104.564 19.8072 104.023 20.078C103.486 20.3541 102.866 20.4921 102.163 20.4921C101.871 20.4921 101.528 20.4452 101.132 20.3515C100.741 20.2629 100.356 20.1093 99.9756 19.8905C99.6006 19.677 99.2855 19.3879 99.0303 19.0233L99.7881 18.164C100.142 18.591 100.512 18.8879 100.898 19.0546C101.288 19.2213 101.674 19.3046 102.054 19.3046C102.512 19.3046 102.908 19.2187 103.241 19.0468C103.575 18.8749 103.832 18.6197 104.015 18.2812C104.202 17.9478 104.296 17.5364 104.296 17.0468V10.5624L104.429 8.70303ZM98.6085 13.0233V12.8593C98.6085 12.2134 98.684 11.6275 98.835 11.1015C98.9913 10.5702 99.2126 10.1145 99.4991 9.73428C99.7907 9.35407 100.142 9.0624 100.554 8.85928C100.965 8.65094 101.429 8.54678 101.944 8.54678C102.476 8.54678 102.939 8.64053 103.335 8.82803C103.736 9.01032 104.075 9.27855 104.351 9.63271C104.632 9.98167 104.853 10.4035 105.015 10.8983C105.176 11.3931 105.288 11.953 105.351 12.578V13.2968C105.293 13.9166 105.181 14.4739 105.015 14.9687C104.853 15.4634 104.632 15.8853 104.351 16.2343C104.075 16.5832 103.736 16.8515 103.335 17.039C102.934 17.2213 102.465 17.3124 101.929 17.3124C101.424 17.3124 100.965 17.2056 100.554 16.9921C100.148 16.7785 99.7986 16.4791 99.5069 16.0937C99.2152 15.7082 98.9913 15.2551 98.835 14.7343C98.684 14.2082 98.6085 13.6379 98.6085 13.0233ZM100.054 12.8593V13.0233C100.054 13.4452 100.095 13.841 100.179 14.2108C100.267 14.5806 100.4 14.9062 100.577 15.1874C100.759 15.4687 100.991 15.69 101.273 15.8515C101.554 16.0077 101.89 16.0858 102.28 16.0858C102.759 16.0858 103.155 15.9843 103.468 15.7812C103.78 15.578 104.028 15.3098 104.21 14.9765C104.398 14.6431 104.543 14.2812 104.648 13.8905V12.0077C104.59 11.7213 104.502 11.4452 104.382 11.1796C104.267 10.9088 104.116 10.6692 103.929 10.4608C103.746 10.2473 103.52 10.078 103.249 9.95303C102.978 9.82803 102.661 9.76553 102.296 9.76553C101.9 9.76553 101.559 9.84886 101.273 10.0155C100.991 10.177 100.759 10.4009 100.577 10.6874C100.4 10.9687 100.267 11.2968 100.179 11.6718C100.095 12.0416 100.054 12.4374 100.054 12.8593Z" fill="#222222"/>
<path d="M113.108 15.203V8.70303H114.562V17.1562H113.179L113.108 15.203ZM113.382 13.4218L113.983 13.4062C113.983 13.9687 113.924 14.4895 113.804 14.9687C113.689 15.4426 113.502 15.8541 113.241 16.203C112.981 16.552 112.64 16.8254 112.218 17.0233C111.796 17.216 111.283 17.3124 110.679 17.3124C110.267 17.3124 109.89 17.2525 109.546 17.1327C109.207 17.0129 108.916 16.828 108.671 16.578C108.426 16.328 108.236 16.0025 108.101 15.6015C107.97 15.2004 107.905 14.7187 107.905 14.1562V8.70303H109.351V14.1718C109.351 14.552 109.392 14.8671 109.476 15.1171C109.564 15.3619 109.681 15.5572 109.827 15.703C109.978 15.8437 110.145 15.9426 110.327 15.9999C110.515 16.0572 110.707 16.0858 110.905 16.0858C111.52 16.0858 112.007 15.9687 112.366 15.7343C112.726 15.4947 112.983 15.1744 113.14 14.7733C113.301 14.3671 113.382 13.9166 113.382 13.4218Z" fill="#222222"/>
<path d="M118.335 8.70303V17.1562H116.882V8.70303H118.335ZM116.773 6.46084C116.773 6.22646 116.843 6.02855 116.983 5.86709C117.129 5.70563 117.343 5.6249 117.624 5.6249C117.9 5.6249 118.111 5.70563 118.257 5.86709C118.408 6.02855 118.483 6.22646 118.483 6.46084C118.483 6.6848 118.408 6.8775 118.257 7.03896C118.111 7.19521 117.9 7.27334 117.624 7.27334C117.343 7.27334 117.129 7.19521 116.983 7.03896C116.843 6.8775 116.773 6.6848 116.773 6.46084Z" fill="#222222"/>
<path d="M125.577 14.914C125.577 14.7056 125.53 14.5129 125.437 14.3358C125.348 14.1535 125.163 13.9895 124.882 13.8437C124.606 13.6926 124.189 13.5624 123.632 13.453C123.163 13.3541 122.739 13.2369 122.358 13.1015C121.983 12.966 121.663 12.802 121.398 12.6093C121.137 12.4166 120.937 12.19 120.796 11.9296C120.655 11.6692 120.585 11.3645 120.585 11.0155C120.585 10.6822 120.658 10.3671 120.804 10.0702C120.955 9.77334 121.166 9.51032 121.437 9.28115C121.713 9.05198 122.043 8.8723 122.429 8.74209C122.814 8.61188 123.244 8.54678 123.718 8.54678C124.395 8.54678 124.973 8.66657 125.452 8.90615C125.931 9.14573 126.299 9.46605 126.554 9.86709C126.809 10.2629 126.937 10.703 126.937 11.1874H125.491C125.491 10.953 125.421 10.7265 125.28 10.5077C125.145 10.2838 124.944 10.0989 124.679 9.95303C124.418 9.80719 124.098 9.73428 123.718 9.73428C123.317 9.73428 122.991 9.79678 122.741 9.92178C122.496 10.0416 122.317 10.1952 122.202 10.3827C122.093 10.5702 122.038 10.7681 122.038 10.9765C122.038 11.1327 122.064 11.2733 122.116 11.3983C122.174 11.5181 122.273 11.6301 122.413 11.7343C122.554 11.8332 122.752 11.927 123.007 12.0155C123.262 12.1041 123.588 12.1926 123.983 12.2812C124.676 12.4374 125.246 12.6249 125.694 12.8437C126.142 13.0624 126.476 13.3306 126.694 13.6483C126.913 13.966 127.023 14.3515 127.023 14.8046C127.023 15.1744 126.944 15.5129 126.788 15.8202C126.637 16.1275 126.416 16.3931 126.124 16.6171C125.838 16.8358 125.494 17.0077 125.093 17.1327C124.697 17.2525 124.252 17.3124 123.757 17.3124C123.012 17.3124 122.382 17.1796 121.866 16.914C121.351 16.6483 120.96 16.3046 120.694 15.8827C120.429 15.4608 120.296 15.0155 120.296 14.5468H121.749C121.77 14.9426 121.884 15.2577 122.093 15.4921C122.301 15.7213 122.556 15.8853 122.858 15.9843C123.161 16.078 123.46 16.1249 123.757 16.1249C124.153 16.1249 124.483 16.0728 124.749 15.9687C125.02 15.8645 125.226 15.7213 125.366 15.539C125.507 15.3567 125.577 15.1483 125.577 14.914Z" fill="#222222"/>
<path d="M130.366 5.15615V17.1562H128.921V5.15615H130.366ZM130.023 12.6093L129.421 12.5858C129.426 12.0077 129.512 11.4739 129.679 10.9843C129.845 10.4895 130.08 10.0598 130.382 9.69521C130.684 9.33063 131.043 9.04938 131.46 8.85146C131.882 8.64834 132.348 8.54678 132.858 8.54678C133.275 8.54678 133.65 8.60407 133.983 8.71865C134.317 8.82803 134.601 9.00511 134.835 9.2499C135.075 9.49469 135.257 9.8124 135.382 10.203C135.507 10.5884 135.569 11.0598 135.569 11.6171V17.1562H134.116V11.6015C134.116 11.1588 134.051 10.8046 133.921 10.539C133.791 10.2681 133.601 10.0728 133.351 9.95303C133.101 9.82803 132.793 9.76553 132.429 9.76553C132.069 9.76553 131.741 9.84105 131.444 9.99209C131.153 10.1431 130.9 10.3515 130.687 10.6171C130.478 10.8827 130.314 11.1874 130.194 11.5312C130.08 11.8697 130.023 12.2291 130.023 12.6093Z" fill="#222222"/>
<path d="M141.241 17.3124C140.653 17.3124 140.119 17.2134 139.64 17.0155C139.166 16.8124 138.757 16.5285 138.413 16.164C138.075 15.7994 137.814 15.3671 137.632 14.8671C137.45 14.3671 137.358 13.8202 137.358 13.2265V12.8983C137.358 12.2108 137.46 11.5989 137.663 11.0624C137.866 10.5207 138.142 10.0624 138.491 9.6874C138.84 9.3124 139.236 9.02855 139.679 8.83584C140.121 8.64313 140.58 8.54678 141.054 8.54678C141.658 8.54678 142.179 8.65094 142.616 8.85928C143.059 9.06761 143.421 9.35928 143.702 9.73428C143.983 10.1041 144.192 10.5416 144.327 11.0468C144.463 11.5468 144.53 12.0937 144.53 12.6874V13.3358H138.218V12.1562H143.085V12.0468C143.064 11.6718 142.986 11.3072 142.851 10.953C142.72 10.5989 142.512 10.3072 142.226 10.078C141.939 9.84886 141.549 9.73428 141.054 9.73428C140.726 9.73428 140.424 9.80459 140.148 9.94521C139.871 10.0806 139.635 10.2838 139.437 10.5546C139.239 10.8254 139.085 11.1562 138.976 11.5468C138.866 11.9374 138.812 12.3879 138.812 12.8983V13.2265C138.812 13.6275 138.866 14.0051 138.976 14.3593C139.09 14.7082 139.254 15.0155 139.468 15.2812C139.687 15.5468 139.95 15.7551 140.257 15.9062C140.569 16.0572 140.924 16.1327 141.319 16.1327C141.83 16.1327 142.262 16.0285 142.616 15.8202C142.97 15.6119 143.28 15.3332 143.546 14.9843L144.421 15.6796C144.239 15.9556 144.007 16.2187 143.726 16.4687C143.444 16.7187 143.098 16.9218 142.687 17.078C142.28 17.2343 141.799 17.3124 141.241 17.3124Z" fill="#222222"/>
<path d="M147.663 10.0312V17.1562H146.218V8.70303H147.624L147.663 10.0312ZM150.304 8.65615L150.296 9.9999C150.176 9.97386 150.062 9.95823 149.952 9.95303C149.848 9.94261 149.728 9.9374 149.593 9.9374C149.26 9.9374 148.965 9.98948 148.71 10.0937C148.455 10.1978 148.239 10.3437 148.062 10.5312C147.885 10.7187 147.744 10.9426 147.64 11.203C147.541 11.4582 147.476 11.7395 147.444 12.0468L147.038 12.2812C147.038 11.7707 147.088 11.2916 147.187 10.8437C147.291 10.3957 147.45 9.9999 147.663 9.65615C147.877 9.30719 148.148 9.03636 148.476 8.84365C148.809 8.64573 149.205 8.54678 149.663 8.54678C149.767 8.54678 149.887 8.5598 150.023 8.58584C150.158 8.60667 150.252 8.63011 150.304 8.65615Z" fill="#222222"/>
</svg>
