<svg width="77" height="22" viewBox="0 0 77 22" fill="none" xmlns="http://www.w3.org/2000/svg">
<path d="M18.3329 0.875C18.8737 0.876885 19.3957 1.0735 19.8034 1.42885C20.2111 1.7842 20.4771 2.27451 20.5529 2.81C20.9279 5.48 21.1154 8.3375 21.1154 11.375C21.1154 14.4125 20.9279 17.27 20.5529 19.94C20.4795 20.4532 20.2312 20.9252 19.8499 21.2764C19.4686 21.6276 18.9778 21.8364 18.4604 21.8675L18.3329 21.875H2.89036C2.34954 21.8731 1.8275 21.6765 1.41981 21.3211C1.01212 20.9658 0.746068 20.4755 0.670356 19.94C0.302856 17.27 0.115356 14.4125 0.115356 11.375C0.115356 8.3375 0.302856 5.48 0.677856 2.81C0.751225 2.29684 0.999532 1.82476 1.3808 1.47356C1.76207 1.12235 2.25291 0.913568 2.77036 0.8825L2.89036 0.875H18.3329ZM18.3329 2.375H2.90536C2.72337 2.37321 2.54693 2.43765 2.40895 2.55632C2.27096 2.675 2.18083 2.83979 2.15536 3.02C1.78248 5.78917 1.60204 8.58087 1.61536 11.375C1.61536 14.345 1.79536 17.1275 2.16286 19.73C2.18641 19.8932 2.26309 20.0441 2.38104 20.1594C2.49899 20.2746 2.65164 20.3478 2.81536 20.3675L2.89786 20.375H18.3254C18.5073 20.3768 18.6838 20.3123 18.8218 20.1937C18.9598 20.075 19.0499 19.9102 19.0754 19.73C19.4354 17.1275 19.6154 14.345 19.6154 11.375C19.6154 8.405 19.4354 5.6225 19.0679 3.02C19.0443 2.85679 18.9676 2.70588 18.8497 2.59064C18.7317 2.4754 18.5791 2.40225 18.4154 2.3825L18.3329 2.375ZM10.6154 4.625C12.4056 4.625 14.1225 5.33616 15.3883 6.60203C16.6542 7.8679 17.3654 9.58479 17.3654 11.375C17.3654 13.1652 16.6542 14.8821 15.3883 16.148C14.1225 17.4138 12.4056 18.125 10.6154 18.125C8.82514 18.125 7.10826 17.4138 5.84239 16.148C4.57652 14.8821 3.86536 13.1652 3.86536 11.375C3.86536 9.58479 4.57652 7.8679 5.84239 6.60203C7.10826 5.33616 8.82514 4.625 10.6154 4.625ZM10.6154 6.125C9.22297 6.125 7.88761 6.67812 6.90305 7.66269C5.91848 8.64726 5.36536 9.98261 5.36536 11.375C5.36536 12.7674 5.91848 14.1027 6.90305 15.0873C7.88761 16.0719 9.22297 16.625 10.6154 16.625C12.0077 16.625 13.3431 16.0719 14.3277 15.0873C15.3122 14.1027 15.8654 12.7674 15.8654 11.375C15.8654 9.98261 15.3122 8.64726 14.3277 7.66269C13.3431 6.67812 12.0077 6.125 10.6154 6.125ZM7.01536 10.31C8.03536 10.46 8.99536 10.91 9.77536 11.6225L10.1204 11.96C11.0833 12.8566 12.288 13.4511 13.5854 13.67C13.1907 14.1802 12.6716 14.5805 12.0779 14.8325C10.8737 14.4254 9.7802 13.7452 8.88286 12.845C8.34047 12.3026 7.64366 11.9411 6.88786 11.81C6.82137 11.3067 6.86487 10.7949 7.01536 10.31ZM9.33286 7.85C10.3379 8.2625 11.2679 8.87 12.0629 9.665C12.6665 10.2728 13.461 10.6542 14.3129 10.745C14.3968 11.2434 14.379 11.7537 14.2604 12.245C13.1121 12.1471 12.0285 11.6725 11.1779 10.895L10.8254 10.5575C9.96732 9.75792 8.91495 9.19683 7.77286 8.93C8.19168 8.44223 8.72887 8.07032 9.33286 7.85ZM3.86536 3.875C4.06427 3.875 4.25503 3.95402 4.39569 4.09467C4.53634 4.23532 4.61536 4.42609 4.61536 4.625C4.61536 4.82391 4.53634 5.01468 4.39569 5.15533C4.25503 5.29598 4.06427 5.375 3.86536 5.375C3.66644 5.375 3.47568 5.29598 3.33503 5.15533C3.19437 5.01468 3.11536 4.82391 3.11536 4.625C3.11536 4.42609 3.19437 4.23532 3.33503 4.09467C3.47568 3.95402 3.66644 3.875 3.86536 3.875Z" fill="#222222"/>
<path d="M43.5138 16.375H41.1388L41.1544 15.1484H43.5138C44.3263 15.1484 45.0034 14.9792 45.545 14.6406C46.0867 14.2969 46.493 13.8177 46.7638 13.2031C47.0398 12.5833 47.1779 11.8594 47.1779 11.0312V10.3359C47.1779 9.6849 47.0997 9.10677 46.9435 8.60156C46.7872 8.09115 46.5581 7.66146 46.256 7.3125C45.9539 6.95833 45.5841 6.6901 45.1466 6.50781C44.7143 6.32552 44.2169 6.23438 43.6544 6.23438H41.0919V5H43.6544C44.3992 5 45.0789 5.125 45.6935 5.375C46.3081 5.61979 46.8367 5.97656 47.2794 6.44531C47.7273 6.90885 48.0711 7.47135 48.3107 8.13281C48.5503 8.78906 48.67 9.52865 48.67 10.3516V11.0312C48.67 11.8542 48.5503 12.5964 48.3107 13.2578C48.0711 13.9141 47.7247 14.474 47.2716 14.9375C46.8237 15.401 46.282 15.7578 45.6466 16.0078C45.0164 16.2526 44.3055 16.375 43.5138 16.375ZM41.9435 5V16.375H40.4357V5H41.9435Z" fill="#222222"/>
<path d="M52.1622 9.25V16.375H50.7169V7.92188H52.1232L52.1622 9.25ZM54.8029 7.875L54.795 9.21875C54.6753 9.19271 54.5607 9.17708 54.4513 9.17188C54.3471 9.16146 54.2273 9.15625 54.0919 9.15625C53.7586 9.15625 53.4643 9.20833 53.2091 9.3125C52.9539 9.41667 52.7378 9.5625 52.5607 9.75C52.3836 9.9375 52.243 10.1615 52.1388 10.4219C52.0398 10.6771 51.9747 10.9583 51.9435 11.2656L51.5372 11.5C51.5372 10.9896 51.5867 10.5104 51.6857 10.0625C51.7898 9.61458 51.9487 9.21875 52.1622 8.875C52.3758 8.52604 52.6466 8.25521 52.9747 8.0625C53.3081 7.86458 53.7039 7.76562 54.1622 7.76562C54.2664 7.76562 54.3862 7.77865 54.5216 7.80469C54.657 7.82552 54.7508 7.84896 54.8029 7.875Z" fill="#222222"/>
<path d="M58.6544 15.5L61.006 7.92188H62.5529L59.1622 17.6797C59.0841 17.888 58.9799 18.112 58.8497 18.3516C58.7247 18.5964 58.5633 18.8281 58.3654 19.0469C58.1674 19.2656 57.9279 19.4427 57.6466 19.5781C57.3706 19.7188 57.0398 19.7891 56.6544 19.7891C56.5398 19.7891 56.394 19.7734 56.2169 19.7422C56.0398 19.7109 55.9148 19.6849 55.8419 19.6641L55.8341 18.4922C55.8758 18.4974 55.9409 18.5026 56.0294 18.5078C56.1232 18.5182 56.1883 18.5234 56.2247 18.5234C56.5529 18.5234 56.8315 18.4792 57.0607 18.3906C57.2898 18.3073 57.4825 18.1641 57.6388 17.9609C57.8003 17.763 57.9383 17.4896 58.0529 17.1406L58.6544 15.5ZM56.9279 7.92188L59.1232 14.4844L59.4982 16.0078L58.4591 16.5391L55.3497 7.92188H56.9279Z" fill="#222222"/>
<path d="M67.256 16.5312C66.6674 16.5312 66.1336 16.4323 65.6544 16.2344C65.1805 16.0312 64.7716 15.7474 64.4279 15.3828C64.0893 15.0182 63.8289 14.5859 63.6466 14.0859C63.4643 13.5859 63.3732 13.0391 63.3732 12.4453V12.1172C63.3732 11.4297 63.4747 10.8177 63.6779 10.2812C63.881 9.73958 64.157 9.28125 64.506 8.90625C64.8549 8.53125 65.2508 8.2474 65.6935 8.05469C66.1362 7.86198 66.5945 7.76562 67.0685 7.76562C67.6726 7.76562 68.1935 7.86979 68.631 8.07812C69.0737 8.28646 69.4357 8.57812 69.7169 8.95312C69.9982 9.32292 70.2065 9.76042 70.3419 10.2656C70.4773 10.7656 70.545 11.3125 70.545 11.9062V12.5547H64.2325V11.375H69.0997V11.2656C69.0789 10.8906 69.0008 10.526 68.8654 10.1719C68.7351 9.81771 68.5268 9.52604 68.2404 9.29688C67.9539 9.06771 67.5633 8.95312 67.0685 8.95312C66.7404 8.95312 66.4383 9.02344 66.1622 9.16406C65.8862 9.29948 65.6492 9.5026 65.4513 9.77344C65.2534 10.0443 65.0997 10.375 64.9904 10.7656C64.881 11.1562 64.8263 11.6068 64.8263 12.1172V12.4453C64.8263 12.8464 64.881 13.224 64.9904 13.5781C65.1049 13.9271 65.269 14.2344 65.4825 14.5C65.7013 14.7656 65.9643 14.974 66.2716 15.125C66.5841 15.276 66.9383 15.3516 67.3341 15.3516C67.8445 15.3516 68.2768 15.2474 68.631 15.0391C68.9851 14.8307 69.295 14.5521 69.5607 14.2031L70.4357 14.8984C70.2534 15.1745 70.0216 15.4375 69.7404 15.6875C69.4591 15.9375 69.1128 16.1406 68.7013 16.2969C68.295 16.4531 67.8133 16.5312 67.256 16.5312Z" fill="#222222"/>
<path d="M73.6779 9.25V16.375H72.2325V7.92188H73.6388L73.6779 9.25ZM76.3185 7.875L76.3107 9.21875C76.1909 9.19271 76.0763 9.17708 75.9669 9.17188C75.8628 9.16146 75.743 9.15625 75.6075 9.15625C75.2742 9.15625 74.9799 9.20833 74.7247 9.3125C74.4695 9.41667 74.2534 9.5625 74.0763 9.75C73.8992 9.9375 73.7586 10.1615 73.6544 10.4219C73.5555 10.6771 73.4904 10.9583 73.4591 11.2656L73.0529 11.5C73.0529 10.9896 73.1023 10.5104 73.2013 10.0625C73.3055 9.61458 73.4643 9.21875 73.6779 8.875C73.8914 8.52604 74.1622 8.25521 74.4904 8.0625C74.8237 7.86458 75.2195 7.76562 75.6779 7.76562C75.782 7.76562 75.9018 7.77865 76.0372 7.80469C76.1726 7.82552 76.2664 7.84896 76.3185 7.875Z" fill="#222222"/>
</svg>
