<svg width="66" height="18" viewBox="0 0 66 18" fill="none" xmlns="http://www.w3.org/2000/svg">
<path d="M11.82 12.2476C12.55 12.2476 13.2501 12.5376 13.7663 13.0537C14.2825 13.5699 14.5725 14.2701 14.5725 15.0001C14.5725 15.7301 14.2825 16.4302 13.7663 16.9464C13.2501 17.4626 12.55 17.7526 11.82 17.7526C11.09 17.7526 10.3899 17.4626 9.87369 16.9464C9.35749 16.4302 9.0675 15.7301 9.0675 15.0001C9.0675 14.2701 9.35749 13.5699 9.87369 13.0537C10.3899 12.5376 11.09 12.2476 11.82 12.2476ZM11.82 13.7476C11.4878 13.7476 11.1692 13.8795 10.9343 14.1144C10.6995 14.3493 10.5675 14.6679 10.5675 15.0001C10.5675 15.3322 10.6995 15.6508 10.9343 15.8857C11.1692 16.1206 11.4878 16.2526 11.82 16.2526C12.1522 16.2526 12.4708 16.1206 12.7057 15.8857C12.9405 15.6508 13.0725 15.3322 13.0725 15.0001C13.0725 14.6679 12.9405 14.3493 12.7057 14.1144C12.4708 13.8795 12.1522 13.7476 11.82 13.7476ZM11.82 8.25006C13.0711 8.25038 14.2975 8.59841 15.3623 9.25529C16.4271 9.91218 17.2884 10.8521 17.85 11.9701L16.7175 13.1026C16.3356 12.1138 15.6634 11.2637 14.7893 10.6642C13.9151 10.0647 12.88 9.74385 11.82 9.74385C10.76 9.74385 9.72488 10.0647 8.85072 10.6642C7.97657 11.2637 7.30435 12.1138 6.9225 13.1026L5.79 11.9701C6.35161 10.8521 7.21289 9.91218 8.27768 9.25529C9.34248 8.59841 10.5689 8.25038 11.82 8.25006ZM11.82 4.25256C15.555 4.25256 18.8475 6.15756 20.775 9.05256L19.6875 10.1326C18.8589 8.79119 17.7011 7.68394 16.3241 6.91601C14.9471 6.14808 13.3967 5.74497 11.82 5.74497C10.2433 5.74497 8.69287 6.14808 7.31588 6.91601C5.93888 7.68394 4.78109 8.79119 3.9525 10.1326L2.865 9.04506C3.84552 7.56802 5.17644 6.35669 6.73899 5.51914C8.30155 4.68159 10.0471 4.24388 11.82 4.24506V4.25256ZM11.82 0.247559C16.6575 0.247559 20.955 2.57256 23.64 6.17256L22.5675 7.25256C21.3425 5.54613 19.7288 4.1559 17.8599 3.19692C15.991 2.23793 13.9206 1.73775 11.82 1.73775C9.71941 1.73775 7.64901 2.23793 5.78009 3.19692C3.91118 4.1559 2.29748 5.54613 1.0725 7.25256L0 6.18006C2.685 2.58006 6.975 0.255059 11.82 0.255059V0.247559Z" fill="#222222"/>
<path d="M43.9525 10.5625L46.2103 2.625H47.3041L46.6712 5.71094L44.2416 14H43.1556L43.9525 10.5625ZM41.6166 2.625L43.4134 10.4062L43.9525 14H42.8744L40.1166 2.625H41.6166ZM50.2259 10.3984L51.9837 2.625H53.4916L50.7416 14H49.6634L50.2259 10.3984ZM47.4681 2.625L49.6634 10.5625L50.4603 14H49.3744L47.0306 5.71094L46.39 2.625H47.4681Z" fill="#222222"/>
<path d="M56.515 5.54688V14H55.0619V5.54688H56.515ZM54.9525 3.30469C54.9525 3.07031 55.0228 2.8724 55.1634 2.71094C55.3093 2.54948 55.5228 2.46875 55.8041 2.46875C56.0801 2.46875 56.291 2.54948 56.4369 2.71094C56.5879 2.8724 56.6634 3.07031 56.6634 3.30469C56.6634 3.52865 56.5879 3.72135 56.4369 3.88281C56.291 4.03906 56.0801 4.11719 55.8041 4.11719C55.5228 4.11719 55.3093 4.03906 55.1634 3.88281C55.0228 3.72135 54.9525 3.52865 54.9525 3.30469Z" fill="#222222"/>
<path d="M60.765 14H59.3197V4.8125C59.3197 4.17188 59.4447 3.63021 59.6947 3.1875C59.9447 2.74479 60.3015 2.40885 60.765 2.17969C61.2285 1.95052 61.778 1.83594 62.4134 1.83594C62.7884 1.83594 63.1556 1.88281 63.515 1.97656C63.8744 2.0651 64.2442 2.17708 64.6244 2.3125L64.3822 3.53125C64.1426 3.4375 63.864 3.34896 63.5462 3.26562C63.2337 3.17708 62.89 3.13281 62.515 3.13281C61.8952 3.13281 61.4473 3.27344 61.1712 3.55469C60.9004 3.83073 60.765 4.25 60.765 4.8125V14ZM62.4916 5.54688V6.65625H57.9837V5.54688H62.4916ZM65.3353 5.54688V14H63.89V5.54688H65.3353Z" fill="#222222"/>
</svg>
