<svg width="157" height="20" viewBox="0 0 157 20" fill="none" xmlns="http://www.w3.org/2000/svg">
<path d="M8.31716 15.2604C8.31716 15.4703 8.23206 15.6717 8.08059 15.8202C7.92912 15.9686 7.72368 16.052 7.50947 16.052H4.2787C4.06448 16.052 3.85904 15.9686 3.70757 15.8202C3.5561 15.6717 3.471 15.4703 3.471 15.2604C3.471 15.0504 3.5561 14.849 3.70757 14.7006C3.85904 14.5521 4.06448 14.4687 4.2787 14.4687H7.50947C7.72368 14.4687 7.92912 14.5521 8.08059 14.7006C8.23206 14.849 8.31716 15.0504 8.31716 15.2604ZM7.50947 11.302H4.2787C4.06448 11.302 3.85904 11.3854 3.70757 11.5339C3.5561 11.6823 3.471 11.8837 3.471 12.0937C3.471 12.3036 3.5561 12.505 3.70757 12.6535C3.85904 12.8019 4.06448 12.8853 4.2787 12.8853H7.50947C7.72368 12.8853 7.92912 12.8019 8.08059 12.6535C8.23206 12.505 8.31716 12.3036 8.31716 12.0937C8.31716 11.8837 8.23206 11.6823 8.08059 11.5339C7.92912 11.3854 7.72368 11.302 7.50947 11.302ZM7.50947 8.13528H4.2787C4.06448 8.13528 3.85904 8.21869 3.70757 8.36716C3.5561 8.51563 3.471 8.71699 3.471 8.92696C3.471 9.13692 3.5561 9.33829 3.70757 9.48676C3.85904 9.63522 4.06448 9.71863 4.2787 9.71863H7.50947C7.72368 9.71863 7.92912 9.63522 8.08059 9.48676C8.23206 9.33829 8.31716 9.13692 8.31716 8.92696C8.31716 8.71699 8.23206 8.51563 8.08059 8.36716C7.92912 8.21869 7.72368 8.13528 7.50947 8.13528ZM21.2402 6.55193V17.6354C21.2402 18.0553 21.07 18.4581 20.7671 18.755C20.4642 19.0519 20.0533 19.2188 19.6248 19.2188H1.85562C1.42719 19.2188 1.01631 19.0519 0.713369 18.755C0.410426 18.4581 0.240234 18.0553 0.240234 17.6354V5.76025C0.240283 5.59005 0.29629 5.4244 0.39995 5.28786C0.503611 5.15132 0.649405 5.05115 0.815715 5.00222L16.9696 0.252163C17.0712 0.222273 17.1778 0.212296 17.2834 0.2228C17.3889 0.233305 17.4914 0.264087 17.5848 0.313387C17.6782 0.362687 17.7608 0.429541 17.8279 0.510131C17.8949 0.590721 17.9451 0.68347 17.9756 0.783081C18.0061 0.882692 18.0163 0.987214 18.0056 1.09068C17.9949 1.19415 17.9635 1.29453 17.9132 1.3861C17.8629 1.47767 17.7947 1.55864 17.7125 1.62437C17.6302 1.69011 17.5356 1.73932 17.434 1.76921L6.55134 4.96857H19.6248C20.0533 4.96857 20.4642 5.13539 20.7671 5.43233C21.07 5.72926 21.2402 6.132 21.2402 6.55193ZM19.6248 17.6354V6.55193H1.85562V17.6354H19.6248ZM18.0095 12.0937C18.0095 12.8766 17.7726 13.6419 17.3289 14.2928C16.8851 14.9438 16.2544 15.4511 15.5165 15.7507C14.7785 16.0503 13.9665 16.1287 13.1831 15.976C12.3998 15.8233 11.6802 15.4463 11.1154 14.8927C10.5506 14.3391 10.166 13.6338 10.0101 12.8659C9.85431 12.0981 9.93429 11.3022 10.24 10.5789C10.5456 9.85555 11.0632 9.23734 11.7274 8.80239C12.3915 8.36744 13.1723 8.13528 13.971 8.13528C15.0421 8.13528 16.0693 8.55232 16.8266 9.29466C17.584 10.037 18.0095 11.0438 18.0095 12.0937ZM16.3941 12.0937C16.3941 11.6239 16.252 11.1647 15.9857 10.7742C15.7195 10.3836 15.341 10.0792 14.8983 9.89942C14.4555 9.71966 13.9683 9.67263 13.4983 9.76427C13.0283 9.85591 12.5965 10.0821 12.2576 10.4143C11.9188 10.7464 11.688 11.1696 11.5945 11.6303C11.501 12.091 11.549 12.5686 11.7324 13.0025C11.9158 13.4365 12.2263 13.8075 12.6248 14.0684C13.0233 14.3294 13.4918 14.4687 13.971 14.4687C14.6136 14.4687 15.23 14.2185 15.6844 13.7731C16.1388 13.3277 16.3941 12.7236 16.3941 12.0937Z" fill="black"/>
<path d="M46.7871 13.4922V14.7188H40.7637V13.4922H46.7871ZM41.0684 3.34375V14.7188H39.5605V3.34375H41.0684ZM45.9902 8.23438V9.46094H40.7637V8.23438H45.9902ZM46.709 3.34375V4.57812H40.7637V3.34375H46.709Z" fill="#222222"/>
<path d="M49.873 7.94531V14.7188H48.4199V6.26562H49.7949L49.873 7.94531ZM49.5762 10.1719L48.9043 10.1484C48.9095 9.57031 48.985 9.03646 49.1309 8.54688C49.2767 8.05208 49.4928 7.6224 49.7793 7.25781C50.0658 6.89323 50.4225 6.61198 50.8496 6.41406C51.2767 6.21094 51.7715 6.10938 52.334 6.10938C52.7298 6.10938 53.0944 6.16667 53.4277 6.28125C53.7611 6.39062 54.0501 6.5651 54.2949 6.80469C54.5397 7.04427 54.7298 7.35156 54.8652 7.72656C55.0007 8.10156 55.0684 8.55469 55.0684 9.08594V14.7188H53.623V9.15625C53.623 8.71354 53.5475 8.35938 53.3965 8.09375C53.2507 7.82812 53.0423 7.63542 52.7715 7.51562C52.5007 7.39062 52.1829 7.32812 51.8184 7.32812C51.3913 7.32812 51.0345 7.40365 50.748 7.55469C50.4616 7.70573 50.2324 7.91406 50.0605 8.17969C49.8887 8.44531 49.7637 8.75 49.6855 9.09375C49.6126 9.43229 49.5762 9.79167 49.5762 10.1719ZM55.0527 9.375L54.084 9.67188C54.0892 9.20833 54.1647 8.76302 54.3105 8.33594C54.4616 7.90885 54.6777 7.52865 54.959 7.19531C55.2454 6.86198 55.597 6.59896 56.0137 6.40625C56.4303 6.20833 56.9069 6.10938 57.4434 6.10938C57.8965 6.10938 58.2975 6.16927 58.6465 6.28906C59.0007 6.40885 59.2975 6.59375 59.5371 6.84375C59.7819 7.08854 59.9668 7.40365 60.0918 7.78906C60.2168 8.17448 60.2793 8.63281 60.2793 9.16406V14.7188H58.8262V9.14844C58.8262 8.67448 58.7507 8.30729 58.5996 8.04688C58.4538 7.78125 58.2454 7.59635 57.9746 7.49219C57.709 7.38281 57.3913 7.32812 57.0215 7.32812C56.7038 7.32812 56.4225 7.38281 56.1777 7.49219C55.9329 7.60156 55.7272 7.7526 55.5605 7.94531C55.3939 8.13281 55.2663 8.34896 55.1777 8.59375C55.0944 8.83854 55.0527 9.09896 55.0527 9.375Z" fill="#222222"/>
<path d="M65.9746 14.875C65.3861 14.875 64.8522 14.776 64.373 14.5781C63.8991 14.375 63.4902 14.0911 63.1465 13.7266C62.8079 13.362 62.5475 12.9297 62.3652 12.4297C62.1829 11.9297 62.0918 11.3828 62.0918 10.7891V10.4609C62.0918 9.77344 62.1934 9.16146 62.3965 8.625C62.5996 8.08333 62.8757 7.625 63.2246 7.25C63.5736 6.875 63.9694 6.59115 64.4121 6.39844C64.8548 6.20573 65.3132 6.10938 65.7871 6.10938C66.3913 6.10938 66.9121 6.21354 67.3496 6.42188C67.7923 6.63021 68.1543 6.92188 68.4355 7.29688C68.7168 7.66667 68.9251 8.10417 69.0605 8.60938C69.196 9.10938 69.2637 9.65625 69.2637 10.25V10.8984H62.9512V9.71875H67.8184V9.60938C67.7975 9.23438 67.7194 8.86979 67.584 8.51562C67.4538 8.16146 67.2454 7.86979 66.959 7.64062C66.6725 7.41146 66.2819 7.29688 65.7871 7.29688C65.459 7.29688 65.1569 7.36719 64.8809 7.50781C64.6048 7.64323 64.3678 7.84635 64.1699 8.11719C63.972 8.38802 63.8184 8.71875 63.709 9.10938C63.5996 9.5 63.5449 9.95052 63.5449 10.4609V10.7891C63.5449 11.1901 63.5996 11.5677 63.709 11.9219C63.8236 12.2708 63.9876 12.5781 64.2012 12.8438C64.4199 13.1094 64.6829 13.3177 64.9902 13.4688C65.3027 13.6198 65.6569 13.6953 66.0527 13.6953C66.5632 13.6953 66.9954 13.5911 67.3496 13.3828C67.7038 13.1745 68.0137 12.8958 68.2793 12.5469L69.1543 13.2422C68.972 13.5182 68.7402 13.7812 68.459 14.0312C68.1777 14.2812 67.8314 14.4844 67.4199 14.6406C67.0137 14.7969 66.5319 14.875 65.9746 14.875Z" fill="#222222"/>
<path d="M72.3965 7.59375V14.7188H70.9512V6.26562H72.3574L72.3965 7.59375ZM75.0371 6.21875L75.0293 7.5625C74.9095 7.53646 74.7949 7.52083 74.6855 7.51562C74.5814 7.50521 74.4616 7.5 74.3262 7.5C73.9928 7.5 73.6986 7.55208 73.4434 7.65625C73.1882 7.76042 72.972 7.90625 72.7949 8.09375C72.6178 8.28125 72.4772 8.50521 72.373 8.76562C72.2741 9.02083 72.209 9.30208 72.1777 9.60938L71.7715 9.84375C71.7715 9.33333 71.821 8.85417 71.9199 8.40625C72.0241 7.95833 72.1829 7.5625 72.3965 7.21875C72.61 6.86979 72.8809 6.59896 73.209 6.40625C73.5423 6.20833 73.9382 6.10938 74.3965 6.10938C74.5007 6.10938 74.6204 6.1224 74.7559 6.14844C74.8913 6.16927 74.985 6.19271 75.0371 6.21875Z" fill="#222222"/>
<path d="M81.6934 6.26562H83.0059V14.5391C83.0059 15.2839 82.8548 15.9193 82.5527 16.4453C82.2507 16.9714 81.8288 17.3698 81.2871 17.6406C80.7507 17.9167 80.1309 18.0547 79.4277 18.0547C79.1361 18.0547 78.7923 18.0078 78.3965 17.9141C78.0059 17.8255 77.6204 17.6719 77.2402 17.4531C76.8652 17.2396 76.5501 16.9505 76.2949 16.5859L77.0527 15.7266C77.4069 16.1536 77.7767 16.4505 78.1621 16.6172C78.5527 16.7839 78.9382 16.8672 79.3184 16.8672C79.7767 16.8672 80.1725 16.7812 80.5059 16.6094C80.8392 16.4375 81.097 16.1823 81.2793 15.8438C81.4668 15.5104 81.5605 15.099 81.5605 14.6094V8.125L81.6934 6.26562ZM75.873 10.5859V10.4219C75.873 9.77604 75.9486 9.1901 76.0996 8.66406C76.2559 8.13281 76.4772 7.67708 76.7637 7.29688C77.0553 6.91667 77.4069 6.625 77.8184 6.42188C78.2298 6.21354 78.6934 6.10938 79.209 6.10938C79.7402 6.10938 80.2038 6.20312 80.5996 6.39062C81.0007 6.57292 81.3392 6.84115 81.6152 7.19531C81.8965 7.54427 82.1178 7.96615 82.2793 8.46094C82.4408 8.95573 82.5527 9.51562 82.6152 10.1406V10.8594C82.5579 11.4792 82.446 12.0365 82.2793 12.5312C82.1178 13.026 81.8965 13.4479 81.6152 13.7969C81.3392 14.1458 81.0007 14.4141 80.5996 14.6016C80.1986 14.7839 79.7298 14.875 79.1934 14.875C78.6882 14.875 78.2298 14.7682 77.8184 14.5547C77.4121 14.3411 77.0632 14.0417 76.7715 13.6562C76.4798 13.2708 76.2559 12.8177 76.0996 12.2969C75.9486 11.7708 75.873 11.2005 75.873 10.5859ZM77.3184 10.4219V10.5859C77.3184 11.0078 77.36 11.4036 77.4434 11.7734C77.5319 12.1432 77.6647 12.4688 77.8418 12.75C78.0241 13.0312 78.2559 13.2526 78.5371 13.4141C78.8184 13.5703 79.1543 13.6484 79.5449 13.6484C80.0241 13.6484 80.4199 13.5469 80.7324 13.3438C81.0449 13.1406 81.2923 12.8724 81.4746 12.5391C81.6621 12.2057 81.8079 11.8438 81.9121 11.4531V9.57031C81.8548 9.28385 81.7663 9.00781 81.6465 8.74219C81.5319 8.47135 81.3809 8.23177 81.1934 8.02344C81.0111 7.8099 80.7845 7.64062 80.5137 7.51562C80.2428 7.39062 79.9251 7.32812 79.5605 7.32812C79.1647 7.32812 78.8236 7.41146 78.5371 7.57812C78.2559 7.73958 78.0241 7.96354 77.8418 8.25C77.6647 8.53125 77.5319 8.85938 77.4434 9.23438C77.36 9.60417 77.3184 10 77.3184 10.4219Z" fill="#222222"/>
<path d="M88.709 14.875C88.1204 14.875 87.5866 14.776 87.1074 14.5781C86.6335 14.375 86.2246 14.0911 85.8809 13.7266C85.5423 13.362 85.2819 12.9297 85.0996 12.4297C84.9173 11.9297 84.8262 11.3828 84.8262 10.7891V10.4609C84.8262 9.77344 84.9277 9.16146 85.1309 8.625C85.334 8.08333 85.61 7.625 85.959 7.25C86.3079 6.875 86.7038 6.59115 87.1465 6.39844C87.5892 6.20573 88.0475 6.10938 88.5215 6.10938C89.1257 6.10938 89.6465 6.21354 90.084 6.42188C90.5267 6.63021 90.8887 6.92188 91.1699 7.29688C91.4512 7.66667 91.6595 8.10417 91.7949 8.60938C91.9303 9.10938 91.998 9.65625 91.998 10.25V10.8984H85.6855V9.71875H90.5527V9.60938C90.5319 9.23438 90.4538 8.86979 90.3184 8.51562C90.1882 8.16146 89.9798 7.86979 89.6934 7.64062C89.4069 7.41146 89.0163 7.29688 88.5215 7.29688C88.1934 7.29688 87.8913 7.36719 87.6152 7.50781C87.3392 7.64323 87.1022 7.84635 86.9043 8.11719C86.7064 8.38802 86.5527 8.71875 86.4434 9.10938C86.334 9.5 86.2793 9.95052 86.2793 10.4609V10.7891C86.2793 11.1901 86.334 11.5677 86.4434 11.9219C86.5579 12.2708 86.722 12.5781 86.9355 12.8438C87.1543 13.1094 87.4173 13.3177 87.7246 13.4688C88.0371 13.6198 88.3913 13.6953 88.7871 13.6953C89.2975 13.6953 89.7298 13.5911 90.084 13.3828C90.4382 13.1745 90.748 12.8958 91.0137 12.5469L91.8887 13.2422C91.7064 13.5182 91.4746 13.7812 91.1934 14.0312C90.9121 14.2812 90.5658 14.4844 90.1543 14.6406C89.748 14.7969 89.2663 14.875 88.709 14.875Z" fill="#222222"/>
<path d="M95.1309 8.07031V14.7188H93.6855V6.26562H95.0527L95.1309 8.07031ZM94.7871 10.1719L94.1855 10.1484C94.1908 9.57031 94.2767 9.03646 94.4434 8.54688C94.61 8.05208 94.8444 7.6224 95.1465 7.25781C95.4486 6.89323 95.8079 6.61198 96.2246 6.41406C96.6465 6.21094 97.1126 6.10938 97.623 6.10938C98.0397 6.10938 98.4147 6.16667 98.748 6.28125C99.0814 6.39062 99.3652 6.56771 99.5996 6.8125C99.8392 7.05729 100.021 7.375 100.146 7.76562C100.271 8.15104 100.334 8.6224 100.334 9.17969V14.7188H98.8809V9.16406C98.8809 8.72135 98.8158 8.36719 98.6855 8.10156C98.5553 7.83073 98.3652 7.63542 98.1152 7.51562C97.8652 7.39062 97.5579 7.32812 97.1934 7.32812C96.834 7.32812 96.5059 7.40365 96.209 7.55469C95.9173 7.70573 95.6647 7.91406 95.4512 8.17969C95.2428 8.44531 95.0788 8.75 94.959 9.09375C94.8444 9.43229 94.7871 9.79167 94.7871 10.1719Z" fill="#222222"/>
<path d="M105.912 13.6875C106.256 13.6875 106.574 13.6172 106.865 13.4766C107.157 13.3359 107.396 13.1432 107.584 12.8984C107.771 12.6484 107.878 12.3646 107.904 12.0469H109.279C109.253 12.5469 109.084 13.013 108.771 13.4453C108.464 13.8724 108.061 14.2188 107.561 14.4844C107.061 14.7448 106.511 14.875 105.912 14.875C105.277 14.875 104.722 14.763 104.248 14.5391C103.779 14.3151 103.389 14.0078 103.076 13.6172C102.769 13.2266 102.537 12.7786 102.381 12.2734C102.23 11.763 102.154 11.224 102.154 10.6562V10.3281C102.154 9.76042 102.23 9.22396 102.381 8.71875C102.537 8.20833 102.769 7.75781 103.076 7.36719C103.389 6.97656 103.779 6.66927 104.248 6.44531C104.722 6.22135 105.277 6.10938 105.912 6.10938C106.574 6.10938 107.152 6.24479 107.646 6.51562C108.141 6.78125 108.529 7.14583 108.811 7.60938C109.097 8.06771 109.253 8.58854 109.279 9.17188H107.904C107.878 8.82292 107.779 8.50781 107.607 8.22656C107.441 7.94531 107.212 7.72135 106.92 7.55469C106.633 7.38281 106.298 7.29688 105.912 7.29688C105.469 7.29688 105.097 7.38542 104.795 7.5625C104.498 7.73438 104.261 7.96875 104.084 8.26562C103.912 8.55729 103.787 8.88281 103.709 9.24219C103.636 9.59635 103.6 9.95833 103.6 10.3281V10.6562C103.6 11.026 103.636 11.3906 103.709 11.75C103.782 12.1094 103.904 12.4349 104.076 12.7266C104.253 13.0182 104.49 13.2526 104.787 13.4297C105.089 13.6016 105.464 13.6875 105.912 13.6875Z" fill="#222222"/>
<path d="M113.279 13.8438L115.631 6.26562H117.178L113.787 16.0234C113.709 16.2318 113.605 16.4557 113.475 16.6953C113.35 16.9401 113.188 17.1719 112.99 17.3906C112.792 17.6094 112.553 17.7865 112.271 17.9219C111.995 18.0625 111.665 18.1328 111.279 18.1328C111.165 18.1328 111.019 18.1172 110.842 18.0859C110.665 18.0547 110.54 18.0286 110.467 18.0078L110.459 16.8359C110.501 16.8411 110.566 16.8464 110.654 16.8516C110.748 16.862 110.813 16.8672 110.85 16.8672C111.178 16.8672 111.456 16.8229 111.686 16.7344C111.915 16.651 112.107 16.5078 112.264 16.3047C112.425 16.1068 112.563 15.8333 112.678 15.4844L113.279 13.8438ZM111.553 6.26562L113.748 12.8281L114.123 14.3516L113.084 14.8828L109.975 6.26562H111.553Z" fill="#222222"/>
<path d="M123.896 7.59375V14.7188H122.451V6.26562H123.857L123.896 7.59375ZM126.537 6.21875L126.529 7.5625C126.41 7.53646 126.295 7.52083 126.186 7.51562C126.081 7.50521 125.962 7.5 125.826 7.5C125.493 7.5 125.199 7.55208 124.943 7.65625C124.688 7.76042 124.472 7.90625 124.295 8.09375C124.118 8.28125 123.977 8.50521 123.873 8.76562C123.774 9.02083 123.709 9.30208 123.678 9.60938L123.271 9.84375C123.271 9.33333 123.321 8.85417 123.42 8.40625C123.524 7.95833 123.683 7.5625 123.896 7.21875C124.11 6.86979 124.381 6.59896 124.709 6.40625C125.042 6.20833 125.438 6.10938 125.896 6.10938C126.001 6.10938 126.12 6.1224 126.256 6.14844C126.391 6.16927 126.485 6.19271 126.537 6.21875Z" fill="#222222"/>
<path d="M132.545 13.2734V8.92188C132.545 8.58854 132.477 8.29948 132.342 8.05469C132.212 7.80469 132.014 7.61198 131.748 7.47656C131.482 7.34115 131.154 7.27344 130.764 7.27344C130.399 7.27344 130.079 7.33594 129.803 7.46094C129.532 7.58594 129.318 7.75 129.162 7.95312C129.011 8.15625 128.936 8.375 128.936 8.60938H127.49C127.49 8.30729 127.568 8.00781 127.725 7.71094C127.881 7.41406 128.105 7.14583 128.396 6.90625C128.693 6.66146 129.048 6.46875 129.459 6.32812C129.876 6.18229 130.339 6.10938 130.85 6.10938C131.464 6.10938 132.006 6.21354 132.475 6.42188C132.949 6.63021 133.318 6.94531 133.584 7.36719C133.855 7.78385 133.99 8.30729 133.99 8.9375V12.875C133.99 13.1562 134.014 13.4557 134.061 13.7734C134.113 14.0911 134.188 14.3646 134.287 14.5938V14.7188H132.779C132.706 14.5521 132.649 14.3307 132.607 14.0547C132.566 13.7734 132.545 13.513 132.545 13.2734ZM132.795 9.59375L132.811 10.6094H131.35C130.938 10.6094 130.571 10.6432 130.248 10.7109C129.925 10.7734 129.654 10.8698 129.436 11C129.217 11.1302 129.05 11.2943 128.936 11.4922C128.821 11.6849 128.764 11.9115 128.764 12.1719C128.764 12.4375 128.824 12.6797 128.943 12.8984C129.063 13.1172 129.243 13.2917 129.482 13.4219C129.727 13.5469 130.027 13.6094 130.381 13.6094C130.824 13.6094 131.214 13.5156 131.553 13.3281C131.891 13.1406 132.16 12.9115 132.357 12.6406C132.561 12.3698 132.67 12.1068 132.686 11.8516L133.303 12.5469C133.266 12.7656 133.167 13.0078 133.006 13.2734C132.844 13.5391 132.628 13.7943 132.357 14.0391C132.092 14.2786 131.774 14.4792 131.404 14.6406C131.04 14.7969 130.628 14.875 130.17 14.875C129.597 14.875 129.094 14.763 128.662 14.5391C128.235 14.3151 127.902 14.0156 127.662 13.6406C127.428 13.2604 127.311 12.8359 127.311 12.3672C127.311 11.9141 127.399 11.5156 127.576 11.1719C127.753 10.8229 128.008 10.5339 128.342 10.3047C128.675 10.0703 129.076 9.89323 129.545 9.77344C130.014 9.65365 130.537 9.59375 131.115 9.59375H132.795Z" fill="#222222"/>
<path d="M141.592 13.0781V2.71875H143.045V14.7188H141.717L141.592 13.0781ZM135.904 10.5859V10.4219C135.904 9.77604 135.982 9.1901 136.139 8.66406C136.3 8.13281 136.527 7.67708 136.818 7.29688C137.115 6.91667 137.467 6.625 137.873 6.42188C138.285 6.21354 138.743 6.10938 139.248 6.10938C139.779 6.10938 140.243 6.20312 140.639 6.39062C141.04 6.57292 141.378 6.84115 141.654 7.19531C141.936 7.54427 142.157 7.96615 142.318 8.46094C142.48 8.95573 142.592 9.51562 142.654 10.1406V10.8594C142.597 11.4792 142.485 12.0365 142.318 12.5312C142.157 13.026 141.936 13.4479 141.654 13.7969C141.378 14.1458 141.04 14.4141 140.639 14.6016C140.238 14.7839 139.769 14.875 139.232 14.875C138.738 14.875 138.285 14.7682 137.873 14.5547C137.467 14.3411 137.115 14.0417 136.818 13.6562C136.527 13.2708 136.3 12.8177 136.139 12.2969C135.982 11.7708 135.904 11.2005 135.904 10.5859ZM137.357 10.4219V10.5859C137.357 11.0078 137.399 11.4036 137.482 11.7734C137.571 12.1432 137.706 12.4688 137.889 12.75C138.071 13.0312 138.303 13.2526 138.584 13.4141C138.865 13.5703 139.201 13.6484 139.592 13.6484C140.071 13.6484 140.464 13.5469 140.771 13.3438C141.084 13.1406 141.334 12.8724 141.521 12.5391C141.709 12.2057 141.855 11.8438 141.959 11.4531V9.57031C141.896 9.28385 141.805 9.00781 141.686 8.74219C141.571 8.47135 141.42 8.23177 141.232 8.02344C141.05 7.8099 140.824 7.64062 140.553 7.51562C140.287 7.39062 139.972 7.32812 139.607 7.32812C139.212 7.32812 138.87 7.41146 138.584 7.57812C138.303 7.73958 138.071 7.96354 137.889 8.25C137.706 8.53125 137.571 8.85938 137.482 9.23438C137.399 9.60417 137.357 10 137.357 10.4219Z" fill="#222222"/>
<path d="M146.865 6.26562V14.7188H145.412V6.26562H146.865ZM145.303 4.02344C145.303 3.78906 145.373 3.59115 145.514 3.42969C145.66 3.26823 145.873 3.1875 146.154 3.1875C146.43 3.1875 146.641 3.26823 146.787 3.42969C146.938 3.59115 147.014 3.78906 147.014 4.02344C147.014 4.2474 146.938 4.4401 146.787 4.60156C146.641 4.75781 146.43 4.83594 146.154 4.83594C145.873 4.83594 145.66 4.75781 145.514 4.60156C145.373 4.4401 145.303 4.2474 145.303 4.02344Z" fill="#222222"/>
<path d="M148.803 10.5859V10.4062C148.803 9.79688 148.891 9.23177 149.068 8.71094C149.245 8.1849 149.501 7.72917 149.834 7.34375C150.167 6.95312 150.571 6.65104 151.045 6.4375C151.519 6.21875 152.05 6.10938 152.639 6.10938C153.232 6.10938 153.766 6.21875 154.24 6.4375C154.719 6.65104 155.126 6.95312 155.459 7.34375C155.798 7.72917 156.055 8.1849 156.232 8.71094C156.41 9.23177 156.498 9.79688 156.498 10.4062V10.5859C156.498 11.1953 156.41 11.7604 156.232 12.2812C156.055 12.8021 155.798 13.2578 155.459 13.6484C155.126 14.0339 154.722 14.3359 154.248 14.5547C153.779 14.7682 153.248 14.875 152.654 14.875C152.061 14.875 151.527 14.7682 151.053 14.5547C150.579 14.3359 150.173 14.0339 149.834 13.6484C149.501 13.2578 149.245 12.8021 149.068 12.2812C148.891 11.7604 148.803 11.1953 148.803 10.5859ZM150.248 10.4062V10.5859C150.248 11.0078 150.298 11.4062 150.396 11.7812C150.495 12.151 150.644 12.4792 150.842 12.7656C151.045 13.0521 151.298 13.2786 151.6 13.4453C151.902 13.6068 152.253 13.6875 152.654 13.6875C153.05 13.6875 153.396 13.6068 153.693 13.4453C153.995 13.2786 154.245 13.0521 154.443 12.7656C154.641 12.4792 154.79 12.151 154.889 11.7812C154.993 11.4062 155.045 11.0078 155.045 10.5859V10.4062C155.045 9.98958 154.993 9.59635 154.889 9.22656C154.79 8.85156 154.639 8.52083 154.436 8.23438C154.238 7.94271 153.988 7.71354 153.686 7.54688C153.389 7.38021 153.04 7.29688 152.639 7.29688C152.243 7.29688 151.894 7.38021 151.592 7.54688C151.295 7.71354 151.045 7.94271 150.842 8.23438C150.644 8.52083 150.495 8.85156 150.396 9.22656C150.298 9.59635 150.248 9.98958 150.248 10.4062Z" fill="#222222"/>
</svg>
