<svg width="247" height="22" viewBox="0 0 247 22" fill="none" xmlns="http://www.w3.org/2000/svg">
<path d="M15.8654 0.875006C16.2444 0.873938 16.6099 1.01644 16.8881 1.27385C17.1664 1.53126 17.3369 1.88449 17.3654 2.26251V3.51501L21.1154 2.01501V10.985L17.3654 9.48501V10.625C17.3664 11.0041 17.2239 11.3695 16.9665 11.6478C16.7091 11.9261 16.3559 12.0966 15.9779 12.125H11.2904C11.1419 12.8565 10.7785 13.527 10.2467 14.0508C9.71497 14.5745 9.039 14.9277 8.30536 15.065C8.15017 15.8984 7.71718 16.6546 7.07702 17.2103C6.43686 17.7661 5.62729 18.0885 4.78036 18.125H1.61536V21.125H0.115362V13.625H1.61536V16.625H4.61536C5.09804 16.6248 5.56787 16.4694 5.95547 16.1818C6.34307 15.8941 6.62788 15.4894 6.76786 15.0275C6.06807 14.8653 5.42958 14.5056 4.92833 13.991C4.42708 13.4765 4.08416 12.8288 3.94036 12.125H1.61536C1.23628 12.1261 0.870858 11.9836 0.592575 11.7262C0.314292 11.4687 0.143792 11.1155 0.115362 10.7375V2.37501C0.114295 1.99593 0.256796 1.6305 0.514207 1.35222C0.771619 1.07394 1.12485 0.903436 1.50286 0.875006H15.8654ZM7.61536 9.12501C7.01863 9.12501 6.44633 9.36206 6.02437 9.78402C5.60242 10.206 5.36536 10.7783 5.36536 11.375C5.36536 11.9717 5.60242 12.544 6.02437 12.966C6.44633 13.388 7.01863 13.625 7.61536 13.625C8.2121 13.625 8.7844 13.388 9.20635 12.966C9.62831 12.544 9.86536 11.9717 9.86536 11.375C9.86536 10.7783 9.62831 10.206 9.20635 9.78402C8.7844 9.36206 8.2121 9.12501 7.61536 9.12501ZM15.8654 2.37501H1.61536V10.625H3.94036C4.1125 9.77729 4.57241 9.01515 5.24217 8.46772C5.91193 7.92029 6.75035 7.62125 7.61536 7.62125C8.48038 7.62125 9.3188 7.92029 9.98856 8.46772C10.6583 9.01515 11.1182 9.77729 11.2904 10.625H15.8654V2.37501ZM19.6154 4.23501L17.3654 5.13501V7.86501L19.6154 8.76501V4.23501ZM3.86536 3.87501C4.06427 3.87501 4.25504 3.95402 4.39569 4.09468C4.53634 4.23533 4.61536 4.42609 4.61536 4.62501C4.61536 4.82392 4.53634 5.01468 4.39569 5.15534C4.25504 5.29599 4.06427 5.37501 3.86536 5.37501C3.66645 5.37501 3.47568 5.29599 3.33503 5.15534C3.19438 5.01468 3.11536 4.82392 3.11536 4.62501C3.11536 4.42609 3.19438 4.23533 3.33503 4.09468C3.47568 3.95402 3.66645 3.87501 3.86536 3.87501Z" fill="#222222"/>
<path d="M45.4982 13.125C45.4982 12.8594 45.4565 12.625 45.3732 12.4219C45.295 12.2135 45.1544 12.026 44.9513 11.8594C44.7534 11.6927 44.4773 11.5339 44.1232 11.3828C43.7742 11.2318 43.3315 11.0781 42.795 10.9219C42.2325 10.7552 41.7247 10.5703 41.2716 10.3672C40.8185 10.1589 40.4305 9.92188 40.1075 9.65625C39.7846 9.39063 39.5372 9.08594 39.3654 8.74219C39.1935 8.39844 39.1075 8.00521 39.1075 7.5625C39.1075 7.11979 39.1987 6.71094 39.381 6.33594C39.5633 5.96094 39.8237 5.63542 40.1622 5.35938C40.506 5.07813 40.9148 4.85938 41.3888 4.70313C41.8628 4.54688 42.3914 4.46875 42.9747 4.46875C43.8289 4.46875 44.5529 4.63282 45.1466 4.96094C45.7456 5.28386 46.2013 5.70834 46.5138 6.23438C46.8263 6.75521 46.9825 7.3125 46.9825 7.90625H45.4825C45.4825 7.47917 45.3914 7.10157 45.2091 6.77344C45.0268 6.44011 44.7508 6.17969 44.381 5.99219C44.0112 5.79948 43.5424 5.70313 42.9747 5.70313C42.4383 5.70313 41.9956 5.78386 41.6466 5.94532C41.2977 6.10677 41.0372 6.32552 40.8654 6.60157C40.6987 6.87761 40.6154 7.19271 40.6154 7.54688C40.6154 7.78646 40.6648 8.00521 40.7638 8.20313C40.868 8.39584 41.0268 8.57552 41.2404 8.74219C41.4591 8.90886 41.7352 9.0625 42.0685 9.20313C42.407 9.34375 42.8107 9.47917 43.2794 9.60938C43.9253 9.79167 44.4825 9.99479 44.9513 10.2188C45.42 10.4427 45.8055 10.6953 46.1075 10.9766C46.4148 11.2526 46.6414 11.5677 46.7872 11.9219C46.9383 12.2708 47.0138 12.6667 47.0138 13.1094C47.0138 13.5729 46.92 13.9922 46.7325 14.3672C46.545 14.7422 46.2768 15.0625 45.9279 15.3281C45.5789 15.5938 45.1596 15.7995 44.67 15.9453C44.1857 16.0859 43.644 16.1563 43.045 16.1563C42.519 16.1563 42.0008 16.0833 41.4904 15.9375C40.9852 15.7917 40.5242 15.5729 40.1075 15.2813C39.6961 14.9896 39.3654 14.6302 39.1154 14.2031C38.8706 13.7708 38.7482 13.2708 38.7482 12.7031H40.2482C40.2482 13.0938 40.3237 13.4297 40.4747 13.7109C40.6258 13.987 40.8315 14.2161 41.0919 14.3984C41.3575 14.5807 41.657 14.7161 41.9904 14.8047C42.3289 14.888 42.6805 14.9297 43.045 14.9297C43.5711 14.9297 44.0164 14.8568 44.381 14.7109C44.7456 14.5651 45.0216 14.3568 45.2091 14.0859C45.4018 13.8151 45.4982 13.4948 45.4982 13.125Z" fill="#222222"/>
<path d="M52.2247 16.1563C51.6362 16.1563 51.1023 16.0573 50.6232 15.8594C50.1492 15.6563 49.7404 15.3724 49.3966 15.0078C49.0581 14.6432 48.7977 14.2109 48.6154 13.7109C48.4331 13.2109 48.3419 12.6641 48.3419 12.0703V11.7422C48.3419 11.0547 48.4435 10.4427 48.6466 9.90625C48.8497 9.36459 49.1258 8.90625 49.4747 8.53125C49.8237 8.15625 50.2195 7.8724 50.6622 7.67969C51.1049 7.48698 51.5633 7.39063 52.0372 7.39063C52.6414 7.39063 53.1622 7.49479 53.5997 7.70313C54.0424 7.91146 54.4044 8.20313 54.6857 8.57813C54.9669 8.94792 55.1753 9.38542 55.3107 9.89063C55.4461 10.3906 55.5138 10.9375 55.5138 11.5313V12.1797H49.2013V11H54.0685V10.8906C54.0477 10.5156 53.9695 10.151 53.8341 9.79688C53.7039 9.44271 53.4956 9.15104 53.2091 8.92188C52.9227 8.69271 52.532 8.57813 52.0372 8.57813C51.7091 8.57813 51.407 8.64844 51.131 8.78907C50.8549 8.92448 50.618 9.12761 50.42 9.39844C50.2221 9.66927 50.0685 10 49.9591 10.3906C49.8497 10.7813 49.795 11.2318 49.795 11.7422V12.0703C49.795 12.4714 49.8497 12.849 49.9591 13.2031C50.0737 13.5521 50.2378 13.8594 50.4513 14.125C50.67 14.3906 50.9331 14.599 51.2404 14.75C51.5529 14.901 51.907 14.9766 52.3029 14.9766C52.8133 14.9766 53.2456 14.8724 53.5997 14.6641C53.9539 14.4557 54.2638 14.1771 54.5294 13.8281L55.4044 14.5234C55.2221 14.7995 54.9904 15.0625 54.7091 15.3125C54.4279 15.5625 54.0815 15.7656 53.67 15.9219C53.2638 16.0781 52.782 16.1563 52.2247 16.1563Z" fill="#222222"/>
<path d="M60.5841 14.9688C60.9279 14.9688 61.2456 14.8984 61.5372 14.7578C61.8289 14.6172 62.0685 14.4245 62.256 14.1797C62.4435 13.9297 62.5503 13.6458 62.5763 13.3281H63.9513C63.9253 13.8281 63.756 14.2943 63.4435 14.7266C63.1362 15.1536 62.7325 15.5 62.2325 15.7656C61.7325 16.026 61.1831 16.1563 60.5841 16.1563C59.9487 16.1563 59.394 16.0443 58.92 15.8203C58.4513 15.5964 58.0607 15.2891 57.7482 14.8984C57.4409 14.5078 57.2091 14.0599 57.0529 13.5547C56.9018 13.0443 56.8263 12.5052 56.8263 11.9375V11.6094C56.8263 11.0417 56.9018 10.5052 57.0529 10C57.2091 9.48959 57.4409 9.03907 57.7482 8.64844C58.0607 8.25782 58.4513 7.95052 58.92 7.72657C59.394 7.50261 59.9487 7.39063 60.5841 7.39063C61.2456 7.39063 61.8237 7.52604 62.3185 7.79688C62.8133 8.0625 63.2013 8.42709 63.4825 8.89063C63.769 9.34896 63.9253 9.86979 63.9513 10.4531H62.5763C62.5503 10.1042 62.4513 9.78907 62.2794 9.50782C62.1128 9.22657 61.8836 9.00261 61.5919 8.83594C61.3055 8.66407 60.9695 8.57813 60.5841 8.57813C60.1414 8.57813 59.769 8.66667 59.4669 8.84375C59.17 9.01563 58.9331 9.25 58.756 9.54688C58.5841 9.83854 58.4591 10.1641 58.381 10.5234C58.3081 10.8776 58.2716 11.2396 58.2716 11.6094V11.9375C58.2716 12.3073 58.3081 12.6719 58.381 13.0313C58.4539 13.3906 58.5763 13.7161 58.7482 14.0078C58.9253 14.2995 59.1622 14.5339 59.4591 14.7109C59.7612 14.8828 60.1362 14.9688 60.5841 14.9688Z" fill="#222222"/>
<path d="M70.7482 14.0469V7.54688H72.2013V16H70.8185L70.7482 14.0469ZM71.0216 12.2656L71.6232 12.25C71.6232 12.8125 71.5633 13.3333 71.4435 13.8125C71.3289 14.2865 71.1414 14.6979 70.881 15.0469C70.6206 15.3958 70.2794 15.6693 69.8576 15.8672C69.4357 16.0599 68.9227 16.1563 68.3185 16.1563C67.907 16.1563 67.5294 16.0964 67.1857 15.9766C66.8471 15.8568 66.5555 15.6719 66.3107 15.4219C66.0659 15.1719 65.8758 14.8464 65.7404 14.4453C65.6102 14.0443 65.5451 13.5625 65.5451 13V7.54688H66.9904V13.0156C66.9904 13.3958 67.032 13.7109 67.1154 13.9609C67.2039 14.2057 67.3211 14.401 67.4669 14.5469C67.618 14.6875 67.7846 14.7865 67.9669 14.8438C68.1544 14.901 68.3471 14.9297 68.5451 14.9297C69.1596 14.9297 69.6466 14.8125 70.006 14.5781C70.3654 14.3385 70.6232 14.0182 70.7794 13.6172C70.9409 13.2109 71.0216 12.7604 71.0216 12.2656Z" fill="#222222"/>
<path d="M75.8497 8.875V16H74.4044V7.54688H75.8107L75.8497 8.875ZM78.4904 7.5L78.4826 8.84375C78.3628 8.81771 78.2482 8.80209 78.1388 8.79688C78.0346 8.78646 77.9148 8.78125 77.7794 8.78125C77.4461 8.78125 77.1518 8.83334 76.8966 8.9375C76.6414 9.04167 76.4253 9.1875 76.2482 9.375C76.0711 9.5625 75.9305 9.78646 75.8263 10.0469C75.7273 10.3021 75.6622 10.5833 75.631 10.8906L75.2247 11.125C75.2247 10.6146 75.2742 10.1354 75.3732 9.6875C75.4773 9.23959 75.6362 8.84375 75.8497 8.5C76.0633 8.15104 76.3341 7.88021 76.6622 7.6875C76.9956 7.48959 77.3914 7.39063 77.8497 7.39063C77.9539 7.39063 78.0737 7.40365 78.2091 7.42969C78.3445 7.45052 78.4383 7.47396 78.4904 7.5Z" fill="#222222"/>
<path d="M81.3966 7.54688V16H79.9435V7.54688H81.3966ZM79.8341 5.30469C79.8341 5.07032 79.9044 4.8724 80.0451 4.71094C80.1909 4.54948 80.4044 4.46875 80.6857 4.46875C80.9617 4.46875 81.1727 4.54948 81.3185 4.71094C81.4695 4.8724 81.5451 5.07032 81.5451 5.30469C81.5451 5.52865 81.4695 5.72136 81.3185 5.88282C81.1727 6.03907 80.9617 6.11719 80.6857 6.11719C80.4044 6.11719 80.1909 6.03907 80.0451 5.88282C79.9044 5.72136 79.8341 5.52865 79.8341 5.30469Z" fill="#222222"/>
<path d="M87.256 7.54688V8.65625H82.6857V7.54688H87.256ZM84.2326 5.49219H85.6779V13.9063C85.6779 14.1927 85.7221 14.4089 85.8107 14.5547C85.8992 14.7005 86.0138 14.7969 86.1544 14.8438C86.2951 14.8906 86.4461 14.9141 86.6076 14.9141C86.7273 14.9141 86.8523 14.9036 86.9826 14.8828C87.118 14.8568 87.2195 14.8359 87.2872 14.8203L87.2951 16C87.1805 16.0365 87.0294 16.0703 86.8419 16.1016C86.6596 16.138 86.4383 16.1563 86.1779 16.1563C85.8237 16.1563 85.4982 16.0859 85.2013 15.9453C84.9044 15.8047 84.6674 15.5703 84.4904 15.2422C84.3185 14.9089 84.2326 14.4609 84.2326 13.8984V5.49219Z" fill="#222222"/>
<path d="M91.3263 15.125L93.6779 7.54688H95.2247L91.8341 17.3047C91.756 17.513 91.6518 17.737 91.5216 17.9766C91.3966 18.2214 91.2352 18.4531 91.0372 18.6719C90.8393 18.8906 90.5997 19.0677 90.3185 19.2031C90.0424 19.3438 89.7117 19.4141 89.3263 19.4141C89.2117 19.4141 89.0659 19.3984 88.8888 19.3672C88.7117 19.3359 88.5867 19.3099 88.5138 19.2891L88.506 18.1172C88.5477 18.1224 88.6128 18.1276 88.7013 18.1328C88.7951 18.1432 88.8602 18.1484 88.8966 18.1484C89.2247 18.1484 89.5034 18.1042 89.7326 18.0156C89.9617 17.9323 90.1544 17.7891 90.3107 17.5859C90.4721 17.388 90.6102 17.1146 90.7247 16.7656L91.3263 15.125ZM89.5997 7.54688L91.7951 14.1094L92.1701 15.6328L91.131 16.1641L88.0216 7.54688H89.5997Z" fill="#222222"/>
<path d="M103.881 14.9688C104.225 14.9688 104.542 14.8984 104.834 14.7578C105.126 14.6172 105.365 14.4245 105.553 14.1797C105.74 13.9297 105.847 13.6458 105.873 13.3281H107.248C107.222 13.8281 107.053 14.2943 106.74 14.7266C106.433 15.1536 106.029 15.5 105.529 15.7656C105.029 16.026 104.48 16.1563 103.881 16.1563C103.246 16.1563 102.691 16.0443 102.217 15.8203C101.748 15.5964 101.358 15.2891 101.045 14.8984C100.738 14.5078 100.506 14.0599 100.35 13.5547C100.199 13.0443 100.123 12.5052 100.123 11.9375V11.6094C100.123 11.0417 100.199 10.5052 100.35 10C100.506 9.48959 100.738 9.03907 101.045 8.64844C101.358 8.25782 101.748 7.95052 102.217 7.72657C102.691 7.50261 103.246 7.39063 103.881 7.39063C104.542 7.39063 105.121 7.52604 105.615 7.79688C106.11 8.0625 106.498 8.42709 106.779 8.89063C107.066 9.34896 107.222 9.86979 107.248 10.4531H105.873C105.847 10.1042 105.748 9.78907 105.576 9.50782C105.41 9.22657 105.18 9.00261 104.889 8.83594C104.602 8.66407 104.266 8.57813 103.881 8.57813C103.438 8.57813 103.066 8.66667 102.764 8.84375C102.467 9.01563 102.23 9.25 102.053 9.54688C101.881 9.83854 101.756 10.1641 101.678 10.5234C101.605 10.8776 101.568 11.2396 101.568 11.6094V11.9375C101.568 12.3073 101.605 12.6719 101.678 13.0313C101.751 13.3906 101.873 13.7161 102.045 14.0078C102.222 14.2995 102.459 14.5339 102.756 14.7109C103.058 14.8828 103.433 14.9688 103.881 14.9688Z" fill="#222222"/>
<path d="M113.858 14.5547V10.2031C113.858 9.86979 113.79 9.58073 113.654 9.33594C113.524 9.08594 113.326 8.89323 113.061 8.75782C112.795 8.6224 112.467 8.55469 112.076 8.55469C111.712 8.55469 111.391 8.61719 111.115 8.74219C110.845 8.86719 110.631 9.03125 110.475 9.23438C110.324 9.4375 110.248 9.65625 110.248 9.89063H108.803C108.803 9.58854 108.881 9.28907 109.037 8.99219C109.193 8.69532 109.417 8.42709 109.709 8.1875C110.006 7.94271 110.36 7.75 110.772 7.60938C111.188 7.46354 111.652 7.39063 112.162 7.39063C112.777 7.39063 113.318 7.49479 113.787 7.70313C114.261 7.91146 114.631 8.22657 114.897 8.64844C115.167 9.06511 115.303 9.58854 115.303 10.2188V14.1563C115.303 14.4375 115.326 14.737 115.373 15.0547C115.425 15.3724 115.501 15.6458 115.6 15.875V16H114.092C114.019 15.8333 113.962 15.612 113.92 15.3359C113.878 15.0547 113.858 14.7943 113.858 14.5547ZM114.108 10.875L114.123 11.8906H112.662C112.251 11.8906 111.884 11.9245 111.561 11.9922C111.238 12.0547 110.967 12.151 110.748 12.2813C110.529 12.4115 110.363 12.5755 110.248 12.7734C110.134 12.9661 110.076 13.1927 110.076 13.4531C110.076 13.7188 110.136 13.9609 110.256 14.1797C110.376 14.3984 110.555 14.5729 110.795 14.7031C111.04 14.8281 111.339 14.8906 111.693 14.8906C112.136 14.8906 112.527 14.7969 112.865 14.6094C113.204 14.4219 113.472 14.1927 113.67 13.9219C113.873 13.651 113.983 13.388 113.998 13.1328L114.615 13.8281C114.579 14.0469 114.48 14.2891 114.318 14.5547C114.157 14.8203 113.941 15.0755 113.67 15.3203C113.404 15.5599 113.087 15.7604 112.717 15.9219C112.352 16.0781 111.941 16.1563 111.483 16.1563C110.91 16.1563 110.407 16.0443 109.975 15.8203C109.548 15.5964 109.214 15.2969 108.975 14.9219C108.74 14.5417 108.623 14.1172 108.623 13.6484C108.623 13.1953 108.712 12.7969 108.889 12.4531C109.066 12.1042 109.321 11.8151 109.654 11.5859C109.988 11.3516 110.389 11.1745 110.858 11.0547C111.326 10.9349 111.85 10.875 112.428 10.875H114.108Z" fill="#222222"/>
<path d="M119.014 9.22657V16H117.561V7.54688H118.936L119.014 9.22657ZM118.717 11.4531L118.045 11.4297C118.05 10.8516 118.126 10.3177 118.272 9.82813C118.417 9.33334 118.634 8.90365 118.92 8.53907C119.207 8.17448 119.563 7.89323 119.99 7.69532C120.417 7.49219 120.912 7.39063 121.475 7.39063C121.871 7.39063 122.235 7.44792 122.568 7.5625C122.902 7.67188 123.191 7.84636 123.436 8.08594C123.68 8.32552 123.871 8.63282 124.006 9.00782C124.141 9.38282 124.209 9.83594 124.209 10.3672V16H122.764V10.4375C122.764 9.99479 122.688 9.64063 122.537 9.375C122.391 9.10938 122.183 8.91667 121.912 8.79688C121.641 8.67188 121.324 8.60938 120.959 8.60938C120.532 8.60938 120.175 8.6849 119.889 8.83594C119.602 8.98698 119.373 9.19532 119.201 9.46094C119.029 9.72657 118.904 10.0313 118.826 10.375C118.753 10.7135 118.717 11.0729 118.717 11.4531ZM124.193 10.6563L123.225 10.9531C123.23 10.4896 123.305 10.0443 123.451 9.61719C123.602 9.19011 123.818 8.8099 124.1 8.47657C124.386 8.14323 124.738 7.88021 125.154 7.6875C125.571 7.48959 126.048 7.39063 126.584 7.39063C127.037 7.39063 127.438 7.45052 127.787 7.57032C128.141 7.69011 128.438 7.875 128.678 8.125C128.923 8.36979 129.108 8.6849 129.233 9.07032C129.358 9.45573 129.42 9.91407 129.42 10.4453V16H127.967V10.4297C127.967 9.95573 127.891 9.58854 127.74 9.32813C127.595 9.0625 127.386 8.87761 127.115 8.77344C126.85 8.66407 126.532 8.60938 126.162 8.60938C125.845 8.60938 125.563 8.66407 125.318 8.77344C125.074 8.88282 124.868 9.03386 124.701 9.22657C124.535 9.41407 124.407 9.63021 124.318 9.875C124.235 10.1198 124.193 10.3802 124.193 10.6563Z" fill="#222222"/>
<path d="M135.115 16.1563C134.527 16.1563 133.993 16.0573 133.514 15.8594C133.04 15.6563 132.631 15.3724 132.287 15.0078C131.949 14.6432 131.688 14.2109 131.506 13.7109C131.324 13.2109 131.233 12.6641 131.233 12.0703V11.7422C131.233 11.0547 131.334 10.4427 131.537 9.90625C131.74 9.36459 132.016 8.90625 132.365 8.53125C132.714 8.15625 133.11 7.8724 133.553 7.67969C133.996 7.48698 134.454 7.39063 134.928 7.39063C135.532 7.39063 136.053 7.49479 136.49 7.70313C136.933 7.91146 137.295 8.20313 137.576 8.57813C137.858 8.94792 138.066 9.38542 138.201 9.89063C138.337 10.3906 138.404 10.9375 138.404 11.5313V12.1797H132.092V11H136.959V10.8906C136.938 10.5156 136.86 10.151 136.725 9.79688C136.595 9.44271 136.386 9.15104 136.1 8.92188C135.813 8.69271 135.423 8.57813 134.928 8.57813C134.6 8.57813 134.298 8.64844 134.022 8.78907C133.746 8.92448 133.509 9.12761 133.311 9.39844C133.113 9.66927 132.959 10 132.85 10.3906C132.74 10.7813 132.686 11.2318 132.686 11.7422V12.0703C132.686 12.4714 132.74 12.849 132.85 13.2031C132.964 13.5521 133.128 13.8594 133.342 14.125C133.561 14.3906 133.824 14.599 134.131 14.75C134.443 14.901 134.798 14.9766 135.193 14.9766C135.704 14.9766 136.136 14.8724 136.49 14.6641C136.845 14.4557 137.154 14.1771 137.42 13.8281L138.295 14.5234C138.113 14.7995 137.881 15.0625 137.6 15.3125C137.318 15.5625 136.972 15.7656 136.561 15.9219C136.154 16.0781 135.673 16.1563 135.115 16.1563Z" fill="#222222"/>
<path d="M141.537 8.875V16H140.092V7.54688H141.498L141.537 8.875ZM144.178 7.5L144.17 8.84375C144.05 8.81771 143.936 8.80209 143.826 8.79688C143.722 8.78646 143.602 8.78125 143.467 8.78125C143.134 8.78125 142.839 8.83334 142.584 8.9375C142.329 9.04167 142.113 9.1875 141.936 9.375C141.759 9.5625 141.618 9.78646 141.514 10.0469C141.415 10.3021 141.35 10.5833 141.318 10.8906L140.912 11.125C140.912 10.6146 140.962 10.1354 141.061 9.6875C141.165 9.23959 141.324 8.84375 141.537 8.5C141.751 8.15104 142.022 7.88021 142.35 7.6875C142.683 7.48959 143.079 7.39063 143.537 7.39063C143.641 7.39063 143.761 7.40365 143.897 7.42969C144.032 7.45052 144.126 7.47396 144.178 7.5Z" fill="#222222"/>
<path d="M150.186 14.5547V10.2031C150.186 9.86979 150.118 9.58073 149.983 9.33594C149.852 9.08594 149.654 8.89323 149.389 8.75782C149.123 8.6224 148.795 8.55469 148.404 8.55469C148.04 8.55469 147.72 8.61719 147.443 8.74219C147.173 8.86719 146.959 9.03125 146.803 9.23438C146.652 9.4375 146.576 9.65625 146.576 9.89063H145.131C145.131 9.58854 145.209 9.28907 145.365 8.99219C145.522 8.69532 145.746 8.42709 146.037 8.1875C146.334 7.94271 146.688 7.75 147.1 7.60938C147.516 7.46354 147.98 7.39063 148.49 7.39063C149.105 7.39063 149.647 7.49479 150.115 7.70313C150.589 7.91146 150.959 8.22657 151.225 8.64844C151.496 9.06511 151.631 9.58854 151.631 10.2188V14.1563C151.631 14.4375 151.654 14.737 151.701 15.0547C151.753 15.3724 151.829 15.6458 151.928 15.875V16H150.42C150.347 15.8333 150.29 15.612 150.248 15.3359C150.207 15.0547 150.186 14.7943 150.186 14.5547ZM150.436 10.875L150.451 11.8906H148.99C148.579 11.8906 148.212 11.9245 147.889 11.9922C147.566 12.0547 147.295 12.151 147.076 12.2813C146.858 12.4115 146.691 12.5755 146.576 12.7734C146.462 12.9661 146.404 13.1927 146.404 13.4531C146.404 13.7188 146.464 13.9609 146.584 14.1797C146.704 14.3984 146.884 14.5729 147.123 14.7031C147.368 14.8281 147.667 14.8906 148.022 14.8906C148.464 14.8906 148.855 14.7969 149.193 14.6094C149.532 14.4219 149.8 14.1927 149.998 13.9219C150.201 13.651 150.311 13.388 150.326 13.1328L150.943 13.8281C150.907 14.0469 150.808 14.2891 150.647 14.5547C150.485 14.8203 150.269 15.0755 149.998 15.3203C149.733 15.5599 149.415 15.7604 149.045 15.9219C148.68 16.0781 148.269 16.1563 147.811 16.1563C147.238 16.1563 146.735 16.0443 146.303 15.8203C145.876 15.5964 145.542 15.2969 145.303 14.9219C145.068 14.5417 144.951 14.1172 144.951 13.6484C144.951 13.1953 145.04 12.7969 145.217 12.4531C145.394 12.1042 145.649 11.8151 145.983 11.5859C146.316 11.3516 146.717 11.1745 147.186 11.0547C147.654 10.9349 148.178 10.875 148.756 10.875H150.436Z" fill="#222222"/>
<path d="M158.826 13.7578C158.826 13.5495 158.779 13.3568 158.686 13.1797C158.597 12.9974 158.412 12.8333 158.131 12.6875C157.855 12.5365 157.438 12.4063 156.881 12.2969C156.412 12.1979 155.988 12.0807 155.608 11.9453C155.233 11.8099 154.912 11.6458 154.647 11.4531C154.386 11.2604 154.186 11.0339 154.045 10.7734C153.904 10.513 153.834 10.2083 153.834 9.85938C153.834 9.52604 153.907 9.21094 154.053 8.91407C154.204 8.61719 154.415 8.35417 154.686 8.125C154.962 7.89584 155.292 7.71615 155.678 7.58594C156.063 7.45573 156.493 7.39063 156.967 7.39063C157.644 7.39063 158.222 7.51042 158.701 7.75C159.18 7.98959 159.548 8.3099 159.803 8.71094C160.058 9.10677 160.186 9.54688 160.186 10.0313H158.74C158.74 9.79688 158.67 9.57032 158.529 9.35157C158.394 9.12761 158.193 8.94271 157.928 8.79688C157.667 8.65104 157.347 8.57813 156.967 8.57813C156.566 8.57813 156.24 8.64063 155.99 8.76563C155.746 8.88542 155.566 9.03907 155.451 9.22657C155.342 9.41407 155.287 9.61198 155.287 9.82032C155.287 9.97657 155.313 10.1172 155.365 10.2422C155.423 10.362 155.522 10.474 155.662 10.5781C155.803 10.6771 156.001 10.7708 156.256 10.8594C156.511 10.9479 156.837 11.0365 157.233 11.125C157.925 11.2813 158.496 11.4688 158.943 11.6875C159.391 11.9063 159.725 12.1745 159.943 12.4922C160.162 12.8099 160.272 13.1953 160.272 13.6484C160.272 14.0182 160.193 14.3568 160.037 14.6641C159.886 14.9714 159.665 15.237 159.373 15.4609C159.087 15.6797 158.743 15.8516 158.342 15.9766C157.946 16.0964 157.501 16.1563 157.006 16.1563C156.261 16.1563 155.631 16.0234 155.115 15.7578C154.6 15.4922 154.209 15.1484 153.943 14.7266C153.678 14.3047 153.545 13.8594 153.545 13.3906H154.998C155.019 13.7865 155.134 14.1016 155.342 14.3359C155.55 14.5651 155.805 14.7292 156.108 14.8281C156.41 14.9219 156.709 14.9688 157.006 14.9688C157.402 14.9688 157.733 14.9167 157.998 14.8125C158.269 14.7083 158.475 14.5651 158.615 14.3828C158.756 14.2005 158.826 13.9922 158.826 13.7578Z" fill="#222222"/>
<path d="M165.756 11.8672V11.6875C165.756 11.0781 165.845 10.513 166.022 9.99219C166.199 9.46615 166.454 9.01042 166.787 8.625C167.121 8.23438 167.524 7.93229 167.998 7.71875C168.472 7.5 169.003 7.39063 169.592 7.39063C170.186 7.39063 170.72 7.5 171.193 7.71875C171.673 7.93229 172.079 8.23438 172.412 8.625C172.751 9.01042 173.009 9.46615 173.186 9.99219C173.363 10.513 173.451 11.0781 173.451 11.6875V11.8672C173.451 12.4766 173.363 13.0417 173.186 13.5625C173.009 14.0833 172.751 14.5391 172.412 14.9297C172.079 15.3151 171.675 15.6172 171.201 15.8359C170.733 16.0495 170.201 16.1563 169.608 16.1563C169.014 16.1563 168.48 16.0495 168.006 15.8359C167.532 15.6172 167.126 15.3151 166.787 14.9297C166.454 14.5391 166.199 14.0833 166.022 13.5625C165.845 13.0417 165.756 12.4766 165.756 11.8672ZM167.201 11.6875V11.8672C167.201 12.2891 167.251 12.6875 167.35 13.0625C167.449 13.4323 167.597 13.7604 167.795 14.0469C167.998 14.3333 168.251 14.5599 168.553 14.7266C168.855 14.888 169.207 14.9688 169.608 14.9688C170.003 14.9688 170.35 14.888 170.647 14.7266C170.949 14.5599 171.199 14.3333 171.397 14.0469C171.595 13.7604 171.743 13.4323 171.842 13.0625C171.946 12.6875 171.998 12.2891 171.998 11.8672V11.6875C171.998 11.2708 171.946 10.8776 171.842 10.5078C171.743 10.1328 171.592 9.80209 171.389 9.51563C171.191 9.22396 170.941 8.99479 170.639 8.82813C170.342 8.66146 169.993 8.57813 169.592 8.57813C169.196 8.57813 168.847 8.66146 168.545 8.82813C168.248 8.99479 167.998 9.22396 167.795 9.51563C167.597 9.80209 167.449 10.1328 167.35 10.5078C167.251 10.8776 167.201 11.2708 167.201 11.6875Z" fill="#222222"/>
<path d="M176.709 9.35157V16H175.264V7.54688H176.631L176.709 9.35157ZM176.365 11.4531L175.764 11.4297C175.769 10.8516 175.855 10.3177 176.022 9.82813C176.188 9.33334 176.423 8.90365 176.725 8.53907C177.027 8.17448 177.386 7.89323 177.803 7.69532C178.225 7.49219 178.691 7.39063 179.201 7.39063C179.618 7.39063 179.993 7.44792 180.326 7.5625C180.66 7.67188 180.943 7.84896 181.178 8.09375C181.417 8.33854 181.6 8.65625 181.725 9.04688C181.85 9.43229 181.912 9.90365 181.912 10.4609V16H180.459V10.4453C180.459 10.0026 180.394 9.64844 180.264 9.38282C180.134 9.11198 179.943 8.91667 179.693 8.79688C179.443 8.67188 179.136 8.60938 178.772 8.60938C178.412 8.60938 178.084 8.6849 177.787 8.83594C177.496 8.98698 177.243 9.19532 177.029 9.46094C176.821 9.72657 176.657 10.0313 176.537 10.375C176.423 10.7135 176.365 11.0729 176.365 11.4531Z" fill="#222222"/>
<path d="M189.522 9.17188V19.25H188.068V7.54688H189.397L189.522 9.17188ZM195.217 11.7031V11.8672C195.217 12.4818 195.144 13.0521 194.998 13.5781C194.852 14.099 194.639 14.5521 194.358 14.9375C194.082 15.3229 193.74 15.6224 193.334 15.8359C192.928 16.0495 192.462 16.1563 191.936 16.1563C191.399 16.1563 190.925 16.0677 190.514 15.8906C190.102 15.7135 189.753 15.4557 189.467 15.1172C189.18 14.7786 188.951 14.3724 188.779 13.8984C188.613 13.4245 188.498 12.8906 188.436 12.2969V11.4219C188.498 10.7969 188.615 10.237 188.787 9.74219C188.959 9.2474 189.186 8.82552 189.467 8.47657C189.753 8.1224 190.1 7.85417 190.506 7.67188C190.912 7.48438 191.381 7.39063 191.912 7.39063C192.443 7.39063 192.915 7.49479 193.326 7.70313C193.738 7.90625 194.084 8.19792 194.365 8.57813C194.647 8.95834 194.858 9.41407 194.998 9.94532C195.144 10.4714 195.217 11.0573 195.217 11.7031ZM193.764 11.8672V11.7031C193.764 11.2813 193.72 10.8854 193.631 10.5156C193.542 10.1406 193.404 9.8125 193.217 9.53125C193.035 9.24479 192.8 9.02084 192.514 8.85938C192.227 8.69271 191.886 8.60938 191.49 8.60938C191.126 8.60938 190.808 8.67188 190.537 8.79688C190.272 8.92188 190.045 9.09115 189.858 9.30469C189.67 9.51302 189.516 9.75261 189.397 10.0234C189.282 10.2891 189.196 10.5651 189.139 10.8516V12.875C189.243 13.2396 189.389 13.5833 189.576 13.9063C189.764 14.224 190.014 14.4818 190.326 14.6797C190.639 14.8724 191.032 14.9688 191.506 14.9688C191.897 14.9688 192.233 14.888 192.514 14.7266C192.8 14.5599 193.035 14.3333 193.217 14.0469C193.404 13.7604 193.542 13.4323 193.631 13.0625C193.72 12.6875 193.764 12.2891 193.764 11.8672Z" fill="#222222"/>
<path d="M198.506 8.875V16H197.061V7.54688H198.467L198.506 8.875ZM201.147 7.5L201.139 8.84375C201.019 8.81771 200.904 8.80209 200.795 8.79688C200.691 8.78646 200.571 8.78125 200.436 8.78125C200.102 8.78125 199.808 8.83334 199.553 8.9375C199.298 9.04167 199.082 9.1875 198.904 9.375C198.727 9.5625 198.587 9.78646 198.483 10.0469C198.384 10.3021 198.318 10.5833 198.287 10.8906L197.881 11.125C197.881 10.6146 197.93 10.1354 198.029 9.6875C198.134 9.23959 198.292 8.84375 198.506 8.5C198.72 8.15104 198.99 7.88021 199.318 7.6875C199.652 7.48959 200.048 7.39063 200.506 7.39063C200.61 7.39063 200.73 7.40365 200.865 7.42969C201.001 7.45052 201.095 7.47396 201.147 7.5Z" fill="#222222"/>
<path d="M201.943 11.8672V11.6875C201.943 11.0781 202.032 10.513 202.209 9.99219C202.386 9.46615 202.641 9.01042 202.975 8.625C203.308 8.23438 203.712 7.93229 204.186 7.71875C204.66 7.5 205.191 7.39063 205.779 7.39063C206.373 7.39063 206.907 7.5 207.381 7.71875C207.86 7.93229 208.266 8.23438 208.6 8.625C208.938 9.01042 209.196 9.46615 209.373 9.99219C209.55 10.513 209.639 11.0781 209.639 11.6875V11.8672C209.639 12.4766 209.55 13.0417 209.373 13.5625C209.196 14.0833 208.938 14.5391 208.6 14.9297C208.266 15.3151 207.863 15.6172 207.389 15.8359C206.92 16.0495 206.389 16.1563 205.795 16.1563C205.201 16.1563 204.667 16.0495 204.193 15.8359C203.72 15.6172 203.313 15.3151 202.975 14.9297C202.641 14.5391 202.386 14.0833 202.209 13.5625C202.032 13.0417 201.943 12.4766 201.943 11.8672ZM203.389 11.6875V11.8672C203.389 12.2891 203.438 12.6875 203.537 13.0625C203.636 13.4323 203.785 13.7604 203.983 14.0469C204.186 14.3333 204.438 14.5599 204.74 14.7266C205.042 14.888 205.394 14.9688 205.795 14.9688C206.191 14.9688 206.537 14.888 206.834 14.7266C207.136 14.5599 207.386 14.3333 207.584 14.0469C207.782 13.7604 207.93 13.4323 208.029 13.0625C208.134 12.6875 208.186 12.2891 208.186 11.8672V11.6875C208.186 11.2708 208.134 10.8776 208.029 10.5078C207.93 10.1328 207.779 9.80209 207.576 9.51563C207.378 9.22396 207.128 8.99479 206.826 8.82813C206.529 8.66146 206.18 8.57813 205.779 8.57813C205.384 8.57813 205.035 8.66146 204.733 8.82813C204.436 8.99479 204.186 9.22396 203.983 9.51563C203.785 9.80209 203.636 10.1328 203.537 10.5078C203.438 10.8776 203.389 11.2708 203.389 11.6875Z" fill="#222222"/>
<path d="M212.897 9.17188V19.25H211.443V7.54688H212.772L212.897 9.17188ZM218.592 11.7031V11.8672C218.592 12.4818 218.519 13.0521 218.373 13.5781C218.227 14.099 218.014 14.5521 217.733 14.9375C217.457 15.3229 217.115 15.6224 216.709 15.8359C216.303 16.0495 215.837 16.1563 215.311 16.1563C214.774 16.1563 214.3 16.0677 213.889 15.8906C213.477 15.7135 213.128 15.4557 212.842 15.1172C212.555 14.7786 212.326 14.3724 212.154 13.8984C211.988 13.4245 211.873 12.8906 211.811 12.2969V11.4219C211.873 10.7969 211.99 10.237 212.162 9.74219C212.334 9.2474 212.561 8.82552 212.842 8.47657C213.128 8.1224 213.475 7.85417 213.881 7.67188C214.287 7.48438 214.756 7.39063 215.287 7.39063C215.818 7.39063 216.29 7.49479 216.701 7.70313C217.113 7.90625 217.459 8.19792 217.74 8.57813C218.022 8.95834 218.233 9.41407 218.373 9.94532C218.519 10.4714 218.592 11.0573 218.592 11.7031ZM217.139 11.8672V11.7031C217.139 11.2813 217.095 10.8854 217.006 10.5156C216.917 10.1406 216.779 9.8125 216.592 9.53125C216.41 9.24479 216.175 9.02084 215.889 8.85938C215.602 8.69271 215.261 8.60938 214.865 8.60938C214.501 8.60938 214.183 8.67188 213.912 8.79688C213.647 8.92188 213.42 9.09115 213.233 9.30469C213.045 9.51302 212.891 9.75261 212.772 10.0234C212.657 10.2891 212.571 10.5651 212.514 10.8516V12.875C212.618 13.2396 212.764 13.5833 212.951 13.9063C213.139 14.224 213.389 14.4818 213.701 14.6797C214.014 14.8724 214.407 14.9688 214.881 14.9688C215.272 14.9688 215.608 14.888 215.889 14.7266C216.175 14.5599 216.41 14.3333 216.592 14.0469C216.779 13.7604 216.917 13.4323 217.006 13.0625C217.095 12.6875 217.139 12.2891 217.139 11.8672Z" fill="#222222"/>
<path d="M223.943 16.1563C223.355 16.1563 222.821 16.0573 222.342 15.8594C221.868 15.6563 221.459 15.3724 221.115 15.0078C220.777 14.6432 220.516 14.2109 220.334 13.7109C220.152 13.2109 220.061 12.6641 220.061 12.0703V11.7422C220.061 11.0547 220.162 10.4427 220.365 9.90625C220.568 9.36459 220.845 8.90625 221.193 8.53125C221.542 8.15625 221.938 7.8724 222.381 7.67969C222.824 7.48698 223.282 7.39063 223.756 7.39063C224.36 7.39063 224.881 7.49479 225.318 7.70313C225.761 7.91146 226.123 8.20313 226.404 8.57813C226.686 8.94792 226.894 9.38542 227.029 9.89063C227.165 10.3906 227.233 10.9375 227.233 11.5313V12.1797H220.92V11H225.787V10.8906C225.766 10.5156 225.688 10.151 225.553 9.79688C225.423 9.44271 225.214 9.15104 224.928 8.92188C224.641 8.69271 224.251 8.57813 223.756 8.57813C223.428 8.57813 223.126 8.64844 222.85 8.78907C222.574 8.92448 222.337 9.12761 222.139 9.39844C221.941 9.66927 221.787 10 221.678 10.3906C221.568 10.7813 221.514 11.2318 221.514 11.7422V12.0703C221.514 12.4714 221.568 12.849 221.678 13.2031C221.792 13.5521 221.957 13.8594 222.17 14.125C222.389 14.3906 222.652 14.599 222.959 14.75C223.272 14.901 223.626 14.9766 224.022 14.9766C224.532 14.9766 224.964 14.8724 225.318 14.6641C225.673 14.4557 225.983 14.1771 226.248 13.8281L227.123 14.5234C226.941 14.7995 226.709 15.0625 226.428 15.3125C226.147 15.5625 225.8 15.7656 225.389 15.9219C224.983 16.0781 224.501 16.1563 223.943 16.1563Z" fill="#222222"/>
<path d="M230.365 8.875V16H228.92V7.54688H230.326L230.365 8.875ZM233.006 7.5L232.998 8.84375C232.878 8.81771 232.764 8.80209 232.654 8.79688C232.55 8.78646 232.43 8.78125 232.295 8.78125C231.962 8.78125 231.667 8.83334 231.412 8.9375C231.157 9.04167 230.941 9.1875 230.764 9.375C230.587 9.5625 230.446 9.78646 230.342 10.0469C230.243 10.3021 230.178 10.5833 230.147 10.8906L229.74 11.125C229.74 10.6146 229.79 10.1354 229.889 9.6875C229.993 9.23959 230.152 8.84375 230.365 8.5C230.579 8.15104 230.85 7.88021 231.178 7.6875C231.511 7.48959 231.907 7.39063 232.365 7.39063C232.47 7.39063 232.589 7.40365 232.725 7.42969C232.86 7.45052 232.954 7.47396 233.006 7.5Z" fill="#222222"/>
<path d="M238.272 7.54688V8.65625H233.701V7.54688H238.272ZM235.248 5.49219H236.693V13.9063C236.693 14.1927 236.738 14.4089 236.826 14.5547C236.915 14.7005 237.029 14.7969 237.17 14.8438C237.311 14.8906 237.462 14.9141 237.623 14.9141C237.743 14.9141 237.868 14.9036 237.998 14.8828C238.134 14.8568 238.235 14.8359 238.303 14.8203L238.311 16C238.196 16.0365 238.045 16.0703 237.858 16.1016C237.675 16.138 237.454 16.1563 237.193 16.1563C236.839 16.1563 236.514 16.0859 236.217 15.9453C235.92 15.8047 235.683 15.5703 235.506 15.2422C235.334 14.9089 235.248 14.4609 235.248 13.8984V5.49219Z" fill="#222222"/>
<path d="M242.342 15.125L244.693 7.54688H246.24L242.85 17.3047C242.772 17.513 242.667 17.737 242.537 17.9766C242.412 18.2214 242.251 18.4531 242.053 18.6719C241.855 18.8906 241.615 19.0677 241.334 19.2031C241.058 19.3438 240.727 19.4141 240.342 19.4141C240.227 19.4141 240.082 19.3984 239.904 19.3672C239.727 19.3359 239.602 19.3099 239.529 19.2891L239.522 18.1172C239.563 18.1224 239.628 18.1276 239.717 18.1328C239.811 18.1432 239.876 18.1484 239.912 18.1484C240.24 18.1484 240.519 18.1042 240.748 18.0156C240.977 17.9323 241.17 17.7891 241.326 17.5859C241.488 17.388 241.626 17.1146 241.74 16.7656L242.342 15.125ZM240.615 7.54688L242.811 14.1094L243.186 15.6328L242.147 16.1641L239.037 7.54688H240.615Z" fill="#222222"/>
</svg>
