<svg width="60" height="20" viewBox="0 0 60 20" fill="none" xmlns="http://www.w3.org/2000/svg">
<path d="M6.11536 19.875V18.375H7.61536V16.875H3.86536C2.89874 16.8759 1.96909 16.5036 1.27038 15.8356C0.571675 15.1677 0.157889 14.2557 0.115358 13.29V4.125C0.114422 3.15838 0.486781 2.22873 1.15474 1.53002C1.82271 0.831319 2.73467 0.417533 3.70036 0.375002H18.8654C19.832 0.374066 20.7616 0.746425 21.4603 1.41439C22.159 2.08235 22.5728 2.99431 22.6154 3.96V13.125C22.6163 14.0916 22.2439 15.0213 21.576 15.72C20.908 16.4187 19.996 16.8325 19.0304 16.875H15.1154V18.375H16.6154V19.875H6.11536ZM13.6154 16.875H9.11536V18.375H13.6154V16.875ZM3.86536 1.875C3.29129 1.87397 2.73854 2.0924 2.32026 2.48559C1.90198 2.87877 1.6498 3.41697 1.61536 3.99V13.125C1.61432 13.6991 1.83276 14.2518 2.22594 14.6701C2.61913 15.0884 3.15732 15.3406 3.73036 15.375H18.8654C19.4394 15.376 19.9922 15.1576 20.4105 14.7644C20.8287 14.3712 21.0809 13.833 21.1154 13.26V4.125C21.1164 3.55093 20.898 2.99818 20.5048 2.5799C20.1116 2.16162 19.5734 1.90944 19.0004 1.875H3.86536Z" fill="#222222"/>
<path d="M45.1388 3.75V15.125H43.6544V3.75H45.1388ZM48.795 3.75V4.98438H40.006V3.75H48.795Z" fill="#222222"/>
<path d="M54.2794 13.3984L57.631 3.75H59.2638L55.0529 15.125H53.8888L54.2794 13.3984ZM51.1466 3.75L54.4669 13.3984L54.881 15.125H53.7169L49.5138 3.75H51.1466Z" fill="#222222"/>
</svg>
