<svg width="17" height="21" viewBox="0 0 17 21" fill="none" xmlns="http://www.w3.org/2000/svg">
<path d="M5.3125 2.72434C5.03071 2.72434 4.76046 2.84137 4.5612 3.04969C4.36194 3.258 4.25 3.54054 4.25 3.83515C4.25 4.12975 4.36194 4.41229 4.5612 4.62061C4.76046 4.82892 5.03071 4.94596 5.3125 4.94596C5.59429 4.94596 5.86454 4.82892 6.0638 4.62061C6.26306 4.41229 6.375 4.12975 6.375 3.83515C6.375 3.54054 6.26306 3.258 6.0638 3.04969C5.86454 2.84137 5.59429 2.72434 5.3125 2.72434ZM2.30562 2.72434C2.52514 2.07392 2.93222 1.51071 3.47076 1.11232C4.0093 0.713937 4.65278 0.5 5.3125 0.5C5.97222 0.5 6.6157 0.713937 7.15424 1.11232C7.69278 1.51071 8.09986 2.07392 8.31937 2.72434H15.9375C16.2193 2.72434 16.4895 2.84137 16.6888 3.04969C16.8881 3.258 17 3.54054 17 3.83515C17 4.12975 16.8881 4.41229 16.6888 4.62061C16.4895 4.82892 16.2193 4.94596 15.9375 4.94596H8.31937C8.09986 5.59637 7.69278 6.15959 7.15424 6.55797C6.6157 6.95636 5.97222 7.1703 5.3125 7.1703C4.65278 7.1703 4.0093 6.95636 3.47076 6.55797C2.93222 6.15959 2.52514 5.59637 2.30562 4.94596H1.0625C0.780707 4.94596 0.510457 4.82892 0.311199 4.62061C0.111942 4.41229 0 4.12975 0 3.83515C0 3.54054 0.111942 3.258 0.311199 3.04969C0.510457 2.84137 0.780707 2.72434 1.0625 2.72434H2.30562ZM11.6875 9.38919C11.4057 9.38919 11.1355 9.50622 10.9362 9.71454C10.7369 9.92286 10.625 10.2054 10.625 10.5C10.625 10.7946 10.7369 11.0771 10.9362 11.2855C11.1355 11.4938 11.4057 11.6108 11.6875 11.6108C11.9693 11.6108 12.2395 11.4938 12.4388 11.2855C12.6381 11.0771 12.75 10.7946 12.75 10.5C12.75 10.2054 12.6381 9.92286 12.4388 9.71454C12.2395 9.50622 11.9693 9.38919 11.6875 9.38919ZM8.68062 9.38919C8.90014 8.73878 9.30722 8.17556 9.84576 7.77717C10.3843 7.37879 11.0278 7.16485 11.6875 7.16485C12.3472 7.16485 12.9907 7.37879 13.5292 7.77717C14.0678 8.17556 14.4749 8.73878 14.6944 9.38919H15.9375C16.2193 9.38919 16.4895 9.50622 16.6888 9.71454C16.8881 9.92286 17 10.2054 17 10.5C17 10.7946 16.8881 11.0771 16.6888 11.2855C16.4895 11.4938 16.2193 11.6108 15.9375 11.6108H14.6944C14.4749 12.2612 14.0678 12.8244 13.5292 13.2228C12.9907 13.6212 12.3472 13.8351 11.6875 13.8351C11.0278 13.8351 10.3843 13.6212 9.84576 13.2228C9.30722 12.8244 8.90014 12.2612 8.68062 11.6108H1.0625C0.780707 11.6108 0.510457 11.4938 0.311199 11.2855C0.111942 11.0771 0 10.7946 0 10.5C0 10.2054 0.111942 9.92286 0.311199 9.71454C0.510457 9.50622 0.780707 9.38919 1.0625 9.38919H8.68062ZM5.3125 16.054C5.03071 16.054 4.76046 16.1711 4.5612 16.3794C4.36194 16.5877 4.25 16.8702 4.25 17.1649C4.25 17.4595 4.36194 17.742 4.5612 17.9503C4.76046 18.1586 5.03071 18.2757 5.3125 18.2757C5.59429 18.2757 5.86454 18.1586 6.0638 17.9503C6.26306 17.742 6.375 17.4595 6.375 17.1649C6.375 16.8702 6.26306 16.5877 6.0638 16.3794C5.86454 16.1711 5.59429 16.054 5.3125 16.054ZM2.30562 16.054C2.52514 15.4036 2.93222 14.8404 3.47076 14.442C4.0093 14.0436 4.65278 13.8297 5.3125 13.8297C5.97222 13.8297 6.6157 14.0436 7.15424 14.442C7.69278 14.8404 8.09986 15.4036 8.31937 16.054H15.9375C16.2193 16.054 16.4895 16.1711 16.6888 16.3794C16.8881 16.5877 17 16.8702 17 17.1649C17 17.4595 16.8881 17.742 16.6888 17.9503C16.4895 18.1586 16.2193 18.2757 15.9375 18.2757H8.31937C8.09986 18.9261 7.69278 19.4893 7.15424 19.8877C6.6157 20.2861 5.97222 20.5 5.3125 20.5C4.65278 20.5 4.0093 20.2861 3.47076 19.8877C2.93222 19.4893 2.52514 18.9261 2.30562 18.2757H1.0625C0.780707 18.2757 0.510457 18.1586 0.311199 17.9503C0.111942 17.742 0 17.4595 0 17.1649C0 16.8702 0.111942 16.5877 0.311199 16.3794C0.510457 16.1711 0.780707 16.054 1.0625 16.054H2.30562Z" fill="#5F5F5F"/>
</svg>
