<svg width="118" height="21" viewBox="0 0 118 21" fill="none" xmlns="http://www.w3.org/2000/svg">
<path d="M20.5479 3.86422H16.3172V3.03088C16.3172 2.36784 16.0497 1.73196 15.5737 1.26312C15.0976 0.794276 14.4519 0.530884 13.7787 0.530884H8.70177C8.02853 0.530884 7.38286 0.794276 6.90681 1.26312C6.43076 1.73196 6.16331 2.36784 6.16331 3.03088V3.86422H1.93254C1.48371 3.86422 1.05327 4.03981 0.7359 4.35237C0.41853 4.66493 0.240234 5.08886 0.240234 5.53088V18.8642C0.240234 19.3062 0.41853 19.7302 0.7359 20.0427C1.05327 20.3553 1.48371 20.5309 1.93254 20.5309H20.5479C20.9968 20.5309 21.4272 20.3553 21.7446 20.0427C22.0619 19.7302 22.2402 19.3062 22.2402 18.8642V5.53088C22.2402 5.08886 22.0619 4.66493 21.7446 4.35237C21.4272 4.03981 20.9968 3.86422 20.5479 3.86422ZM7.85562 3.03088C7.85562 2.80987 7.94477 2.59791 8.10345 2.44163C8.26214 2.28535 8.47736 2.19755 8.70177 2.19755H13.7787C14.0031 2.19755 14.2183 2.28535 14.377 2.44163C14.5357 2.59791 14.6249 2.80987 14.6249 3.03088V3.86422H7.85562V3.03088ZM20.5479 18.8642H1.93254V5.53088H20.5479V18.8642ZM14.6249 12.1975C14.6249 12.4186 14.5357 12.6305 14.377 12.7868C14.2183 12.9431 14.0031 13.0309 13.7787 13.0309H12.0864V14.6975C12.0864 14.9186 11.9972 15.1305 11.8386 15.2868C11.6799 15.4431 11.4646 15.5309 11.2402 15.5309C11.0158 15.5309 10.8006 15.4431 10.6419 15.2868C10.4832 15.1305 10.3941 14.9186 10.3941 14.6975V13.0309H8.70177C8.47736 13.0309 8.26214 12.9431 8.10345 12.7868C7.94477 12.6305 7.85562 12.4186 7.85562 12.1975C7.85562 11.9765 7.94477 11.7646 8.10345 11.6083C8.26214 11.452 8.47736 11.3642 8.70177 11.3642H10.3941V9.69755C10.3941 9.47654 10.4832 9.26457 10.6419 9.10829C10.8006 8.95201 11.0158 8.86422 11.2402 8.86422C11.4646 8.86422 11.6799 8.95201 11.8386 9.10829C11.9972 9.26457 12.0864 9.47654 12.0864 9.69755V11.3642H13.7787C14.0031 11.3642 14.2183 11.452 14.377 11.6083C14.5357 11.7646 14.6249 11.9765 14.6249 12.1975Z" fill="black"/>
<path d="M42.0684 4.15588V15.5309H40.5605V4.15588H42.0684ZM46.834 9.27307V10.5074H41.7402V9.27307H46.834ZM47.6074 4.15588V5.39026H41.7402V4.15588H47.6074Z" fill="#222222"/>
<path d="M50.7559 7.07776V15.5309H49.3027V7.07776H50.7559ZM49.1934 4.83557C49.1934 4.6012 49.2637 4.40328 49.4043 4.24182C49.5501 4.08036 49.7637 3.99963 50.0449 3.99963C50.321 3.99963 50.5319 4.08036 50.6777 4.24182C50.8288 4.40328 50.9043 4.6012 50.9043 4.83557C50.9043 5.05953 50.8288 5.25224 50.6777 5.4137C50.5319 5.56995 50.321 5.64807 50.0449 5.64807C49.7637 5.64807 49.5501 5.56995 49.4043 5.4137C49.2637 5.25224 49.1934 5.05953 49.1934 4.83557Z" fill="#222222"/>
<path d="M54.5215 8.40588V15.5309H53.0762V7.07776H54.4824L54.5215 8.40588ZM57.1621 7.03088L57.1543 8.37463C57.0345 8.34859 56.9199 8.33297 56.8105 8.32776C56.7064 8.31734 56.5866 8.31213 56.4512 8.31213C56.1178 8.31213 55.8236 8.36422 55.5684 8.46838C55.3132 8.57255 55.097 8.71838 54.9199 8.90588C54.7428 9.09338 54.6022 9.31734 54.498 9.57776C54.3991 9.83297 54.334 10.1142 54.3027 10.4215L53.8965 10.6559C53.8965 10.1455 53.946 9.6663 54.0449 9.21838C54.1491 8.77047 54.3079 8.37463 54.5215 8.03088C54.735 7.68193 55.0059 7.41109 55.334 7.21838C55.6673 7.02047 56.0632 6.92151 56.5215 6.92151C56.6257 6.92151 56.7454 6.93453 56.8809 6.96057C57.0163 6.9814 57.11 7.00484 57.1621 7.03088Z" fill="#222222"/>
<path d="M63.4199 13.2887C63.4199 13.0804 63.373 12.8877 63.2793 12.7106C63.1908 12.5283 63.0059 12.3642 62.7246 12.2184C62.4486 12.0673 62.0319 11.9371 61.4746 11.8278C61.0059 11.7288 60.5814 11.6116 60.2012 11.4762C59.8262 11.3408 59.5059 11.1767 59.2402 10.984C58.9798 10.7913 58.7793 10.5647 58.6387 10.3043C58.498 10.0439 58.4277 9.73922 58.4277 9.39026C58.4277 9.05693 58.5007 8.74182 58.6465 8.44495C58.7975 8.14807 59.0085 7.88505 59.2793 7.65588C59.5553 7.42672 59.8861 7.24703 60.2715 7.11682C60.6569 6.98661 61.0866 6.92151 61.5605 6.92151C62.2376 6.92151 62.8158 7.0413 63.2949 7.28088C63.7741 7.52047 64.1413 7.84078 64.3965 8.24182C64.6517 8.63765 64.7793 9.07776 64.7793 9.56213H63.334C63.334 9.32776 63.2637 9.1012 63.123 8.88245C62.9876 8.65849 62.7871 8.47359 62.5215 8.32776C62.2611 8.18193 61.9408 8.10901 61.5605 8.10901C61.1595 8.10901 60.834 8.17151 60.584 8.29651C60.3392 8.4163 60.1595 8.56995 60.0449 8.75745C59.9355 8.94495 59.8809 9.14286 59.8809 9.3512C59.8809 9.50745 59.9069 9.64807 59.959 9.77307C60.0163 9.89286 60.1152 10.0048 60.2559 10.109C60.3965 10.208 60.5944 10.3017 60.8496 10.3903C61.1048 10.4788 61.4303 10.5673 61.8262 10.6559C62.5189 10.8121 63.0892 10.9996 63.5371 11.2184C63.985 11.4371 64.3184 11.7054 64.5371 12.0231C64.7559 12.3408 64.8652 12.7262 64.8652 13.1793C64.8652 13.5491 64.7871 13.8877 64.6309 14.1949C64.4798 14.5022 64.2585 14.7679 63.9668 14.9918C63.6803 15.2106 63.3366 15.3824 62.9355 15.5074C62.5397 15.6272 62.0944 15.6871 61.5996 15.6871C60.8548 15.6871 60.2246 15.5543 59.709 15.2887C59.1934 15.0231 58.8027 14.6793 58.5371 14.2574C58.2715 13.8356 58.1387 13.3903 58.1387 12.9215H59.5918C59.6126 13.3173 59.7272 13.6324 59.9355 13.8668C60.1439 14.096 60.3991 14.2601 60.7012 14.359C61.0033 14.4528 61.3027 14.4996 61.5996 14.4996C61.9954 14.4996 62.3262 14.4476 62.5918 14.3434C62.8626 14.2392 63.0684 14.096 63.209 13.9137C63.3496 13.7314 63.4199 13.5231 63.4199 13.2887Z" fill="#222222"/>
<path d="M70.3027 7.07776V8.18713H65.7324V7.07776H70.3027ZM67.2793 5.02307H68.7246V13.4371C68.7246 13.7236 68.7689 13.9397 68.8574 14.0856C68.946 14.2314 69.0605 14.3278 69.2012 14.3746C69.3418 14.4215 69.4928 14.4449 69.6543 14.4449C69.7741 14.4449 69.8991 14.4345 70.0293 14.4137C70.1647 14.3877 70.2663 14.3668 70.334 14.3512L70.3418 15.5309C70.2272 15.5673 70.0762 15.6012 69.8887 15.6324C69.7064 15.6689 69.485 15.6871 69.2246 15.6871C68.8704 15.6871 68.5449 15.6168 68.248 15.4762C67.9512 15.3356 67.7142 15.1012 67.5371 14.7731C67.3652 14.4397 67.2793 13.9918 67.2793 13.4293V5.02307Z" fill="#222222"/>
<path d="M80.9512 14.0856V9.73401C80.9512 9.40068 80.8835 9.11161 80.748 8.86682C80.6178 8.61682 80.4199 8.42411 80.1543 8.2887C79.8887 8.15328 79.5605 8.08557 79.1699 8.08557C78.8053 8.08557 78.485 8.14807 78.209 8.27307C77.9382 8.39807 77.7246 8.56213 77.5684 8.76526C77.4173 8.96838 77.3418 9.18713 77.3418 9.42151H75.8965C75.8965 9.11943 75.9746 8.81995 76.1309 8.52307C76.2871 8.2262 76.5111 7.95797 76.8027 7.71838C77.0996 7.47359 77.4538 7.28088 77.8652 7.14026C78.2819 6.99443 78.7454 6.92151 79.2559 6.92151C79.8704 6.92151 80.4121 7.02568 80.8809 7.23401C81.3548 7.44234 81.7246 7.75745 81.9902 8.17932C82.2611 8.59599 82.3965 9.11943 82.3965 9.74963V13.6871C82.3965 13.9684 82.4199 14.2679 82.4668 14.5856C82.5189 14.9033 82.5944 15.1767 82.6934 15.4059V15.5309H81.1855C81.1126 15.3642 81.0553 15.1429 81.0137 14.8668C80.972 14.5856 80.9512 14.3252 80.9512 14.0856ZM81.2012 10.4059L81.2168 11.4215H79.7559C79.3444 11.4215 78.9772 11.4554 78.6543 11.5231C78.3314 11.5856 78.0605 11.6819 77.8418 11.8121C77.623 11.9423 77.4564 12.1064 77.3418 12.3043C77.2272 12.497 77.1699 12.7236 77.1699 12.984C77.1699 13.2496 77.2298 13.4918 77.3496 13.7106C77.4694 13.9293 77.6491 14.1038 77.8887 14.234C78.1335 14.359 78.4329 14.4215 78.7871 14.4215C79.2298 14.4215 79.6204 14.3278 79.959 14.1403C80.2975 13.9528 80.5658 13.7236 80.7637 13.4528C80.9668 13.1819 81.0762 12.9189 81.0918 12.6637L81.709 13.359C81.6725 13.5778 81.5736 13.8199 81.4121 14.0856C81.2507 14.3512 81.0345 14.6064 80.7637 14.8512C80.498 15.0908 80.1803 15.2913 79.8105 15.4528C79.446 15.609 79.0345 15.6871 78.5762 15.6871C78.0033 15.6871 77.5007 15.5752 77.0684 15.3512C76.6413 15.1272 76.3079 14.8278 76.0684 14.4528C75.834 14.0726 75.7168 13.6481 75.7168 13.1793C75.7168 12.7262 75.8053 12.3278 75.9824 11.984C76.1595 11.6351 76.4147 11.346 76.748 11.1168C77.0814 10.8824 77.4824 10.7054 77.9512 10.5856C78.4199 10.4658 78.9434 10.4059 79.5215 10.4059H81.2012Z" fill="#222222"/>
<path d="M86.2402 7.07776V15.5309H84.7871V7.07776H86.2402ZM84.6777 4.83557C84.6777 4.6012 84.748 4.40328 84.8887 4.24182C85.0345 4.08036 85.248 3.99963 85.5293 3.99963C85.8053 3.99963 86.0163 4.08036 86.1621 4.24182C86.3132 4.40328 86.3887 4.6012 86.3887 4.83557C86.3887 5.05953 86.3132 5.25224 86.1621 5.4137C86.0163 5.56995 85.8053 5.64807 85.5293 5.64807C85.248 5.64807 85.0345 5.56995 84.8887 5.4137C84.748 5.25224 84.6777 5.05953 84.6777 4.83557Z" fill="#222222"/>
<path d="M93.8887 13.8903V3.53088H95.3418V15.5309H94.0137L93.8887 13.8903ZM88.2012 11.3981V11.234C88.2012 10.5882 88.2793 10.0022 88.4355 9.4762C88.597 8.94495 88.8236 8.48922 89.1152 8.10901C89.4121 7.7288 89.7637 7.43713 90.1699 7.23401C90.5814 7.02568 91.0397 6.92151 91.5449 6.92151C92.0762 6.92151 92.5397 7.01526 92.9355 7.20276C93.3366 7.38505 93.6751 7.65328 93.9512 8.00745C94.2324 8.3564 94.4538 8.77828 94.6152 9.27307C94.7767 9.76786 94.8887 10.3278 94.9512 10.9528V11.6715C94.8939 12.2913 94.7819 12.8486 94.6152 13.3434C94.4538 13.8382 94.2324 14.2601 93.9512 14.609C93.6751 14.958 93.3366 15.2262 92.9355 15.4137C92.5345 15.596 92.0658 15.6871 91.5293 15.6871C91.0345 15.6871 90.5814 15.5804 90.1699 15.3668C89.7637 15.1533 89.4121 14.8538 89.1152 14.4684C88.8236 14.083 88.597 13.6298 88.4355 13.109C88.2793 12.583 88.2012 12.0127 88.2012 11.3981ZM89.6543 11.234V11.3981C89.6543 11.8199 89.696 12.2158 89.7793 12.5856C89.8678 12.9554 90.0033 13.2809 90.1855 13.5621C90.3678 13.8434 90.5996 14.0647 90.8809 14.2262C91.1621 14.3824 91.498 14.4606 91.8887 14.4606C92.3678 14.4606 92.7611 14.359 93.0684 14.1559C93.3809 13.9528 93.6309 13.6845 93.8184 13.3512C94.0059 13.0179 94.1517 12.6559 94.2559 12.2653V10.3824C94.1934 10.096 94.1022 9.81995 93.9824 9.55432C93.8678 9.28349 93.7168 9.0439 93.5293 8.83557C93.347 8.62203 93.1204 8.45276 92.8496 8.32776C92.584 8.20276 92.2689 8.14026 91.9043 8.14026C91.5085 8.14026 91.1673 8.22359 90.8809 8.39026C90.5996 8.55172 90.3678 8.77568 90.1855 9.06213C90.0033 9.34338 89.8678 9.67151 89.7793 10.0465C89.696 10.4163 89.6543 10.8121 89.6543 11.234Z" fill="#222222"/>
<path d="M103.014 3.53088V15.5309H101.561V3.53088H103.014ZM108.178 7.07776L104.49 11.0231L102.428 13.1637L102.311 11.6246L103.787 9.85901L106.412 7.07776H108.178ZM106.857 15.5309L103.842 11.4996L104.592 10.2106L108.561 15.5309H106.857Z" fill="#222222"/>
<path d="M111.24 7.07776V15.5309H109.787V7.07776H111.24ZM109.678 4.83557C109.678 4.6012 109.748 4.40328 109.889 4.24182C110.035 4.08036 110.248 3.99963 110.529 3.99963C110.805 3.99963 111.016 4.08036 111.162 4.24182C111.313 4.40328 111.389 4.6012 111.389 4.83557C111.389 5.05953 111.313 5.25224 111.162 5.4137C111.016 5.56995 110.805 5.64807 110.529 5.64807C110.248 5.64807 110.035 5.56995 109.889 5.4137C109.748 5.25224 109.678 5.05953 109.678 4.83557Z" fill="#222222"/>
<path d="M117.1 7.07776V8.18713H112.529V7.07776H117.1ZM114.076 5.02307H115.521V13.4371C115.521 13.7236 115.566 13.9397 115.654 14.0856C115.743 14.2314 115.857 14.3278 115.998 14.3746C116.139 14.4215 116.29 14.4449 116.451 14.4449C116.571 14.4449 116.696 14.4345 116.826 14.4137C116.962 14.3877 117.063 14.3668 117.131 14.3512L117.139 15.5309C117.024 15.5673 116.873 15.6012 116.686 15.6324C116.503 15.6689 116.282 15.6871 116.021 15.6871C115.667 15.6871 115.342 15.6168 115.045 15.4762C114.748 15.3356 114.511 15.1012 114.334 14.7731C114.162 14.4397 114.076 13.9918 114.076 13.4293V5.02307Z" fill="#222222"/>
</svg>
