<svg width="115" height="22" viewBox="0 0 115 22" fill="none" xmlns="http://www.w3.org/2000/svg">
<path d="M19.5 0.247559C19.8978 0.247559 20.2794 0.405594 20.5607 0.686898C20.842 0.968203 21 1.34973 21 1.74756V19.7476C21 20.1454 20.842 20.5269 20.5607 20.8082C20.2794 21.0895 19.8978 21.2476 19.5 21.2476H1.5C1.10218 21.2476 0.720644 21.0895 0.43934 20.8082C0.158035 20.5269 0 20.1454 0 19.7476V1.74756C0 1.34973 0.158035 0.968203 0.43934 0.686898C0.720644 0.405594 1.10218 0.247559 1.5 0.247559H19.5ZM19.5 1.74756H1.5V13.3726H1.6425C1.92 13.3426 2.1825 13.2451 2.3925 13.0876L2.4975 13.0051C3.04837 12.5136 3.7618 12.2438 4.5 12.2476C5.2425 12.2476 5.9625 12.5101 6.5025 12.9976C6.765 13.2451 7.125 13.3726 7.5 13.3726C7.875 13.3726 8.235 13.2451 8.4975 12.9976C9.0491 12.5082 9.76266 12.241 10.5 12.2476C11.2425 12.2476 11.9625 12.5101 12.5025 12.9976C12.765 13.2451 13.125 13.3726 13.5 13.3726C13.875 13.3726 14.235 13.2451 14.4975 12.9976C15.0495 12.5088 15.7628 12.2417 16.5 12.2476C17.2425 12.2476 17.955 12.5101 18.5025 12.9976C18.765 13.2451 19.125 13.3726 19.5 13.3726V14.8726H19.3275C18.6497 14.839 18.0039 14.5743 17.4975 14.1226C17.2228 13.8785 16.8674 13.7448 16.5 13.7476C16.125 13.7476 15.765 13.8751 15.5025 14.1226C14.9505 14.6113 14.2372 14.8784 13.5 14.8726C12.7628 14.8784 12.0495 14.6113 11.4975 14.1226C11.2228 13.8785 10.8674 13.7448 10.5 13.7476C10.125 13.7476 9.765 13.8751 9.5025 14.1226C8.95052 14.6113 8.23721 14.8784 7.5 14.8726C6.76279 14.8784 6.04948 14.6113 5.4975 14.1226C5.22285 13.8785 4.86744 13.7448 4.5 13.7476C4.125 13.7476 3.765 13.8751 3.5025 14.1226C2.95052 14.6113 2.23721 14.8784 1.5 14.8726V17.1226H1.6425C1.92 17.0926 2.1825 16.9951 2.3925 16.8376L2.4975 16.7551C3.04837 16.2636 3.7618 15.9938 4.5 15.9976C5.2425 15.9976 5.9625 16.2601 6.5025 16.7476C6.765 16.9951 7.125 17.1226 7.5 17.1226C7.875 17.1226 8.235 16.9951 8.4975 16.7476C9.0491 16.2582 9.76266 15.991 10.5 15.9976C11.2425 15.9976 11.9625 16.2601 12.5025 16.7476C12.765 16.9951 13.125 17.1226 13.5 17.1226C13.875 17.1226 14.235 16.9951 14.4975 16.7476C15.0495 16.2588 15.7628 15.9917 16.5 15.9976C17.2425 15.9976 17.955 16.2601 18.5025 16.7476C18.765 16.9951 19.125 17.1226 19.5 17.1226V18.6226H19.3275C18.6497 18.589 18.0039 18.3243 17.4975 17.8726C17.2228 17.6285 16.8674 17.4948 16.5 17.4976C16.125 17.4976 15.765 17.6251 15.5025 17.8726C14.9505 18.3613 14.2372 18.6284 13.5 18.6226C12.7628 18.6284 12.0495 18.3613 11.4975 17.8726C11.2228 17.6285 10.8674 17.4948 10.5 17.4976C10.125 17.4976 9.765 17.6251 9.5025 17.8726C8.95052 18.3613 8.23721 18.6284 7.5 18.6226C6.76279 18.6284 6.04948 18.3613 5.4975 17.8726C5.22285 17.6285 4.86744 17.4948 4.5 17.4976C4.125 17.4976 3.765 17.6251 3.5025 17.8726C2.95052 18.3613 2.23721 18.6284 1.5 18.6226V19.7476H19.5V1.74756ZM15 3.99756C15.5967 3.99756 16.169 4.23461 16.591 4.65657C17.0129 5.07853 17.25 5.65082 17.25 6.24756C17.25 6.8443 17.0129 7.41659 16.591 7.83855C16.169 8.26051 15.5967 8.49756 15 8.49756C14.4033 8.49756 13.831 8.26051 13.409 7.83855C12.9871 7.41659 12.75 6.8443 12.75 6.24756C12.75 5.65082 12.9871 5.07853 13.409 4.65657C13.831 4.23461 14.4033 3.99756 15 3.99756ZM15 5.49756C14.8011 5.49756 14.6103 5.57658 14.4697 5.71723C14.329 5.85788 14.25 6.04865 14.25 6.24756C14.25 6.44647 14.329 6.63724 14.4697 6.77789C14.6103 6.91854 14.8011 6.99756 15 6.99756C15.1989 6.99756 15.3897 6.91854 15.5303 6.77789C15.671 6.63724 15.75 6.44647 15.75 6.24756C15.75 6.04865 15.671 5.85788 15.5303 5.71723C15.3897 5.57658 15.1989 5.49756 15 5.49756Z" fill="#222222"/>
<path d="M43.3125 12.3101L45.5703 4.37256H46.6641L46.0312 7.4585L43.6016 15.7476H42.5156L43.3125 12.3101ZM40.9766 4.37256L42.7734 12.1538L43.3125 15.7476H42.2344L39.4766 4.37256H40.9766ZM49.5859 12.146L51.3438 4.37256H52.8516L50.1016 15.7476H49.0234L49.5859 12.146ZM46.8281 4.37256L49.0234 12.3101L49.8203 15.7476H48.7344L46.3906 7.4585L45.75 4.37256H46.8281Z" fill="#222222"/>
<path d="M59.0234 14.3022V9.95068C59.0234 9.61735 58.9557 9.32829 58.8203 9.0835C58.6901 8.8335 58.4922 8.64079 58.2266 8.50537C57.9609 8.36995 57.6328 8.30225 57.2422 8.30225C56.8776 8.30225 56.5573 8.36475 56.2812 8.48975C56.0104 8.61475 55.7969 8.77881 55.6406 8.98193C55.4896 9.18506 55.4141 9.40381 55.4141 9.63818H53.9688C53.9688 9.3361 54.0469 9.03662 54.2031 8.73975C54.3594 8.44287 54.5833 8.17464 54.875 7.93506C55.1719 7.69027 55.526 7.49756 55.9375 7.35693C56.3542 7.2111 56.8177 7.13818 57.3281 7.13818C57.9427 7.13818 58.4844 7.24235 58.9531 7.45068C59.4271 7.65902 59.7969 7.97412 60.0625 8.396C60.3333 8.81266 60.4688 9.3361 60.4688 9.96631V13.9038C60.4688 14.1851 60.4922 14.4845 60.5391 14.8022C60.5911 15.12 60.6667 15.3934 60.7656 15.6226V15.7476H59.2578C59.1849 15.5809 59.1276 15.3595 59.0859 15.0835C59.0443 14.8022 59.0234 14.5418 59.0234 14.3022ZM59.2734 10.6226L59.2891 11.6382H57.8281C57.4167 11.6382 57.0495 11.672 56.7266 11.7397C56.4036 11.8022 56.1328 11.8986 55.9141 12.0288C55.6953 12.159 55.5286 12.3231 55.4141 12.521C55.2995 12.7137 55.2422 12.9403 55.2422 13.2007C55.2422 13.4663 55.3021 13.7085 55.4219 13.9272C55.5417 14.146 55.7214 14.3205 55.9609 14.4507C56.2057 14.5757 56.5052 14.6382 56.8594 14.6382C57.3021 14.6382 57.6927 14.5444 58.0312 14.3569C58.3698 14.1694 58.638 13.9403 58.8359 13.6694C59.0391 13.3986 59.1484 13.1356 59.1641 12.8804L59.7812 13.5757C59.7448 13.7944 59.6458 14.0366 59.4844 14.3022C59.3229 14.5679 59.1068 14.8231 58.8359 15.0679C58.5703 15.3075 58.2526 15.508 57.8828 15.6694C57.5182 15.8257 57.1068 15.9038 56.6484 15.9038C56.0755 15.9038 55.5729 15.7918 55.1406 15.5679C54.7135 15.3439 54.3802 15.0444 54.1406 14.6694C53.9062 14.2892 53.7891 13.8647 53.7891 13.396C53.7891 12.9429 53.8776 12.5444 54.0547 12.2007C54.2318 11.8517 54.487 11.5627 54.8203 11.3335C55.1536 11.0991 55.5547 10.922 56.0234 10.8022C56.4922 10.6825 57.0156 10.6226 57.5938 10.6226H59.2734Z" fill="#222222"/>
<path d="M66.2812 7.29443V8.40381H61.7109V7.29443H66.2812ZM63.2578 5.23975H64.7031V13.6538C64.7031 13.9403 64.7474 14.1564 64.8359 14.3022C64.9245 14.4481 65.0391 14.5444 65.1797 14.5913C65.3203 14.6382 65.4714 14.6616 65.6328 14.6616C65.7526 14.6616 65.8776 14.6512 66.0078 14.6304C66.1432 14.6043 66.2448 14.5835 66.3125 14.5679L66.3203 15.7476C66.2057 15.784 66.0547 15.8179 65.8672 15.8491C65.6849 15.8856 65.4635 15.9038 65.2031 15.9038C64.849 15.9038 64.5234 15.8335 64.2266 15.6929C63.9297 15.5522 63.6927 15.3179 63.5156 14.9897C63.3438 14.6564 63.2578 14.2085 63.2578 13.646V5.23975Z" fill="#222222"/>
<path d="M71.4844 15.9038C70.8958 15.9038 70.362 15.8049 69.8828 15.6069C69.4089 15.4038 69 15.12 68.6562 14.7554C68.3177 14.3908 68.0573 13.9585 67.875 13.4585C67.6927 12.9585 67.6016 12.4116 67.6016 11.8179V11.4897C67.6016 10.8022 67.7031 10.1903 67.9062 9.65381C68.1094 9.11214 68.3854 8.65381 68.7344 8.27881C69.0833 7.90381 69.4792 7.61995 69.9219 7.42725C70.3646 7.23454 70.8229 7.13818 71.2969 7.13818C71.901 7.13818 72.4219 7.24235 72.8594 7.45068C73.3021 7.65902 73.6641 7.95068 73.9453 8.32568C74.2266 8.69548 74.4349 9.13298 74.5703 9.63818C74.7057 10.1382 74.7734 10.6851 74.7734 11.2788V11.9272H68.4609V10.7476H73.3281V10.6382C73.3073 10.2632 73.2292 9.8986 73.0938 9.54443C72.9635 9.19027 72.7552 8.8986 72.4688 8.66943C72.1823 8.44027 71.7917 8.32568 71.2969 8.32568C70.9688 8.32568 70.6667 8.396 70.3906 8.53662C70.1146 8.67204 69.8776 8.87516 69.6797 9.146C69.4818 9.41683 69.3281 9.74756 69.2188 10.1382C69.1094 10.5288 69.0547 10.9793 69.0547 11.4897V11.8179C69.0547 12.2189 69.1094 12.5965 69.2188 12.9507C69.3333 13.2996 69.4974 13.6069 69.7109 13.8726C69.9297 14.1382 70.1927 14.3465 70.5 14.4976C70.8125 14.6486 71.1667 14.7241 71.5625 14.7241C72.0729 14.7241 72.5052 14.62 72.8594 14.4116C73.2135 14.2033 73.5234 13.9246 73.7891 13.5757L74.6641 14.271C74.4818 14.547 74.25 14.8101 73.9688 15.0601C73.6875 15.3101 73.3411 15.5132 72.9297 15.6694C72.5234 15.8257 72.0417 15.9038 71.4844 15.9038Z" fill="#222222"/>
<path d="M77.9062 8.62256V15.7476H76.4609V7.29443H77.8672L77.9062 8.62256ZM80.5469 7.24756L80.5391 8.59131C80.4193 8.56527 80.3047 8.54964 80.1953 8.54443C80.0911 8.53402 79.9714 8.52881 79.8359 8.52881C79.5026 8.52881 79.2083 8.58089 78.9531 8.68506C78.6979 8.78923 78.4818 8.93506 78.3047 9.12256C78.1276 9.31006 77.987 9.53402 77.8828 9.79443C77.7839 10.0496 77.7188 10.3309 77.6875 10.6382L77.2812 10.8726C77.2812 10.3621 77.3307 9.88298 77.4297 9.43506C77.5339 8.98714 77.6927 8.59131 77.9062 8.24756C78.1198 7.8986 78.3906 7.62777 78.7188 7.43506C79.0521 7.23714 79.4479 7.13818 79.9062 7.13818C80.0104 7.13818 80.1302 7.1512 80.2656 7.17725C80.401 7.19808 80.4948 7.22152 80.5469 7.24756Z" fill="#222222"/>
<path d="M84.1641 15.7476H82.7188V6.40381C82.7188 5.79443 82.8281 5.28141 83.0469 4.86475C83.2708 4.44287 83.5911 4.12516 84.0078 3.91162C84.4245 3.69287 84.9193 3.5835 85.4922 3.5835C85.6589 3.5835 85.8255 3.59391 85.9922 3.61475C86.1641 3.63558 86.3307 3.66683 86.4922 3.7085L86.4141 4.88818C86.3047 4.86214 86.1797 4.84391 86.0391 4.8335C85.9036 4.82308 85.7682 4.81787 85.6328 4.81787C85.3255 4.81787 85.0599 4.88037 84.8359 5.00537C84.6172 5.12516 84.4505 5.30225 84.3359 5.53662C84.2214 5.771 84.1641 6.06006 84.1641 6.40381V15.7476ZM85.9609 7.29443V8.40381H81.3828V7.29443H85.9609Z" fill="#222222"/>
<path d="M89.0156 8.62256V15.7476H87.5703V7.29443H88.9766L89.0156 8.62256ZM91.6562 7.24756L91.6484 8.59131C91.5286 8.56527 91.4141 8.54964 91.3047 8.54443C91.2005 8.53402 91.0807 8.52881 90.9453 8.52881C90.612 8.52881 90.3177 8.58089 90.0625 8.68506C89.8073 8.78923 89.5911 8.93506 89.4141 9.12256C89.237 9.31006 89.0964 9.53402 88.9922 9.79443C88.8932 10.0496 88.8281 10.3309 88.7969 10.6382L88.3906 10.8726C88.3906 10.3621 88.4401 9.88298 88.5391 9.43506C88.6432 8.98714 88.8021 8.59131 89.0156 8.24756C89.2292 7.8986 89.5 7.62777 89.8281 7.43506C90.1615 7.23714 90.5573 7.13818 91.0156 7.13818C91.1198 7.13818 91.2396 7.1512 91.375 7.17725C91.5104 7.19808 91.6042 7.22152 91.6562 7.24756Z" fill="#222222"/>
<path d="M92.4531 11.6147V11.4351C92.4531 10.8257 92.5417 10.2606 92.7188 9.73975C92.8958 9.2137 93.151 8.75798 93.4844 8.37256C93.8177 7.98193 94.2214 7.67985 94.6953 7.46631C95.1693 7.24756 95.7005 7.13818 96.2891 7.13818C96.8828 7.13818 97.4167 7.24756 97.8906 7.46631C98.3698 7.67985 98.776 7.98193 99.1094 8.37256C99.4479 8.75798 99.7057 9.2137 99.8828 9.73975C100.06 10.2606 100.148 10.8257 100.148 11.4351V11.6147C100.148 12.2241 100.06 12.7892 99.8828 13.3101C99.7057 13.8309 99.4479 14.2866 99.1094 14.6772C98.776 15.0627 98.3724 15.3647 97.8984 15.5835C97.4297 15.797 96.8984 15.9038 96.3047 15.9038C95.7109 15.9038 95.1771 15.797 94.7031 15.5835C94.2292 15.3647 93.8229 15.0627 93.4844 14.6772C93.151 14.2866 92.8958 13.8309 92.7188 13.3101C92.5417 12.7892 92.4531 12.2241 92.4531 11.6147ZM93.8984 11.4351V11.6147C93.8984 12.0366 93.9479 12.4351 94.0469 12.8101C94.1458 13.1799 94.2943 13.508 94.4922 13.7944C94.6953 14.0809 94.9479 14.3075 95.25 14.4741C95.5521 14.6356 95.9036 14.7163 96.3047 14.7163C96.7005 14.7163 97.0469 14.6356 97.3438 14.4741C97.6458 14.3075 97.8958 14.0809 98.0938 13.7944C98.2917 13.508 98.4401 13.1799 98.5391 12.8101C98.6432 12.4351 98.6953 12.0366 98.6953 11.6147V11.4351C98.6953 11.0184 98.6432 10.6252 98.5391 10.2554C98.4401 9.88037 98.2891 9.54964 98.0859 9.26318C97.888 8.97152 97.638 8.74235 97.3359 8.57568C97.0391 8.40902 96.6901 8.32568 96.2891 8.32568C95.8932 8.32568 95.5443 8.40902 95.2422 8.57568C94.9453 8.74235 94.6953 8.97152 94.4922 9.26318C94.2943 9.54964 94.1458 9.88037 94.0469 10.2554C93.9479 10.6252 93.8984 11.0184 93.8984 11.4351Z" fill="#222222"/>
<path d="M103.406 9.09912V15.7476H101.961V7.29443H103.328L103.406 9.09912ZM103.062 11.2007L102.461 11.1772C102.466 10.5991 102.552 10.0653 102.719 9.57568C102.885 9.08089 103.12 8.6512 103.422 8.28662C103.724 7.92204 104.083 7.64079 104.5 7.44287C104.922 7.23975 105.388 7.13818 105.898 7.13818C106.315 7.13818 106.69 7.19548 107.023 7.31006C107.357 7.41943 107.641 7.59652 107.875 7.84131C108.115 8.0861 108.297 8.40381 108.422 8.79443C108.547 9.17985 108.609 9.6512 108.609 10.2085V15.7476H107.156V10.1929C107.156 9.75016 107.091 9.396 106.961 9.13037C106.831 8.85954 106.641 8.66423 106.391 8.54443C106.141 8.41943 105.833 8.35693 105.469 8.35693C105.109 8.35693 104.781 8.43245 104.484 8.5835C104.193 8.73454 103.94 8.94287 103.727 9.2085C103.518 9.47412 103.354 9.77881 103.234 10.1226C103.12 10.4611 103.062 10.8205 103.062 11.2007Z" fill="#222222"/>
<path d="M114.344 7.29443V8.40381H109.773V7.29443H114.344ZM111.32 5.23975H112.766V13.6538C112.766 13.9403 112.81 14.1564 112.898 14.3022C112.987 14.4481 113.102 14.5444 113.242 14.5913C113.383 14.6382 113.534 14.6616 113.695 14.6616C113.815 14.6616 113.94 14.6512 114.07 14.6304C114.206 14.6043 114.307 14.5835 114.375 14.5679L114.383 15.7476C114.268 15.784 114.117 15.8179 113.93 15.8491C113.747 15.8856 113.526 15.9038 113.266 15.9038C112.911 15.9038 112.586 15.8335 112.289 15.6929C111.992 15.5522 111.755 15.3179 111.578 14.9897C111.406 14.6564 111.32 14.2085 111.32 13.646V5.23975Z" fill="#222222"/>
</svg>
